<svg width="428" height="632" viewBox="0 0 428 632" fill="none" xmlns="http://www.w3.org/2000/svg">
<g filter="url(#filter0_dd_1_1601)">
<rect x="16" y="44" width="396" height="544" rx="6" fill="white" shape-rendering="crispEdges"/>
<path d="M43 72C41.3333 72 39.9167 71.4167 38.75 70.25C37.5833 69.0833 37 67.6667 37 66C37 64.3333 37.5833 62.9167 38.75 61.75C39.9167 60.5833 41.3333 60 43 60H53C54.6667 60 56.0833 60.5833 57.25 61.75C58.4167 62.9167 59 64.3333 59 66C59 67.6667 58.4167 69.0833 57.25 70.25C56.0833 71.4167 54.6667 72 53 72H43ZM43 70H53C54.1 70 55.0417 69.6083 55.825 68.825C56.6083 68.0417 57 67.1 57 66C57 64.9 56.6083 63.9583 55.825 63.175C55.0417 62.3917 54.1 62 53 62H43C41.9 62 40.9583 62.3917 40.175 63.175C39.3917 63.9583 39 64.9 39 66C39 67.1 39.3917 68.0417 40.175 68.825C40.9583 69.6083 41.9 70 43 70ZM53 69C53.8333 69 54.5417 68.7083 55.125 68.125C55.7083 67.5417 56 66.8333 56 66C56 65.1667 55.7083 64.4583 55.125 63.875C54.5417 63.2917 53.8333 63 53 63C52.1667 63 51.4583 63.2917 50.875 63.875C50.2917 64.4583 50 65.1667 50 66C50 66.8333 50.2917 67.5417 50.875 68.125C51.4583 68.7083 52.1667 69 53 69Z" fill="#1DA1F2"/>
<path d="M81.8359 59.625V71H79.8906V59.625H81.8359ZM85.4062 59.625V61.1875H76.3516V59.625H85.4062ZM91.1484 69.0078V62.5469H93.0391V71H91.2578L91.1484 69.0078ZM91.4141 67.25L92.0469 67.2344C92.0469 67.8021 91.9844 68.3255 91.8594 68.8047C91.7344 69.2786 91.5417 69.6927 91.2812 70.0469C91.0208 70.3958 90.6875 70.6693 90.2812 70.8672C89.875 71.0599 89.388 71.1562 88.8203 71.1562C88.4089 71.1562 88.0312 71.0964 87.6875 70.9766C87.3438 70.8568 87.0469 70.6719 86.7969 70.4219C86.5521 70.1719 86.362 69.8464 86.2266 69.4453C86.0911 69.0443 86.0234 68.5651 86.0234 68.0078V62.5469H87.9062V68.0234C87.9062 68.3307 87.9427 68.5885 88.0156 68.7969C88.0885 69 88.1875 69.1641 88.3125 69.2891C88.4375 69.4141 88.5833 69.5026 88.75 69.5547C88.9167 69.6068 89.0938 69.6328 89.2812 69.6328C89.8177 69.6328 90.2396 69.5286 90.5469 69.3203C90.8594 69.1068 91.0807 68.8203 91.2109 68.4609C91.3464 68.1016 91.4141 67.6979 91.4141 67.25ZM96.8594 64.1562V71H94.9766V62.5469H96.7734L96.8594 64.1562ZM99.4453 62.4922L99.4297 64.2422C99.3151 64.2214 99.1901 64.2057 99.0547 64.1953C98.9245 64.1849 98.7943 64.1797 98.6641 64.1797C98.3411 64.1797 98.0573 64.2266 97.8125 64.3203C97.5677 64.4089 97.362 64.5391 97.1953 64.7109C97.0339 64.8776 96.9089 65.0807 96.8203 65.3203C96.7318 65.5599 96.6797 65.8281 96.6641 66.125L96.2344 66.1562C96.2344 65.625 96.2865 65.1328 96.3906 64.6797C96.4948 64.2266 96.651 63.8281 96.8594 63.4844C97.0729 63.1406 97.3385 62.8724 97.6562 62.6797C97.9792 62.487 98.3516 62.3906 98.7734 62.3906C98.888 62.3906 99.0104 62.401 99.1406 62.4219C99.276 62.4427 99.3776 62.4661 99.4453 62.4922ZM102.492 64.3516V71H100.609V62.5469H102.383L102.492 64.3516ZM102.156 66.4609L101.547 66.4531C101.552 65.8542 101.635 65.3047 101.797 64.8047C101.964 64.3047 102.193 63.875 102.484 63.5156C102.781 63.1562 103.135 62.8802 103.547 62.6875C103.958 62.4896 104.417 62.3906 104.922 62.3906C105.328 62.3906 105.695 62.4479 106.023 62.5625C106.357 62.6719 106.641 62.8516 106.875 63.1016C107.115 63.3516 107.297 63.6771 107.422 64.0781C107.547 64.474 107.609 64.9609 107.609 65.5391V71H105.719V65.5312C105.719 65.125 105.659 64.8047 105.539 64.5703C105.424 64.3307 105.255 64.1615 105.031 64.0625C104.812 63.9583 104.539 63.9062 104.211 63.9062C103.888 63.9062 103.599 63.974 103.344 64.1094C103.089 64.2448 102.872 64.4297 102.695 64.6641C102.523 64.8984 102.391 65.1693 102.297 65.4766C102.203 65.7839 102.156 66.112 102.156 66.4609ZM122.773 65V65.625C122.773 66.4844 122.661 67.2552 122.438 67.9375C122.214 68.6198 121.893 69.2005 121.477 69.6797C121.065 70.1589 120.57 70.526 119.992 70.7812C119.414 71.0312 118.773 71.1562 118.07 71.1562C117.372 71.1562 116.734 71.0312 116.156 70.7812C115.583 70.526 115.086 70.1589 114.664 69.6797C114.242 69.2005 113.914 68.6198 113.68 67.9375C113.451 67.2552 113.336 66.4844 113.336 65.625V65C113.336 64.1406 113.451 63.3724 113.68 62.6953C113.909 62.013 114.232 61.4323 114.648 60.9531C115.07 60.4688 115.568 60.1016 116.141 59.8516C116.719 59.5964 117.357 59.4688 118.055 59.4688C118.758 59.4688 119.398 59.5964 119.977 59.8516C120.555 60.1016 121.052 60.4688 121.469 60.9531C121.885 61.4323 122.206 62.013 122.43 62.6953C122.659 63.3724 122.773 64.1406 122.773 65ZM120.812 65.625V64.9844C120.812 64.349 120.75 63.7891 120.625 63.3047C120.505 62.8151 120.326 62.4062 120.086 62.0781C119.852 61.7448 119.562 61.4948 119.219 61.3281C118.875 61.1562 118.487 61.0703 118.055 61.0703C117.622 61.0703 117.237 61.1562 116.898 61.3281C116.56 61.4948 116.271 61.7448 116.031 62.0781C115.797 62.4062 115.617 62.8151 115.492 63.3047C115.367 63.7891 115.305 64.349 115.305 64.9844V65.625C115.305 66.2604 115.367 66.8229 115.492 67.3125C115.617 67.8021 115.799 68.2161 116.039 68.5547C116.284 68.888 116.576 69.1406 116.914 69.3125C117.253 69.4792 117.638 69.5625 118.07 69.5625C118.508 69.5625 118.896 69.4792 119.234 69.3125C119.573 69.1406 119.859 68.888 120.094 68.5547C120.328 68.2161 120.505 67.8021 120.625 67.3125C120.75 66.8229 120.812 66.2604 120.812 65.625ZM127.094 71H125.211V61.7344C125.211 61.1042 125.328 60.5755 125.562 60.1484C125.802 59.7161 126.143 59.3906 126.586 59.1719C127.029 58.9479 127.552 58.8359 128.156 58.8359C128.344 58.8359 128.529 58.849 128.711 58.875C128.893 58.8958 129.07 58.9297 129.242 58.9766L129.195 60.4297C129.091 60.4036 128.977 60.3854 128.852 60.375C128.732 60.3646 128.602 60.3594 128.461 60.3594C128.174 60.3594 127.927 60.4141 127.719 60.5234C127.516 60.6276 127.359 60.7812 127.25 60.9844C127.146 61.1875 127.094 61.4375 127.094 61.7344V71ZM128.836 62.5469V63.9219H123.914V62.5469H128.836ZM132.75 71H130.867V61.7344C130.867 61.1042 130.984 60.5755 131.219 60.1484C131.458 59.7161 131.799 59.3906 132.242 59.1719C132.685 58.9479 133.208 58.8359 133.812 58.8359C134 58.8359 134.185 58.849 134.367 58.875C134.549 58.8958 134.727 58.9297 134.898 58.9766L134.852 60.4297C134.747 60.4036 134.633 60.3854 134.508 60.375C134.388 60.3646 134.258 60.3594 134.117 60.3594C133.831 60.3594 133.583 60.4141 133.375 60.5234C133.172 60.6276 133.016 60.7812 132.906 60.9844C132.802 61.1875 132.75 61.4375 132.75 61.7344V71ZM134.492 62.5469V63.9219H129.57V62.5469H134.492ZM139.648 65.3906V66.8906H135.516V65.3906H139.648ZM150.555 65V65.625C150.555 66.4844 150.443 67.2552 150.219 67.9375C149.995 68.6198 149.674 69.2005 149.258 69.6797C148.846 70.1589 148.352 70.526 147.773 70.7812C147.195 71.0312 146.555 71.1562 145.852 71.1562C145.154 71.1562 144.516 71.0312 143.938 70.7812C143.365 70.526 142.867 70.1589 142.445 69.6797C142.023 69.2005 141.695 68.6198 141.461 67.9375C141.232 67.2552 141.117 66.4844 141.117 65.625V65C141.117 64.1406 141.232 63.3724 141.461 62.6953C141.69 62.013 142.013 61.4323 142.43 60.9531C142.852 60.4688 143.349 60.1016 143.922 59.8516C144.5 59.5964 145.138 59.4688 145.836 59.4688C146.539 59.4688 147.18 59.5964 147.758 59.8516C148.336 60.1016 148.833 60.4688 149.25 60.9531C149.667 61.4323 149.987 62.013 150.211 62.6953C150.44 63.3724 150.555 64.1406 150.555 65ZM148.594 65.625V64.9844C148.594 64.349 148.531 63.7891 148.406 63.3047C148.286 62.8151 148.107 62.4062 147.867 62.0781C147.633 61.7448 147.344 61.4948 147 61.3281C146.656 61.1562 146.268 61.0703 145.836 61.0703C145.404 61.0703 145.018 61.1562 144.68 61.3281C144.341 61.4948 144.052 61.7448 143.812 62.0781C143.578 62.4062 143.398 62.8151 143.273 63.3047C143.148 63.7891 143.086 64.349 143.086 64.9844V65.625C143.086 66.2604 143.148 66.8229 143.273 67.3125C143.398 67.8021 143.581 68.2161 143.82 68.5547C144.065 68.888 144.357 69.1406 144.695 69.3125C145.034 69.4792 145.419 69.5625 145.852 69.5625C146.289 69.5625 146.677 69.4792 147.016 69.3125C147.354 69.1406 147.641 68.888 147.875 68.5547C148.109 68.2161 148.286 67.8021 148.406 67.3125C148.531 66.8229 148.594 66.2604 148.594 65.625ZM154.195 64.3516V71H152.312V62.5469H154.086L154.195 64.3516ZM153.859 66.4609L153.25 66.4531C153.255 65.8542 153.339 65.3047 153.5 64.8047C153.667 64.3047 153.896 63.875 154.188 63.5156C154.484 63.1562 154.839 62.8802 155.25 62.6875C155.661 62.4896 156.12 62.3906 156.625 62.3906C157.031 62.3906 157.398 62.4479 157.727 62.5625C158.06 62.6719 158.344 62.8516 158.578 63.1016C158.818 63.3516 159 63.6771 159.125 64.0781C159.25 64.474 159.312 64.9609 159.312 65.5391V71H157.422V65.5312C157.422 65.125 157.362 64.8047 157.242 64.5703C157.128 64.3307 156.958 64.1615 156.734 64.0625C156.516 63.9583 156.242 63.9062 155.914 63.9062C155.591 63.9062 155.302 63.974 155.047 64.1094C154.792 64.2448 154.576 64.4297 154.398 64.6641C154.227 64.8984 154.094 65.1693 154 65.4766C153.906 65.7839 153.859 66.112 153.859 66.4609ZM169.094 62.5469V63.9219H164.328V62.5469H169.094ZM165.703 60.4766H167.586V68.6641C167.586 68.9245 167.622 69.125 167.695 69.2656C167.773 69.401 167.88 69.4922 168.016 69.5391C168.151 69.5859 168.31 69.6094 168.492 69.6094C168.622 69.6094 168.747 69.6016 168.867 69.5859C168.987 69.5703 169.083 69.5547 169.156 69.5391L169.164 70.9766C169.008 71.0234 168.826 71.0651 168.617 71.1016C168.414 71.138 168.18 71.1562 167.914 71.1562C167.482 71.1562 167.099 71.0807 166.766 70.9297C166.432 70.7734 166.172 70.5208 165.984 70.1719C165.797 69.8229 165.703 69.3594 165.703 68.7812V60.4766ZM172.406 59V71H170.531V59H172.406ZM172.078 66.4609L171.469 66.4531C171.474 65.8698 171.555 65.3307 171.711 64.8359C171.872 64.3411 172.096 63.9115 172.383 63.5469C172.674 63.1771 173.023 62.8932 173.43 62.6953C173.836 62.4922 174.286 62.3906 174.781 62.3906C175.198 62.3906 175.573 62.4479 175.906 62.5625C176.245 62.6771 176.536 62.862 176.781 63.1172C177.026 63.3672 177.211 63.6953 177.336 64.1016C177.466 64.5026 177.531 64.9922 177.531 65.5703V71H175.641V65.5547C175.641 65.1484 175.581 64.8255 175.461 64.5859C175.346 64.3464 175.177 64.1745 174.953 64.0703C174.729 63.9609 174.456 63.9062 174.133 63.9062C173.794 63.9062 173.495 63.974 173.234 64.1094C172.979 64.2448 172.766 64.4297 172.594 64.6641C172.422 64.8984 172.292 65.1693 172.203 65.4766C172.12 65.7839 172.078 66.112 172.078 66.4609ZM183.164 71.1562C182.539 71.1562 181.974 71.0547 181.469 70.8516C180.969 70.6432 180.542 70.3542 180.188 69.9844C179.839 69.6146 179.57 69.1797 179.383 68.6797C179.195 68.1797 179.102 67.6406 179.102 67.0625V66.75C179.102 66.0885 179.198 65.4896 179.391 64.9531C179.583 64.4167 179.852 63.9583 180.195 63.5781C180.539 63.1927 180.945 62.8984 181.414 62.6953C181.883 62.4922 182.391 62.3906 182.938 62.3906C183.542 62.3906 184.07 62.4922 184.523 62.6953C184.977 62.8984 185.352 63.1849 185.648 63.5547C185.951 63.9193 186.174 64.3542 186.32 64.8594C186.471 65.3646 186.547 65.9219 186.547 66.5312V67.3359H180.016V65.9844H184.688V65.8359C184.677 65.4974 184.609 65.1797 184.484 64.8828C184.365 64.5859 184.18 64.3464 183.93 64.1641C183.68 63.9818 183.346 63.8906 182.93 63.8906C182.617 63.8906 182.339 63.9583 182.094 64.0938C181.854 64.224 181.654 64.4141 181.492 64.6641C181.331 64.9141 181.206 65.2161 181.117 65.5703C181.034 65.9193 180.992 66.3125 180.992 66.75V67.0625C180.992 67.4323 181.042 67.776 181.141 68.0938C181.245 68.4062 181.396 68.6797 181.594 68.9141C181.792 69.1484 182.031 69.3333 182.312 69.4688C182.594 69.599 182.914 69.6641 183.273 69.6641C183.727 69.6641 184.13 69.5729 184.484 69.3906C184.839 69.2083 185.146 68.9505 185.406 68.6172L186.398 69.5781C186.216 69.8438 185.979 70.099 185.688 70.3438C185.396 70.5833 185.039 70.7786 184.617 70.9297C184.201 71.0807 183.716 71.1562 183.164 71.1562ZM194.547 71H192.664V61.7344C192.664 61.1042 192.781 60.5755 193.016 60.1484C193.255 59.7161 193.596 59.3906 194.039 59.1719C194.482 58.9479 195.005 58.8359 195.609 58.8359C195.797 58.8359 195.982 58.849 196.164 58.875C196.346 58.8958 196.523 58.9297 196.695 58.9766L196.648 60.4297C196.544 60.4036 196.43 60.3854 196.305 60.375C196.185 60.3646 196.055 60.3594 195.914 60.3594C195.628 60.3594 195.38 60.4141 195.172 60.5234C194.969 60.6276 194.812 60.7812 194.703 60.9844C194.599 61.1875 194.547 61.4375 194.547 61.7344V71ZM196.289 62.5469V63.9219H191.367V62.5469H196.289ZM201.195 71.1562C200.57 71.1562 200.005 71.0547 199.5 70.8516C199 70.6432 198.573 70.3542 198.219 69.9844C197.87 69.6146 197.602 69.1797 197.414 68.6797C197.227 68.1797 197.133 67.6406 197.133 67.0625V66.75C197.133 66.0885 197.229 65.4896 197.422 64.9531C197.615 64.4167 197.883 63.9583 198.227 63.5781C198.57 63.1927 198.977 62.8984 199.445 62.6953C199.914 62.4922 200.422 62.3906 200.969 62.3906C201.573 62.3906 202.102 62.4922 202.555 62.6953C203.008 62.8984 203.383 63.1849 203.68 63.5547C203.982 63.9193 204.206 64.3542 204.352 64.8594C204.503 65.3646 204.578 65.9219 204.578 66.5312V67.3359H198.047V65.9844H202.719V65.8359C202.708 65.4974 202.641 65.1797 202.516 64.8828C202.396 64.5859 202.211 64.3464 201.961 64.1641C201.711 63.9818 201.378 63.8906 200.961 63.8906C200.648 63.8906 200.37 63.9583 200.125 64.0938C199.885 64.224 199.685 64.4141 199.523 64.6641C199.362 64.9141 199.237 65.2161 199.148 65.5703C199.065 65.9193 199.023 66.3125 199.023 66.75V67.0625C199.023 67.4323 199.073 67.776 199.172 68.0938C199.276 68.4062 199.427 68.6797 199.625 68.9141C199.823 69.1484 200.062 69.3333 200.344 69.4688C200.625 69.599 200.945 69.6641 201.305 69.6641C201.758 69.6641 202.161 69.5729 202.516 69.3906C202.87 69.2083 203.177 68.9505 203.438 68.6172L204.43 69.5781C204.247 69.8438 204.01 70.099 203.719 70.3438C203.427 70.5833 203.07 70.7786 202.648 70.9297C202.232 71.0807 201.747 71.1562 201.195 71.1562ZM210.812 69.3047V65.2734C210.812 64.9714 210.758 64.7109 210.648 64.4922C210.539 64.2734 210.372 64.1042 210.148 63.9844C209.93 63.8646 209.654 63.8047 209.32 63.8047C209.013 63.8047 208.747 63.8568 208.523 63.9609C208.299 64.0651 208.125 64.2057 208 64.3828C207.875 64.5599 207.812 64.7604 207.812 64.9844H205.938C205.938 64.651 206.018 64.3281 206.18 64.0156C206.341 63.7031 206.576 63.4245 206.883 63.1797C207.19 62.9349 207.557 62.7422 207.984 62.6016C208.411 62.4609 208.891 62.3906 209.422 62.3906C210.057 62.3906 210.62 62.4974 211.109 62.7109C211.604 62.9245 211.992 63.2474 212.273 63.6797C212.56 64.1068 212.703 64.6432 212.703 65.2891V69.0469C212.703 69.4323 212.729 69.7786 212.781 70.0859C212.839 70.388 212.919 70.651 213.023 70.875V71H211.094C211.005 70.7969 210.935 70.5391 210.883 70.2266C210.836 69.9089 210.812 69.6016 210.812 69.3047ZM211.086 65.8594L211.102 67.0234H209.75C209.401 67.0234 209.094 67.0573 208.828 67.125C208.562 67.1875 208.341 67.2812 208.164 67.4062C207.987 67.5312 207.854 67.6823 207.766 67.8594C207.677 68.0365 207.633 68.237 207.633 68.4609C207.633 68.6849 207.685 68.8906 207.789 69.0781C207.893 69.2604 208.044 69.4036 208.242 69.5078C208.445 69.612 208.69 69.6641 208.977 69.6641C209.362 69.6641 209.698 69.5859 209.984 69.4297C210.276 69.2682 210.505 69.0729 210.672 68.8438C210.839 68.6094 210.927 68.388 210.938 68.1797L211.547 69.0156C211.484 69.2292 211.378 69.4583 211.227 69.7031C211.076 69.9479 210.878 70.1823 210.633 70.4062C210.393 70.625 210.104 70.8047 209.766 70.9453C209.432 71.0859 209.047 71.1562 208.609 71.1562C208.057 71.1562 207.565 71.0469 207.133 70.8281C206.701 70.6042 206.362 70.3047 206.117 69.9297C205.872 69.5495 205.75 69.1198 205.75 68.6406C205.75 68.1927 205.833 67.7969 206 67.4531C206.172 67.1042 206.422 66.8125 206.75 66.5781C207.083 66.3438 207.49 66.1667 207.969 66.0469C208.448 65.9219 208.995 65.8594 209.609 65.8594H211.086ZM218.547 62.5469V63.9219H213.781V62.5469H218.547ZM215.156 60.4766H217.039V68.6641C217.039 68.9245 217.076 69.125 217.148 69.2656C217.227 69.401 217.333 69.4922 217.469 69.5391C217.604 69.5859 217.763 69.6094 217.945 69.6094C218.076 69.6094 218.201 69.6016 218.32 69.5859C218.44 69.5703 218.536 69.5547 218.609 69.5391L218.617 70.9766C218.461 71.0234 218.279 71.0651 218.07 71.1016C217.867 71.138 217.633 71.1562 217.367 71.1562C216.935 71.1562 216.552 71.0807 216.219 70.9297C215.885 70.7734 215.625 70.5208 215.438 70.1719C215.25 69.8229 215.156 69.3594 215.156 68.7812V60.4766ZM225.086 69.0078V62.5469H226.977V71H225.195L225.086 69.0078ZM225.352 67.25L225.984 67.2344C225.984 67.8021 225.922 68.3255 225.797 68.8047C225.672 69.2786 225.479 69.6927 225.219 70.0469C224.958 70.3958 224.625 70.6693 224.219 70.8672C223.812 71.0599 223.326 71.1562 222.758 71.1562C222.346 71.1562 221.969 71.0964 221.625 70.9766C221.281 70.8568 220.984 70.6719 220.734 70.4219C220.49 70.1719 220.299 69.8464 220.164 69.4453C220.029 69.0443 219.961 68.5651 219.961 68.0078V62.5469H221.844V68.0234C221.844 68.3307 221.88 68.5885 221.953 68.7969C222.026 69 222.125 69.1641 222.25 69.2891C222.375 69.4141 222.521 69.5026 222.688 69.5547C222.854 69.6068 223.031 69.6328 223.219 69.6328C223.755 69.6328 224.177 69.5286 224.484 69.3203C224.797 69.1068 225.018 68.8203 225.148 68.4609C225.284 68.1016 225.352 67.6979 225.352 67.25ZM230.797 64.1562V71H228.914V62.5469H230.711L230.797 64.1562ZM233.383 62.4922L233.367 64.2422C233.253 64.2214 233.128 64.2057 232.992 64.1953C232.862 64.1849 232.732 64.1797 232.602 64.1797C232.279 64.1797 231.995 64.2266 231.75 64.3203C231.505 64.4089 231.299 64.5391 231.133 64.7109C230.971 64.8776 230.846 65.0807 230.758 65.3203C230.669 65.5599 230.617 65.8281 230.602 66.125L230.172 66.1562C230.172 65.625 230.224 65.1328 230.328 64.6797C230.432 64.2266 230.589 63.8281 230.797 63.4844C231.01 63.1406 231.276 62.8724 231.594 62.6797C231.917 62.487 232.289 62.3906 232.711 62.3906C232.826 62.3906 232.948 62.401 233.078 62.4219C233.214 62.4427 233.315 62.4661 233.383 62.4922ZM238.133 71.1562C237.508 71.1562 236.943 71.0547 236.438 70.8516C235.938 70.6432 235.51 70.3542 235.156 69.9844C234.807 69.6146 234.539 69.1797 234.352 68.6797C234.164 68.1797 234.07 67.6406 234.07 67.0625V66.75C234.07 66.0885 234.167 65.4896 234.359 64.9531C234.552 64.4167 234.82 63.9583 235.164 63.5781C235.508 63.1927 235.914 62.8984 236.383 62.6953C236.852 62.4922 237.359 62.3906 237.906 62.3906C238.51 62.3906 239.039 62.4922 239.492 62.6953C239.945 62.8984 240.32 63.1849 240.617 63.5547C240.919 63.9193 241.143 64.3542 241.289 64.8594C241.44 65.3646 241.516 65.9219 241.516 66.5312V67.3359H234.984V65.9844H239.656V65.8359C239.646 65.4974 239.578 65.1797 239.453 64.8828C239.333 64.5859 239.148 64.3464 238.898 64.1641C238.648 63.9818 238.315 63.8906 237.898 63.8906C237.586 63.8906 237.307 63.9583 237.062 64.0938C236.823 64.224 236.622 64.4141 236.461 64.6641C236.299 64.9141 236.174 65.2161 236.086 65.5703C236.003 65.9193 235.961 66.3125 235.961 66.75V67.0625C235.961 67.4323 236.01 67.776 236.109 68.0938C236.214 68.4062 236.365 68.6797 236.562 68.9141C236.76 69.1484 237 69.3333 237.281 69.4688C237.562 69.599 237.883 69.6641 238.242 69.6641C238.695 69.6641 239.099 69.5729 239.453 69.3906C239.807 69.2083 240.115 68.9505 240.375 68.6172L241.367 69.5781C241.185 69.8438 240.948 70.099 240.656 70.3438C240.365 70.5833 240.008 70.7786 239.586 70.9297C239.169 71.0807 238.685 71.1562 238.133 71.1562ZM247.727 68.7109C247.727 68.5234 247.68 68.3542 247.586 68.2031C247.492 68.0469 247.312 67.9062 247.047 67.7812C246.786 67.6562 246.401 67.5417 245.891 67.4375C245.443 67.3385 245.031 67.2214 244.656 67.0859C244.286 66.9453 243.969 66.776 243.703 66.5781C243.438 66.3802 243.232 66.1458 243.086 65.875C242.94 65.6042 242.867 65.2917 242.867 64.9375C242.867 64.5938 242.943 64.2682 243.094 63.9609C243.245 63.6536 243.461 63.3828 243.742 63.1484C244.023 62.9141 244.365 62.7292 244.766 62.5938C245.172 62.4583 245.625 62.3906 246.125 62.3906C246.833 62.3906 247.44 62.5104 247.945 62.75C248.456 62.9844 248.846 63.3047 249.117 63.7109C249.388 64.112 249.523 64.5651 249.523 65.0703H247.641C247.641 64.8464 247.583 64.638 247.469 64.4453C247.359 64.2474 247.193 64.0885 246.969 63.9688C246.745 63.8438 246.464 63.7812 246.125 63.7812C245.802 63.7812 245.534 63.8333 245.32 63.9375C245.112 64.0365 244.956 64.1667 244.852 64.3281C244.753 64.4896 244.703 64.6667 244.703 64.8594C244.703 65 244.729 65.1276 244.781 65.2422C244.839 65.3516 244.932 65.4531 245.062 65.5469C245.193 65.6354 245.37 65.7188 245.594 65.7969C245.823 65.875 246.109 65.9505 246.453 66.0234C247.099 66.1589 247.654 66.3333 248.117 66.5469C248.586 66.7552 248.945 67.026 249.195 67.3594C249.445 67.6875 249.57 68.1042 249.57 68.6094C249.57 68.9844 249.49 69.3281 249.328 69.6406C249.172 69.9479 248.943 70.2161 248.641 70.4453C248.339 70.6693 247.977 70.8438 247.555 70.9688C247.138 71.0938 246.669 71.1562 246.148 71.1562C245.383 71.1562 244.734 71.0208 244.203 70.75C243.672 70.474 243.268 70.1224 242.992 69.6953C242.721 69.263 242.586 68.8151 242.586 68.3516H244.406C244.427 68.7005 244.523 68.9792 244.695 69.1875C244.872 69.3906 245.091 69.5391 245.352 69.6328C245.617 69.7214 245.891 69.7656 246.172 69.7656C246.51 69.7656 246.794 69.7214 247.023 69.6328C247.253 69.5391 247.427 69.4141 247.547 69.2578C247.667 69.0964 247.727 68.9141 247.727 68.7109Z" fill="#1DA1F2"/>
<path d="M77.5723 86.0469H78.8506L82.1113 94.1611L85.3652 86.0469H86.6504L82.6035 96H81.6055L77.5723 86.0469ZM77.1553 86.0469H78.2832L78.4678 92.1172V96H77.1553V86.0469ZM85.9326 86.0469H87.0605V96H85.748V92.1172L85.9326 86.0469ZM92.2559 96.1367C91.7409 96.1367 91.2738 96.0501 90.8545 95.877C90.4398 95.6992 90.082 95.4508 89.7812 95.1318C89.485 94.8128 89.2572 94.4346 89.0977 93.9971C88.9382 93.5596 88.8584 93.0811 88.8584 92.5615V92.2744C88.8584 91.6729 88.9473 91.1374 89.125 90.668C89.3027 90.194 89.5443 89.793 89.8496 89.4648C90.1549 89.1367 90.5013 88.8883 90.8887 88.7197C91.276 88.5511 91.6771 88.4668 92.0918 88.4668C92.6204 88.4668 93.0762 88.5579 93.459 88.7402C93.8464 88.9225 94.1631 89.1777 94.4092 89.5059C94.6553 89.8294 94.8376 90.2122 94.9561 90.6543C95.0745 91.0918 95.1338 91.5703 95.1338 92.0898V92.6572H89.6104V91.625H93.8691V91.5293C93.8509 91.2012 93.7826 90.8822 93.6641 90.5723C93.5501 90.2624 93.3678 90.0072 93.1172 89.8066C92.8665 89.6061 92.5247 89.5059 92.0918 89.5059C91.8047 89.5059 91.5404 89.5674 91.2988 89.6904C91.0573 89.8089 90.8499 89.9867 90.6768 90.2236C90.5036 90.4606 90.3691 90.75 90.2734 91.0918C90.1777 91.4336 90.1299 91.8278 90.1299 92.2744V92.5615C90.1299 92.9124 90.1777 93.2428 90.2734 93.5527C90.3737 93.8581 90.5173 94.127 90.7041 94.3594C90.8955 94.5918 91.1257 94.7741 91.3945 94.9062C91.668 95.0384 91.9779 95.1045 92.3242 95.1045C92.7708 95.1045 93.1491 95.0133 93.459 94.8311C93.7689 94.6488 94.04 94.4049 94.2725 94.0996L95.0381 94.708C94.8786 94.9495 94.6758 95.1797 94.4297 95.3984C94.1836 95.6172 93.8805 95.7949 93.5205 95.9316C93.165 96.0684 92.7435 96.1367 92.2559 96.1367ZM98.7637 94.8584L100.787 88.6035H102.079L99.4199 96H98.5723L98.7637 94.8584ZM97.0752 88.6035L99.1602 94.8926L99.3037 96H98.4561L95.7764 88.6035H97.0752ZM102.852 92.3838V92.2266C102.852 91.6934 102.929 91.1989 103.084 90.7432C103.239 90.2829 103.462 89.8841 103.754 89.5469C104.046 89.2051 104.399 88.9408 104.813 88.7539C105.228 88.5625 105.693 88.4668 106.208 88.4668C106.728 88.4668 107.195 88.5625 107.609 88.7539C108.029 88.9408 108.384 89.2051 108.676 89.5469C108.972 89.8841 109.198 90.2829 109.353 90.7432C109.507 91.1989 109.585 91.6934 109.585 92.2266V92.3838C109.585 92.917 109.507 93.4115 109.353 93.8672C109.198 94.3229 108.972 94.7217 108.676 95.0635C108.384 95.4007 108.031 95.665 107.616 95.8564C107.206 96.0433 106.741 96.1367 106.222 96.1367C105.702 96.1367 105.235 96.0433 104.82 95.8564C104.406 95.665 104.05 95.4007 103.754 95.0635C103.462 94.7217 103.239 94.3229 103.084 93.8672C102.929 93.4115 102.852 92.917 102.852 92.3838ZM104.116 92.2266V92.3838C104.116 92.7529 104.16 93.1016 104.246 93.4297C104.333 93.7533 104.463 94.0404 104.636 94.291C104.813 94.5417 105.035 94.7399 105.299 94.8857C105.563 95.027 105.871 95.0977 106.222 95.0977C106.568 95.0977 106.871 95.027 107.131 94.8857C107.395 94.7399 107.614 94.5417 107.787 94.291C107.96 94.0404 108.09 93.7533 108.177 93.4297C108.268 93.1016 108.313 92.7529 108.313 92.3838V92.2266C108.313 91.862 108.268 91.5179 108.177 91.1943C108.09 90.8662 107.958 90.5768 107.78 90.3262C107.607 90.071 107.388 89.8704 107.124 89.7246C106.864 89.5788 106.559 89.5059 106.208 89.5059C105.862 89.5059 105.556 89.5788 105.292 89.7246C105.032 89.8704 104.813 90.071 104.636 90.3262C104.463 90.5768 104.333 90.8662 104.246 91.1943C104.16 91.5179 104.116 91.862 104.116 92.2266ZM112.545 85.5V96H111.273V85.5H112.545ZM116.824 94.8584L118.848 88.6035H120.14L117.48 96H116.633L116.824 94.8584ZM115.136 88.6035L117.221 94.8926L117.364 96H116.517L113.837 88.6035H115.136ZM124.33 96.1367C123.815 96.1367 123.348 96.0501 122.929 95.877C122.514 95.6992 122.156 95.4508 121.855 95.1318C121.559 94.8128 121.331 94.4346 121.172 93.9971C121.012 93.5596 120.933 93.0811 120.933 92.5615V92.2744C120.933 91.6729 121.021 91.1374 121.199 90.668C121.377 90.194 121.618 89.793 121.924 89.4648C122.229 89.1367 122.576 88.8883 122.963 88.7197C123.35 88.5511 123.751 88.4668 124.166 88.4668C124.695 88.4668 125.15 88.5579 125.533 88.7402C125.921 88.9225 126.237 89.1777 126.483 89.5059C126.729 89.8294 126.912 90.2122 127.03 90.6543C127.149 91.0918 127.208 91.5703 127.208 92.0898V92.6572H121.685V91.625H125.943V91.5293C125.925 91.2012 125.857 90.8822 125.738 90.5723C125.624 90.2624 125.442 90.0072 125.191 89.8066C124.941 89.6061 124.599 89.5059 124.166 89.5059C123.879 89.5059 123.615 89.5674 123.373 89.6904C123.132 89.8089 122.924 89.9867 122.751 90.2236C122.578 90.4606 122.443 90.75 122.348 91.0918C122.252 91.4336 122.204 91.8278 122.204 92.2744V92.5615C122.204 92.9124 122.252 93.2428 122.348 93.5527C122.448 93.8581 122.591 94.127 122.778 94.3594C122.97 94.5918 123.2 94.7741 123.469 94.9062C123.742 95.0384 124.052 95.1045 124.398 95.1045C124.845 95.1045 125.223 95.0133 125.533 94.8311C125.843 94.6488 126.114 94.4049 126.347 94.0996L127.112 94.708C126.953 94.9495 126.75 95.1797 126.504 95.3984C126.258 95.6172 125.955 95.7949 125.595 95.9316C125.239 96.0684 124.818 96.1367 124.33 96.1367ZM134.03 94.6875L135.931 88.6035H136.765L136.601 89.8135L134.666 96H133.853L134.03 94.6875ZM132.752 88.6035L134.372 94.7559L134.488 96H133.634L131.487 88.6035H132.752ZM138.583 94.708L140.128 88.6035H141.386L139.239 96H138.392L138.583 94.708ZM136.949 88.6035L138.809 94.585L139.021 96H138.214L136.225 89.7998L136.061 88.6035H136.949ZM147.046 94.7354V90.9277C147.046 90.6361 146.987 90.3831 146.868 90.1689C146.754 89.9502 146.581 89.7816 146.349 89.6631C146.116 89.5446 145.829 89.4854 145.487 89.4854C145.168 89.4854 144.888 89.54 144.646 89.6494C144.41 89.7588 144.223 89.9023 144.086 90.0801C143.954 90.2578 143.888 90.4492 143.888 90.6543H142.623C142.623 90.39 142.691 90.1279 142.828 89.8682C142.965 89.6084 143.161 89.3737 143.416 89.1641C143.676 88.9499 143.986 88.7812 144.346 88.6582C144.71 88.5306 145.116 88.4668 145.562 88.4668C146.1 88.4668 146.574 88.5579 146.984 88.7402C147.399 88.9225 147.723 89.1982 147.955 89.5674C148.192 89.932 148.311 90.39 148.311 90.9414V94.3867C148.311 94.6328 148.331 94.8949 148.372 95.1729C148.418 95.4508 148.484 95.6901 148.57 95.8906V96H147.251C147.187 95.8542 147.137 95.6605 147.101 95.4189C147.064 95.1729 147.046 94.945 147.046 94.7354ZM147.265 91.5156L147.278 92.4043H146C145.64 92.4043 145.319 92.4339 145.036 92.4932C144.754 92.5479 144.517 92.6322 144.325 92.7461C144.134 92.86 143.988 93.0036 143.888 93.1768C143.787 93.3454 143.737 93.5436 143.737 93.7715C143.737 94.0039 143.79 94.2158 143.895 94.4072C143.999 94.5986 144.157 94.7513 144.366 94.8652C144.58 94.9746 144.842 95.0293 145.152 95.0293C145.54 95.0293 145.882 94.9473 146.178 94.7832C146.474 94.6191 146.709 94.4186 146.882 94.1816C147.06 93.9447 147.155 93.7145 147.169 93.4912L147.709 94.0996C147.677 94.291 147.59 94.5029 147.449 94.7354C147.308 94.9678 147.119 95.1911 146.882 95.4053C146.649 95.6149 146.371 95.7904 146.048 95.9316C145.729 96.0684 145.369 96.1367 144.968 96.1367C144.466 96.1367 144.027 96.0387 143.648 95.8428C143.275 95.6468 142.983 95.3848 142.773 95.0566C142.568 94.724 142.466 94.3525 142.466 93.9424C142.466 93.5459 142.543 93.1973 142.698 92.8965C142.853 92.5911 143.076 92.3382 143.368 92.1377C143.66 91.9326 144.011 91.7777 144.421 91.6729C144.831 91.568 145.289 91.5156 145.795 91.5156H147.265ZM154.606 94.0381C154.606 93.8558 154.565 93.6872 154.483 93.5322C154.406 93.3727 154.244 93.2292 153.998 93.1016C153.757 92.9694 153.392 92.8555 152.904 92.7598C152.494 92.6732 152.123 92.5706 151.79 92.4521C151.462 92.3337 151.182 92.1901 150.949 92.0215C150.721 91.8529 150.546 91.6546 150.423 91.4268C150.3 91.1989 150.238 90.9323 150.238 90.627C150.238 90.3353 150.302 90.0596 150.43 89.7998C150.562 89.54 150.746 89.3099 150.983 89.1094C151.225 88.9089 151.514 88.7516 151.852 88.6377C152.189 88.5238 152.565 88.4668 152.979 88.4668C153.572 88.4668 154.078 88.5716 154.497 88.7812C154.916 88.9909 155.238 89.2712 155.461 89.6221C155.684 89.9684 155.796 90.3535 155.796 90.7773H154.531C154.531 90.5723 154.47 90.374 154.347 90.1826C154.228 89.9867 154.053 89.8249 153.82 89.6973C153.592 89.5697 153.312 89.5059 152.979 89.5059C152.629 89.5059 152.344 89.5605 152.125 89.6699C151.911 89.7747 151.754 89.9092 151.653 90.0732C151.558 90.2373 151.51 90.4105 151.51 90.5928C151.51 90.7295 151.533 90.8525 151.578 90.9619C151.628 91.0667 151.715 91.1647 151.838 91.2559C151.961 91.3424 152.134 91.4245 152.357 91.502C152.581 91.5794 152.866 91.6569 153.212 91.7344C153.818 91.8711 154.317 92.0352 154.709 92.2266C155.101 92.418 155.393 92.6527 155.584 92.9307C155.775 93.2087 155.871 93.5459 155.871 93.9424C155.871 94.266 155.803 94.5622 155.666 94.8311C155.534 95.0999 155.34 95.3324 155.085 95.5283C154.834 95.7197 154.534 95.8701 154.183 95.9795C153.836 96.0843 153.447 96.1367 153.014 96.1367C152.362 96.1367 151.811 96.0205 151.359 95.7881C150.908 95.5557 150.566 95.2549 150.334 94.8857C150.102 94.5166 149.985 94.127 149.985 93.7168H151.257C151.275 94.0632 151.375 94.3389 151.558 94.5439C151.74 94.7445 151.963 94.888 152.228 94.9746C152.492 95.0566 152.754 95.0977 153.014 95.0977C153.36 95.0977 153.649 95.0521 153.882 94.9609C154.119 94.8698 154.299 94.7445 154.422 94.585C154.545 94.4255 154.606 94.2432 154.606 94.0381ZM165.667 94.5645V85.5H166.938V96H165.776L165.667 94.5645ZM160.69 92.3838V92.2402C160.69 91.6751 160.759 91.1624 160.896 90.7021C161.037 90.2373 161.235 89.8385 161.49 89.5059C161.75 89.1732 162.058 88.918 162.413 88.7402C162.773 88.5579 163.174 88.4668 163.616 88.4668C164.081 88.4668 164.487 88.5488 164.833 88.7129C165.184 88.8724 165.48 89.1071 165.722 89.417C165.968 89.7223 166.161 90.0915 166.303 90.5244C166.444 90.9574 166.542 91.4473 166.597 91.9941V92.623C166.547 93.1654 166.449 93.653 166.303 94.0859C166.161 94.5189 165.968 94.888 165.722 95.1934C165.48 95.4987 165.184 95.7334 164.833 95.8975C164.482 96.057 164.072 96.1367 163.603 96.1367C163.17 96.1367 162.773 96.0433 162.413 95.8564C162.058 95.6696 161.75 95.4076 161.49 95.0703C161.235 94.7331 161.037 94.3366 160.896 93.8809C160.759 93.4206 160.69 92.9215 160.69 92.3838ZM161.962 92.2402V92.3838C161.962 92.7529 161.998 93.0993 162.071 93.4229C162.149 93.7464 162.267 94.0312 162.427 94.2773C162.586 94.5234 162.789 94.7171 163.035 94.8584C163.281 94.9951 163.575 95.0635 163.917 95.0635C164.336 95.0635 164.68 94.9746 164.949 94.7969C165.223 94.6191 165.441 94.3844 165.605 94.0928C165.77 93.8011 165.897 93.4844 165.988 93.1426V91.4951C165.934 91.2445 165.854 91.0029 165.749 90.7705C165.649 90.5335 165.517 90.3239 165.353 90.1416C165.193 89.9548 164.995 89.8066 164.758 89.6973C164.525 89.5879 164.25 89.5332 163.931 89.5332C163.584 89.5332 163.286 89.6061 163.035 89.752C162.789 89.8932 162.586 90.0892 162.427 90.3398C162.267 90.5859 162.149 90.873 162.071 91.2012C161.998 91.5247 161.962 91.8711 161.962 92.2402ZM171.977 96.1367C171.462 96.1367 170.994 96.0501 170.575 95.877C170.16 95.6992 169.803 95.4508 169.502 95.1318C169.206 94.8128 168.978 94.4346 168.818 93.9971C168.659 93.5596 168.579 93.0811 168.579 92.5615V92.2744C168.579 91.6729 168.668 91.1374 168.846 90.668C169.023 90.194 169.265 89.793 169.57 89.4648C169.876 89.1367 170.222 88.8883 170.609 88.7197C170.997 88.5511 171.398 88.4668 171.812 88.4668C172.341 88.4668 172.797 88.5579 173.18 88.7402C173.567 88.9225 173.884 89.1777 174.13 89.5059C174.376 89.8294 174.558 90.2122 174.677 90.6543C174.795 91.0918 174.854 91.5703 174.854 92.0898V92.6572H169.331V91.625H173.59V91.5293C173.572 91.2012 173.503 90.8822 173.385 90.5723C173.271 90.2624 173.089 90.0072 172.838 89.8066C172.587 89.6061 172.245 89.5059 171.812 89.5059C171.525 89.5059 171.261 89.5674 171.02 89.6904C170.778 89.8089 170.571 89.9867 170.397 90.2236C170.224 90.4606 170.09 90.75 169.994 91.0918C169.898 91.4336 169.851 91.8278 169.851 92.2744V92.5615C169.851 92.9124 169.898 93.2428 169.994 93.5527C170.094 93.8581 170.238 94.127 170.425 94.3594C170.616 94.5918 170.846 94.7741 171.115 94.9062C171.389 95.0384 171.699 95.1045 172.045 95.1045C172.492 95.1045 172.87 95.0133 173.18 94.8311C173.49 94.6488 173.761 94.4049 173.993 94.0996L174.759 94.708C174.599 94.9495 174.396 95.1797 174.15 95.3984C173.904 95.6172 173.601 95.7949 173.241 95.9316C172.886 96.0684 172.464 96.1367 171.977 96.1367ZM178.484 94.8584L180.508 88.6035H181.8L179.141 96H178.293L178.484 94.8584ZM176.796 88.6035L178.881 94.8926L179.024 96H178.177L175.497 88.6035H176.796ZM185.99 96.1367C185.475 96.1367 185.008 96.0501 184.589 95.877C184.174 95.6992 183.816 95.4508 183.516 95.1318C183.219 94.8128 182.992 94.4346 182.832 93.9971C182.673 93.5596 182.593 93.0811 182.593 92.5615V92.2744C182.593 91.6729 182.682 91.1374 182.859 90.668C183.037 90.194 183.279 89.793 183.584 89.4648C183.889 89.1367 184.236 88.8883 184.623 88.7197C185.01 88.5511 185.411 88.4668 185.826 88.4668C186.355 88.4668 186.811 88.5579 187.193 88.7402C187.581 88.9225 187.897 89.1777 188.144 89.5059C188.39 89.8294 188.572 90.2122 188.69 90.6543C188.809 91.0918 188.868 91.5703 188.868 92.0898V92.6572H183.345V91.625H187.604V91.5293C187.585 91.2012 187.517 90.8822 187.398 90.5723C187.285 90.2624 187.102 90.0072 186.852 89.8066C186.601 89.6061 186.259 89.5059 185.826 89.5059C185.539 89.5059 185.275 89.5674 185.033 89.6904C184.792 89.8089 184.584 89.9867 184.411 90.2236C184.238 90.4606 184.104 90.75 184.008 91.0918C183.912 91.4336 183.864 91.8278 183.864 92.2744V92.5615C183.864 92.9124 183.912 93.2428 184.008 93.5527C184.108 93.8581 184.252 94.127 184.438 94.3594C184.63 94.5918 184.86 94.7741 185.129 94.9062C185.402 95.0384 185.712 95.1045 186.059 95.1045C186.505 95.1045 186.883 95.0133 187.193 94.8311C187.503 94.6488 187.774 94.4049 188.007 94.0996L188.772 94.708C188.613 94.9495 188.41 95.1797 188.164 95.3984C187.918 95.6172 187.615 95.7949 187.255 95.9316C186.899 96.0684 186.478 96.1367 185.99 96.1367ZM191.719 85.5V96H190.447V85.5H191.719ZM193.414 92.3838V92.2266C193.414 91.6934 193.492 91.1989 193.646 90.7432C193.801 90.2829 194.025 89.8841 194.316 89.5469C194.608 89.2051 194.961 88.9408 195.376 88.7539C195.791 88.5625 196.256 88.4668 196.771 88.4668C197.29 88.4668 197.757 88.5625 198.172 88.7539C198.591 88.9408 198.947 89.2051 199.238 89.5469C199.535 89.8841 199.76 90.2829 199.915 90.7432C200.07 91.1989 200.147 91.6934 200.147 92.2266V92.3838C200.147 92.917 200.07 93.4115 199.915 93.8672C199.76 94.3229 199.535 94.7217 199.238 95.0635C198.947 95.4007 198.593 95.665 198.179 95.8564C197.769 96.0433 197.304 96.1367 196.784 96.1367C196.265 96.1367 195.798 96.0433 195.383 95.8564C194.968 95.665 194.613 95.4007 194.316 95.0635C194.025 94.7217 193.801 94.3229 193.646 93.8672C193.492 93.4115 193.414 92.917 193.414 92.3838ZM194.679 92.2266V92.3838C194.679 92.7529 194.722 93.1016 194.809 93.4297C194.895 93.7533 195.025 94.0404 195.198 94.291C195.376 94.5417 195.597 94.7399 195.861 94.8857C196.126 95.027 196.433 95.0977 196.784 95.0977C197.131 95.0977 197.434 95.027 197.693 94.8857C197.958 94.7399 198.176 94.5417 198.35 94.291C198.523 94.0404 198.653 93.7533 198.739 93.4297C198.83 93.1016 198.876 92.7529 198.876 92.3838V92.2266C198.876 91.862 198.83 91.5179 198.739 91.1943C198.653 90.8662 198.521 90.5768 198.343 90.3262C198.17 90.071 197.951 89.8704 197.687 89.7246C197.427 89.5788 197.121 89.5059 196.771 89.5059C196.424 89.5059 196.119 89.5788 195.854 89.7246C195.595 89.8704 195.376 90.071 195.198 90.3262C195.025 90.5768 194.895 90.8662 194.809 91.1943C194.722 91.5179 194.679 91.862 194.679 92.2266ZM202.998 90.0254V98.8438H201.727V88.6035H202.889L202.998 90.0254ZM207.981 92.2402V92.3838C207.981 92.9215 207.918 93.4206 207.79 93.8809C207.662 94.3366 207.476 94.7331 207.229 95.0703C206.988 95.4076 206.689 95.6696 206.334 95.8564C205.979 96.0433 205.571 96.1367 205.11 96.1367C204.641 96.1367 204.226 96.0592 203.866 95.9043C203.506 95.7493 203.201 95.5238 202.95 95.2275C202.7 94.9313 202.499 94.5758 202.349 94.1611C202.203 93.7464 202.103 93.2793 202.048 92.7598V91.9941C202.103 91.4473 202.205 90.9574 202.355 90.5244C202.506 90.0915 202.704 89.7223 202.95 89.417C203.201 89.1071 203.504 88.8724 203.859 88.7129C204.215 88.5488 204.625 88.4668 205.09 88.4668C205.555 88.4668 205.967 88.5579 206.327 88.7402C206.687 88.918 206.99 89.1732 207.236 89.5059C207.482 89.8385 207.667 90.2373 207.79 90.7021C207.918 91.1624 207.981 91.6751 207.981 92.2402ZM206.71 92.3838V92.2402C206.71 91.8711 206.671 91.5247 206.594 91.2012C206.516 90.873 206.396 90.5859 206.231 90.3398C206.072 90.0892 205.867 89.8932 205.616 89.752C205.366 89.6061 205.067 89.5332 204.721 89.5332C204.402 89.5332 204.124 89.5879 203.887 89.6973C203.654 89.8066 203.456 89.9548 203.292 90.1416C203.128 90.3239 202.993 90.5335 202.889 90.7705C202.788 91.0029 202.713 91.2445 202.663 91.4951V93.2656C202.754 93.5846 202.882 93.8854 203.046 94.168C203.21 94.446 203.429 94.6715 203.702 94.8447C203.976 95.0133 204.32 95.0977 204.734 95.0977C205.076 95.0977 205.37 95.027 205.616 94.8857C205.867 94.7399 206.072 94.5417 206.231 94.291C206.396 94.0404 206.516 93.7533 206.594 93.4297C206.671 93.1016 206.71 92.7529 206.71 92.3838ZM212.664 96.1367C212.149 96.1367 211.682 96.0501 211.263 95.877C210.848 95.6992 210.49 95.4508 210.189 95.1318C209.893 94.8128 209.665 94.4346 209.506 93.9971C209.346 93.5596 209.267 93.0811 209.267 92.5615V92.2744C209.267 91.6729 209.355 91.1374 209.533 90.668C209.711 90.194 209.952 89.793 210.258 89.4648C210.563 89.1367 210.91 88.8883 211.297 88.7197C211.684 88.5511 212.085 88.4668 212.5 88.4668C213.029 88.4668 213.484 88.5579 213.867 88.7402C214.255 88.9225 214.571 89.1777 214.817 89.5059C215.063 89.8294 215.246 90.2122 215.364 90.6543C215.483 91.0918 215.542 91.5703 215.542 92.0898V92.6572H210.019V91.625H214.277V91.5293C214.259 91.2012 214.191 90.8822 214.072 90.5723C213.958 90.2624 213.776 90.0072 213.525 89.8066C213.275 89.6061 212.933 89.5059 212.5 89.5059C212.213 89.5059 211.949 89.5674 211.707 89.6904C211.465 89.8089 211.258 89.9867 211.085 90.2236C210.912 90.4606 210.777 90.75 210.682 91.0918C210.586 91.4336 210.538 91.8278 210.538 92.2744V92.5615C210.538 92.9124 210.586 93.2428 210.682 93.5527C210.782 93.8581 210.925 94.127 211.112 94.3594C211.304 94.5918 211.534 94.7741 211.803 94.9062C212.076 95.0384 212.386 95.1045 212.732 95.1045C213.179 95.1045 213.557 95.0133 213.867 94.8311C214.177 94.6488 214.448 94.4049 214.681 94.0996L215.446 94.708C215.287 94.9495 215.084 95.1797 214.838 95.3984C214.592 95.6172 214.289 95.7949 213.929 95.9316C213.573 96.0684 213.152 96.1367 212.664 96.1367ZM221.681 94.5645V85.5H222.952V96H221.79L221.681 94.5645ZM216.704 92.3838V92.2402C216.704 91.6751 216.772 91.1624 216.909 90.7021C217.05 90.2373 217.249 89.8385 217.504 89.5059C217.764 89.1732 218.071 88.918 218.427 88.7402C218.787 88.5579 219.188 88.4668 219.63 88.4668C220.095 88.4668 220.5 88.5488 220.847 88.7129C221.198 88.8724 221.494 89.1071 221.735 89.417C221.981 89.7223 222.175 90.0915 222.316 90.5244C222.458 90.9574 222.556 91.4473 222.61 91.9941V92.623C222.56 93.1654 222.462 93.653 222.316 94.0859C222.175 94.5189 221.981 94.888 221.735 95.1934C221.494 95.4987 221.198 95.7334 220.847 95.8975C220.496 96.057 220.086 96.1367 219.616 96.1367C219.183 96.1367 218.787 96.0433 218.427 95.8564C218.071 95.6696 217.764 95.4076 217.504 95.0703C217.249 94.7331 217.05 94.3366 216.909 93.8809C216.772 93.4206 216.704 92.9215 216.704 92.3838ZM217.976 92.2402V92.3838C217.976 92.7529 218.012 93.0993 218.085 93.4229C218.162 93.7464 218.281 94.0312 218.44 94.2773C218.6 94.5234 218.803 94.7171 219.049 94.8584C219.295 94.9951 219.589 95.0635 219.931 95.0635C220.35 95.0635 220.694 94.9746 220.963 94.7969C221.236 94.6191 221.455 94.3844 221.619 94.0928C221.783 93.8011 221.911 93.4844 222.002 93.1426V91.4951C221.947 91.2445 221.868 91.0029 221.763 90.7705C221.662 90.5335 221.53 90.3239 221.366 90.1416C221.207 89.9548 221.008 89.8066 220.771 89.6973C220.539 89.5879 220.263 89.5332 219.944 89.5332C219.598 89.5332 219.299 89.6061 219.049 89.752C218.803 89.8932 218.6 90.0892 218.44 90.3398C218.281 90.5859 218.162 90.873 218.085 91.2012C218.012 91.5247 217.976 91.8711 217.976 92.2402ZM231.49 88.6035V89.5742H227.491V88.6035H231.49ZM228.845 86.8057H230.109V94.168C230.109 94.4186 230.148 94.6077 230.226 94.7354C230.303 94.863 230.403 94.9473 230.526 94.9883C230.649 95.0293 230.782 95.0498 230.923 95.0498C231.028 95.0498 231.137 95.0407 231.251 95.0225C231.369 94.9997 231.458 94.9814 231.518 94.9678L231.524 96C231.424 96.0319 231.292 96.0615 231.128 96.0889C230.968 96.1208 230.775 96.1367 230.547 96.1367C230.237 96.1367 229.952 96.0752 229.692 95.9521C229.433 95.8291 229.225 95.624 229.07 95.3369C228.92 95.0452 228.845 94.6533 228.845 94.1611V86.8057ZM232.502 92.3838V92.2266C232.502 91.6934 232.579 91.1989 232.734 90.7432C232.889 90.2829 233.113 89.8841 233.404 89.5469C233.696 89.2051 234.049 88.9408 234.464 88.7539C234.879 88.5625 235.343 88.4668 235.858 88.4668C236.378 88.4668 236.845 88.5625 237.26 88.7539C237.679 88.9408 238.035 89.2051 238.326 89.5469C238.622 89.8841 238.848 90.2829 239.003 90.7432C239.158 91.1989 239.235 91.6934 239.235 92.2266V92.3838C239.235 92.917 239.158 93.4115 239.003 93.8672C238.848 94.3229 238.622 94.7217 238.326 95.0635C238.035 95.4007 237.681 95.665 237.267 95.8564C236.856 96.0433 236.392 96.1367 235.872 96.1367C235.353 96.1367 234.885 96.0433 234.471 95.8564C234.056 95.665 233.701 95.4007 233.404 95.0635C233.113 94.7217 232.889 94.3229 232.734 93.8672C232.579 93.4115 232.502 92.917 232.502 92.3838ZM233.767 92.2266V92.3838C233.767 92.7529 233.81 93.1016 233.896 93.4297C233.983 93.7533 234.113 94.0404 234.286 94.291C234.464 94.5417 234.685 94.7399 234.949 94.8857C235.214 95.027 235.521 95.0977 235.872 95.0977C236.218 95.0977 236.521 95.027 236.781 94.8857C237.046 94.7399 237.264 94.5417 237.438 94.291C237.611 94.0404 237.741 93.7533 237.827 93.4297C237.918 93.1016 237.964 92.7529 237.964 92.3838V92.2266C237.964 91.862 237.918 91.5179 237.827 91.1943C237.741 90.8662 237.608 90.5768 237.431 90.3262C237.257 90.071 237.039 89.8704 236.774 89.7246C236.515 89.5788 236.209 89.5059 235.858 89.5059C235.512 89.5059 235.207 89.5788 234.942 89.7246C234.683 89.8704 234.464 90.071 234.286 90.3262C234.113 90.5768 233.983 90.8662 233.896 91.1943C233.81 91.5179 233.767 91.862 233.767 92.2266ZM245.559 85.5V96H244.294V85.5H245.559ZM245.258 92.0215L244.731 92.001C244.736 91.4951 244.811 91.028 244.957 90.5996C245.103 90.1667 245.308 89.7907 245.572 89.4717C245.837 89.1527 246.151 88.9066 246.516 88.7334C246.885 88.5557 247.293 88.4668 247.739 88.4668C248.104 88.4668 248.432 88.5169 248.724 88.6172C249.015 88.7129 249.264 88.8678 249.469 89.082C249.678 89.2962 249.838 89.5742 249.947 89.916C250.057 90.2533 250.111 90.6657 250.111 91.1533V96H248.84V91.1396C248.84 90.7523 248.783 90.4424 248.669 90.21C248.555 89.973 248.389 89.8021 248.17 89.6973C247.951 89.5879 247.682 89.5332 247.363 89.5332C247.049 89.5332 246.762 89.5993 246.502 89.7314C246.247 89.8636 246.026 90.0459 245.839 90.2783C245.657 90.5107 245.513 90.7773 245.408 91.0781C245.308 91.3743 245.258 91.6888 245.258 92.0215ZM255.074 96.1367C254.559 96.1367 254.092 96.0501 253.673 95.877C253.258 95.6992 252.9 95.4508 252.6 95.1318C252.303 94.8128 252.076 94.4346 251.916 93.9971C251.757 93.5596 251.677 93.0811 251.677 92.5615V92.2744C251.677 91.6729 251.766 91.1374 251.943 90.668C252.121 90.194 252.363 89.793 252.668 89.4648C252.973 89.1367 253.32 88.8883 253.707 88.7197C254.094 88.5511 254.495 88.4668 254.91 88.4668C255.439 88.4668 255.895 88.5579 256.277 88.7402C256.665 88.9225 256.981 89.1777 257.228 89.5059C257.474 89.8294 257.656 90.2122 257.774 90.6543C257.893 91.0918 257.952 91.5703 257.952 92.0898V92.6572H252.429V91.625H256.688V91.5293C256.669 91.2012 256.601 90.8822 256.482 90.5723C256.368 90.2624 256.186 90.0072 255.936 89.8066C255.685 89.6061 255.343 89.5059 254.91 89.5059C254.623 89.5059 254.359 89.5674 254.117 89.6904C253.876 89.8089 253.668 89.9867 253.495 90.2236C253.322 90.4606 253.188 90.75 253.092 91.0918C252.996 91.4336 252.948 91.8278 252.948 92.2744V92.5615C252.948 92.9124 252.996 93.2428 253.092 93.5527C253.192 93.8581 253.336 94.127 253.522 94.3594C253.714 94.5918 253.944 94.7741 254.213 94.9062C254.486 95.0384 254.796 95.1045 255.143 95.1045C255.589 95.1045 255.967 95.0133 256.277 94.8311C256.587 94.6488 256.858 94.4049 257.091 94.0996L257.856 94.708C257.697 94.9495 257.494 95.1797 257.248 95.3984C257.002 95.6172 256.699 95.7949 256.339 95.9316C255.983 96.0684 255.562 96.1367 255.074 96.1367ZM260.803 85.5V96H259.531V85.5H260.803ZM264.098 90.0254V98.8438H262.826V88.6035H263.988L264.098 90.0254ZM269.081 92.2402V92.3838C269.081 92.9215 269.017 93.4206 268.89 93.8809C268.762 94.3366 268.575 94.7331 268.329 95.0703C268.088 95.4076 267.789 95.6696 267.434 95.8564C267.078 96.0433 266.67 96.1367 266.21 96.1367C265.741 96.1367 265.326 96.0592 264.966 95.9043C264.606 95.7493 264.3 95.5238 264.05 95.2275C263.799 94.9313 263.599 94.5758 263.448 94.1611C263.302 93.7464 263.202 93.2793 263.147 92.7598V91.9941C263.202 91.4473 263.305 90.9574 263.455 90.5244C263.605 90.0915 263.804 89.7223 264.05 89.417C264.3 89.1071 264.604 88.8724 264.959 88.7129C265.314 88.5488 265.725 88.4668 266.189 88.4668C266.654 88.4668 267.067 88.5579 267.427 88.7402C267.787 88.918 268.09 89.1732 268.336 89.5059C268.582 89.8385 268.767 90.2373 268.89 90.7021C269.017 91.1624 269.081 91.6751 269.081 92.2402ZM267.81 92.3838V92.2402C267.81 91.8711 267.771 91.5247 267.693 91.2012C267.616 90.873 267.495 90.5859 267.331 90.3398C267.172 90.0892 266.966 89.8932 266.716 89.752C266.465 89.6061 266.167 89.5332 265.82 89.5332C265.501 89.5332 265.223 89.5879 264.986 89.6973C264.754 89.8066 264.556 89.9548 264.392 90.1416C264.228 90.3239 264.093 90.5335 263.988 90.7705C263.888 91.0029 263.813 91.2445 263.763 91.4951V93.2656C263.854 93.5846 263.981 93.8854 264.146 94.168C264.31 94.446 264.528 94.6715 264.802 94.8447C265.075 95.0133 265.419 95.0977 265.834 95.0977C266.176 95.0977 266.47 95.027 266.716 94.8857C266.966 94.7399 267.172 94.5417 267.331 94.291C267.495 94.0404 267.616 93.7533 267.693 93.4297C267.771 93.1016 267.81 92.7529 267.81 92.3838ZM276.245 95.2344L278.303 88.6035H279.656L276.689 97.1416C276.621 97.3239 276.53 97.5199 276.416 97.7295C276.307 97.9437 276.165 98.1465 275.992 98.3379C275.819 98.5293 275.609 98.6842 275.363 98.8027C275.122 98.9258 274.832 98.9873 274.495 98.9873C274.395 98.9873 274.267 98.9736 274.112 98.9463C273.957 98.9189 273.848 98.8962 273.784 98.8779L273.777 97.8525C273.814 97.8571 273.871 97.8617 273.948 97.8662C274.03 97.8753 274.087 97.8799 274.119 97.8799C274.406 97.8799 274.65 97.8411 274.851 97.7637C275.051 97.6908 275.22 97.5654 275.356 97.3877C275.498 97.2145 275.618 96.9753 275.719 96.6699L276.245 95.2344ZM274.734 88.6035L276.655 94.3457L276.983 95.6787L276.074 96.1436L273.354 88.6035H274.734ZM280.354 92.3838V92.2266C280.354 91.6934 280.431 91.1989 280.586 90.7432C280.741 90.2829 280.964 89.8841 281.256 89.5469C281.548 89.2051 281.901 88.9408 282.315 88.7539C282.73 88.5625 283.195 88.4668 283.71 88.4668C284.229 88.4668 284.697 88.5625 285.111 88.7539C285.531 88.9408 285.886 89.2051 286.178 89.5469C286.474 89.8841 286.7 90.2829 286.854 90.7432C287.009 91.1989 287.087 91.6934 287.087 92.2266V92.3838C287.087 92.917 287.009 93.4115 286.854 93.8672C286.7 94.3229 286.474 94.7217 286.178 95.0635C285.886 95.4007 285.533 95.665 285.118 95.8564C284.708 96.0433 284.243 96.1367 283.724 96.1367C283.204 96.1367 282.737 96.0433 282.322 95.8564C281.908 95.665 281.552 95.4007 281.256 95.0635C280.964 94.7217 280.741 94.3229 280.586 93.8672C280.431 93.4115 280.354 92.917 280.354 92.3838ZM281.618 92.2266V92.3838C281.618 92.7529 281.661 93.1016 281.748 93.4297C281.835 93.7533 281.965 94.0404 282.138 94.291C282.315 94.5417 282.536 94.7399 282.801 94.8857C283.065 95.027 283.373 95.0977 283.724 95.0977C284.07 95.0977 284.373 95.027 284.633 94.8857C284.897 94.7399 285.116 94.5417 285.289 94.291C285.462 94.0404 285.592 93.7533 285.679 93.4297C285.77 93.1016 285.815 92.7529 285.815 92.3838V92.2266C285.815 91.862 285.77 91.5179 285.679 91.1943C285.592 90.8662 285.46 90.5768 285.282 90.3262C285.109 90.071 284.89 89.8704 284.626 89.7246C284.366 89.5788 284.061 89.5059 283.71 89.5059C283.364 89.5059 283.058 89.5788 282.794 89.7246C282.534 89.8704 282.315 90.071 282.138 90.3262C281.965 90.5768 281.835 90.8662 281.748 91.1943C281.661 91.5179 281.618 91.862 281.618 92.2266ZM293.198 94.291V88.6035H294.47V96H293.26L293.198 94.291ZM293.438 92.7324L293.964 92.7188C293.964 93.2109 293.911 93.6667 293.807 94.0859C293.706 94.5007 293.542 94.8607 293.314 95.166C293.087 95.4714 292.788 95.7106 292.419 95.8838C292.05 96.0524 291.601 96.1367 291.072 96.1367C290.712 96.1367 290.382 96.0843 290.081 95.9795C289.785 95.8747 289.53 95.7129 289.315 95.4941C289.101 95.2754 288.935 94.9906 288.816 94.6396C288.702 94.2887 288.646 93.8672 288.646 93.375V88.6035H289.91V93.3887C289.91 93.7214 289.947 93.9971 290.02 94.2158C290.097 94.43 290.2 94.6009 290.327 94.7285C290.459 94.8516 290.605 94.9382 290.765 94.9883C290.929 95.0384 291.097 95.0635 291.271 95.0635C291.808 95.0635 292.234 94.9609 292.549 94.7559C292.863 94.5462 293.089 94.266 293.226 93.915C293.367 93.5596 293.438 93.1654 293.438 92.7324ZM301.135 89.7656V96H299.87V88.6035H301.101L301.135 89.7656ZM303.445 88.5625L303.438 89.7383C303.334 89.7155 303.233 89.7018 303.138 89.6973C303.047 89.6882 302.942 89.6836 302.823 89.6836C302.532 89.6836 302.274 89.7292 302.051 89.8203C301.827 89.9115 301.638 90.0391 301.483 90.2031C301.328 90.3672 301.205 90.5632 301.114 90.791C301.028 91.0143 300.971 91.2604 300.943 91.5293L300.588 91.7344C300.588 91.2878 300.631 90.8685 300.718 90.4766C300.809 90.0846 300.948 89.7383 301.135 89.4375C301.322 89.1322 301.559 88.8952 301.846 88.7266C302.137 88.5534 302.484 88.4668 302.885 88.4668C302.976 88.4668 303.081 88.4782 303.199 88.501C303.318 88.5192 303.4 88.5397 303.445 88.5625ZM307.547 96.1367C307.032 96.1367 306.565 96.0501 306.146 95.877C305.731 95.6992 305.373 95.4508 305.072 95.1318C304.776 94.8128 304.548 94.4346 304.389 93.9971C304.229 93.5596 304.149 93.0811 304.149 92.5615V92.2744C304.149 91.6729 304.238 91.1374 304.416 90.668C304.594 90.194 304.835 89.793 305.141 89.4648C305.446 89.1367 305.792 88.8883 306.18 88.7197C306.567 88.5511 306.968 88.4668 307.383 88.4668C307.911 88.4668 308.367 88.5579 308.75 88.7402C309.137 88.9225 309.454 89.1777 309.7 89.5059C309.946 89.8294 310.129 90.2122 310.247 90.6543C310.366 91.0918 310.425 91.5703 310.425 92.0898V92.6572H304.901V91.625H309.16V91.5293C309.142 91.2012 309.074 90.8822 308.955 90.5723C308.841 90.2624 308.659 90.0072 308.408 89.8066C308.158 89.6061 307.816 89.5059 307.383 89.5059C307.096 89.5059 306.831 89.5674 306.59 89.6904C306.348 89.8089 306.141 89.9867 305.968 90.2236C305.795 90.4606 305.66 90.75 305.564 91.0918C305.469 91.4336 305.421 91.8278 305.421 92.2744V92.5615C305.421 92.9124 305.469 93.2428 305.564 93.5527C305.665 93.8581 305.808 94.127 305.995 94.3594C306.187 94.5918 306.417 94.7741 306.686 94.9062C306.959 95.0384 307.269 95.1045 307.615 95.1045C308.062 95.1045 308.44 95.0133 308.75 94.8311C309.06 94.6488 309.331 94.4049 309.563 94.0996L310.329 94.708C310.17 94.9495 309.967 95.1797 309.721 95.3984C309.475 95.6172 309.172 95.7949 308.812 95.9316C308.456 96.0684 308.035 96.1367 307.547 96.1367ZM316.263 94.7354V90.9277C316.263 90.6361 316.203 90.3831 316.085 90.1689C315.971 89.9502 315.798 89.7816 315.565 89.6631C315.333 89.5446 315.046 89.4854 314.704 89.4854C314.385 89.4854 314.105 89.54 313.863 89.6494C313.626 89.7588 313.439 89.9023 313.303 90.0801C313.171 90.2578 313.104 90.4492 313.104 90.6543H311.84C311.84 90.39 311.908 90.1279 312.045 89.8682C312.182 89.6084 312.378 89.3737 312.633 89.1641C312.893 88.9499 313.202 88.7812 313.562 88.6582C313.927 88.5306 314.333 88.4668 314.779 88.4668C315.317 88.4668 315.791 88.5579 316.201 88.7402C316.616 88.9225 316.939 89.1982 317.172 89.5674C317.409 89.932 317.527 90.39 317.527 90.9414V94.3867C317.527 94.6328 317.548 94.8949 317.589 95.1729C317.634 95.4508 317.701 95.6901 317.787 95.8906V96H316.468C316.404 95.8542 316.354 95.6605 316.317 95.4189C316.281 95.1729 316.263 94.945 316.263 94.7354ZM316.481 91.5156L316.495 92.4043H315.217C314.857 92.4043 314.535 92.4339 314.253 92.4932C313.97 92.5479 313.733 92.6322 313.542 92.7461C313.351 92.86 313.205 93.0036 313.104 93.1768C313.004 93.3454 312.954 93.5436 312.954 93.7715C312.954 94.0039 313.007 94.2158 313.111 94.4072C313.216 94.5986 313.373 94.7513 313.583 94.8652C313.797 94.9746 314.059 95.0293 314.369 95.0293C314.757 95.0293 315.098 94.9473 315.395 94.7832C315.691 94.6191 315.925 94.4186 316.099 94.1816C316.276 93.9447 316.372 93.7145 316.386 93.4912L316.926 94.0996C316.894 94.291 316.807 94.5029 316.666 94.7354C316.525 94.9678 316.336 95.1911 316.099 95.4053C315.866 95.6149 315.588 95.7904 315.265 95.9316C314.946 96.0684 314.586 96.1367 314.185 96.1367C313.683 96.1367 313.243 96.0387 312.865 95.8428C312.492 95.6468 312.2 95.3848 311.99 95.0566C311.785 94.724 311.683 94.3525 311.683 93.9424C311.683 93.5459 311.76 93.1973 311.915 92.8965C312.07 92.5911 312.293 92.3382 312.585 92.1377C312.877 91.9326 313.228 91.7777 313.638 91.6729C314.048 91.568 314.506 91.5156 315.012 91.5156H316.481ZM322.477 95.0977C322.777 95.0977 323.055 95.0361 323.311 94.9131C323.566 94.79 323.775 94.6214 323.939 94.4072C324.104 94.1885 324.197 93.9401 324.22 93.6621H325.423C325.4 94.0996 325.252 94.5075 324.979 94.8857C324.71 95.2594 324.356 95.5625 323.919 95.7949C323.481 96.0228 323.001 96.1367 322.477 96.1367C321.921 96.1367 321.435 96.0387 321.021 95.8428C320.61 95.6468 320.269 95.3779 319.995 95.0361C319.726 94.6943 319.523 94.3024 319.387 93.8604C319.255 93.4137 319.188 92.9421 319.188 92.4453V92.1582C319.188 91.6615 319.255 91.1921 319.387 90.75C319.523 90.3034 319.726 89.9092 319.995 89.5674C320.269 89.2256 320.61 88.9567 321.021 88.7607C321.435 88.5648 321.921 88.4668 322.477 88.4668C323.055 88.4668 323.561 88.5853 323.994 88.8223C324.427 89.0547 324.767 89.3737 325.013 89.7793C325.263 90.1803 325.4 90.6361 325.423 91.1465H324.22C324.197 90.8411 324.11 90.5654 323.96 90.3193C323.814 90.0732 323.614 89.8773 323.358 89.7314C323.108 89.5811 322.814 89.5059 322.477 89.5059C322.089 89.5059 321.763 89.5833 321.499 89.7383C321.239 89.8887 321.032 90.0938 320.877 90.3535C320.727 90.6087 320.617 90.8936 320.549 91.208C320.485 91.5179 320.453 91.8346 320.453 92.1582V92.4453C320.453 92.7689 320.485 93.0879 320.549 93.4023C320.613 93.7168 320.72 94.0016 320.87 94.2568C321.025 94.512 321.232 94.7171 321.492 94.8721C321.757 95.0225 322.085 95.0977 322.477 95.0977ZM328.109 85.5V96H326.845V85.5H328.109ZM327.809 92.0215L327.282 92.001C327.287 91.4951 327.362 91.028 327.508 90.5996C327.654 90.1667 327.859 89.7907 328.123 89.4717C328.387 89.1527 328.702 88.9066 329.066 88.7334C329.436 88.5557 329.843 88.4668 330.29 88.4668C330.655 88.4668 330.983 88.5169 331.274 88.6172C331.566 88.7129 331.814 88.8678 332.02 89.082C332.229 89.2962 332.389 89.5742 332.498 89.916C332.607 90.2533 332.662 90.6657 332.662 91.1533V96H331.391V91.1396C331.391 90.7523 331.334 90.4424 331.22 90.21C331.106 89.973 330.939 89.8021 330.721 89.6973C330.502 89.5879 330.233 89.5332 329.914 89.5332C329.6 89.5332 329.312 89.5993 329.053 89.7314C328.798 89.8636 328.576 90.0459 328.39 90.2783C328.207 90.5107 328.064 90.7773 327.959 91.0781C327.859 91.3743 327.809 91.6888 327.809 92.0215ZM79.042 117.234L81.0996 110.604H82.4531L79.4863 119.142C79.418 119.324 79.3268 119.52 79.2129 119.729C79.1035 119.944 78.9622 120.146 78.7891 120.338C78.6159 120.529 78.4062 120.684 78.1602 120.803C77.9186 120.926 77.6292 120.987 77.292 120.987C77.1917 120.987 77.0641 120.974 76.9092 120.946C76.7542 120.919 76.6449 120.896 76.5811 120.878L76.5742 119.853C76.6107 119.857 76.6676 119.862 76.7451 119.866C76.8271 119.875 76.8841 119.88 76.916 119.88C77.2031 119.88 77.4469 119.841 77.6475 119.764C77.848 119.691 78.0166 119.565 78.1533 119.388C78.2946 119.215 78.4154 118.975 78.5156 118.67L79.042 117.234ZM77.5312 110.604L79.4521 116.346L79.7803 117.679L78.8711 118.144L76.1504 110.604H77.5312ZM83.1504 114.384V114.227C83.1504 113.693 83.2279 113.199 83.3828 112.743C83.5378 112.283 83.7611 111.884 84.0527 111.547C84.3444 111.205 84.6976 110.941 85.1123 110.754C85.527 110.562 85.9919 110.467 86.5068 110.467C87.0264 110.467 87.4935 110.562 87.9082 110.754C88.3275 110.941 88.6829 111.205 88.9746 111.547C89.2708 111.884 89.4964 112.283 89.6514 112.743C89.8063 113.199 89.8838 113.693 89.8838 114.227V114.384C89.8838 114.917 89.8063 115.411 89.6514 115.867C89.4964 116.323 89.2708 116.722 88.9746 117.063C88.6829 117.401 88.3298 117.665 87.915 117.856C87.5049 118.043 87.04 118.137 86.5205 118.137C86.001 118.137 85.5339 118.043 85.1191 117.856C84.7044 117.665 84.349 117.401 84.0527 117.063C83.7611 116.722 83.5378 116.323 83.3828 115.867C83.2279 115.411 83.1504 114.917 83.1504 114.384ZM84.415 114.227V114.384C84.415 114.753 84.4583 115.102 84.5449 115.43C84.6315 115.753 84.7614 116.04 84.9346 116.291C85.1123 116.542 85.3333 116.74 85.5977 116.886C85.862 117.027 86.1696 117.098 86.5205 117.098C86.8669 117.098 87.1699 117.027 87.4297 116.886C87.694 116.74 87.9128 116.542 88.0859 116.291C88.2591 116.04 88.389 115.753 88.4756 115.43C88.5667 115.102 88.6123 114.753 88.6123 114.384V114.227C88.6123 113.862 88.5667 113.518 88.4756 113.194C88.389 112.866 88.2568 112.577 88.0791 112.326C87.9059 112.071 87.6872 111.87 87.4229 111.725C87.1631 111.579 86.8577 111.506 86.5068 111.506C86.1605 111.506 85.8551 111.579 85.5908 111.725C85.3311 111.87 85.1123 112.071 84.9346 112.326C84.7614 112.577 84.6315 112.866 84.5449 113.194C84.4583 113.518 84.415 113.862 84.415 114.227ZM95.9951 116.291V110.604H97.2666V118H96.0566L95.9951 116.291ZM96.2344 114.732L96.7607 114.719C96.7607 115.211 96.7083 115.667 96.6035 116.086C96.5033 116.501 96.3392 116.861 96.1113 117.166C95.8835 117.471 95.585 117.711 95.2158 117.884C94.8467 118.052 94.3978 118.137 93.8691 118.137C93.5091 118.137 93.1787 118.084 92.8779 117.979C92.5817 117.875 92.3265 117.713 92.1123 117.494C91.8981 117.275 91.7318 116.991 91.6133 116.64C91.4993 116.289 91.4424 115.867 91.4424 115.375V110.604H92.707V115.389C92.707 115.721 92.7435 115.997 92.8164 116.216C92.8939 116.43 92.9964 116.601 93.124 116.729C93.2562 116.852 93.402 116.938 93.5615 116.988C93.7256 117.038 93.8942 117.063 94.0674 117.063C94.6051 117.063 95.0312 116.961 95.3457 116.756C95.6602 116.546 95.8857 116.266 96.0225 115.915C96.1637 115.56 96.2344 115.165 96.2344 114.732ZM100.459 111.766V118H99.1943V110.604H100.425L100.459 111.766ZM102.77 110.562L102.763 111.738C102.658 111.715 102.558 111.702 102.462 111.697C102.371 111.688 102.266 111.684 102.147 111.684C101.856 111.684 101.598 111.729 101.375 111.82C101.152 111.911 100.963 112.039 100.808 112.203C100.653 112.367 100.53 112.563 100.438 112.791C100.352 113.014 100.295 113.26 100.268 113.529L99.9121 113.734C99.9121 113.288 99.9554 112.868 100.042 112.477C100.133 112.085 100.272 111.738 100.459 111.438C100.646 111.132 100.883 110.895 101.17 110.727C101.462 110.553 101.808 110.467 102.209 110.467C102.3 110.467 102.405 110.478 102.523 110.501C102.642 110.519 102.724 110.54 102.77 110.562ZM112.203 110.604H113.352V117.843C113.352 118.494 113.219 119.05 112.955 119.511C112.691 119.971 112.322 120.32 111.848 120.557C111.378 120.798 110.836 120.919 110.221 120.919C109.965 120.919 109.665 120.878 109.318 120.796C108.977 120.718 108.639 120.584 108.307 120.393C107.979 120.206 107.703 119.953 107.479 119.634L108.143 118.882C108.452 119.256 108.776 119.515 109.113 119.661C109.455 119.807 109.792 119.88 110.125 119.88C110.526 119.88 110.872 119.805 111.164 119.654C111.456 119.504 111.681 119.281 111.841 118.984C112.005 118.693 112.087 118.333 112.087 117.904V112.23L112.203 110.604ZM107.11 114.384V114.24C107.11 113.675 107.176 113.162 107.309 112.702C107.445 112.237 107.639 111.839 107.89 111.506C108.145 111.173 108.452 110.918 108.812 110.74C109.173 110.558 109.578 110.467 110.029 110.467C110.494 110.467 110.9 110.549 111.246 110.713C111.597 110.872 111.893 111.107 112.135 111.417C112.381 111.722 112.575 112.091 112.716 112.524C112.857 112.957 112.955 113.447 113.01 113.994V114.623C112.96 115.165 112.862 115.653 112.716 116.086C112.575 116.519 112.381 116.888 112.135 117.193C111.893 117.499 111.597 117.733 111.246 117.897C110.895 118.057 110.485 118.137 110.016 118.137C109.574 118.137 109.173 118.043 108.812 117.856C108.457 117.67 108.152 117.408 107.896 117.07C107.641 116.733 107.445 116.337 107.309 115.881C107.176 115.421 107.11 114.922 107.11 114.384ZM108.375 114.24V114.384C108.375 114.753 108.411 115.099 108.484 115.423C108.562 115.746 108.678 116.031 108.833 116.277C108.993 116.523 109.195 116.717 109.441 116.858C109.688 116.995 109.981 117.063 110.323 117.063C110.743 117.063 111.089 116.975 111.362 116.797C111.636 116.619 111.852 116.384 112.012 116.093C112.176 115.801 112.303 115.484 112.395 115.143V113.495C112.344 113.244 112.267 113.003 112.162 112.771C112.062 112.534 111.93 112.324 111.766 112.142C111.606 111.955 111.408 111.807 111.171 111.697C110.934 111.588 110.656 111.533 110.337 111.533C109.991 111.533 109.692 111.606 109.441 111.752C109.195 111.893 108.993 112.089 108.833 112.34C108.678 112.586 108.562 112.873 108.484 113.201C108.411 113.525 108.375 113.871 108.375 114.24ZM114.938 114.384V114.227C114.938 113.693 115.015 113.199 115.17 112.743C115.325 112.283 115.548 111.884 115.84 111.547C116.132 111.205 116.485 110.941 116.899 110.754C117.314 110.562 117.779 110.467 118.294 110.467C118.813 110.467 119.281 110.562 119.695 110.754C120.115 110.941 120.47 111.205 120.762 111.547C121.058 111.884 121.284 112.283 121.438 112.743C121.593 113.199 121.671 113.693 121.671 114.227V114.384C121.671 114.917 121.593 115.411 121.438 115.867C121.284 116.323 121.058 116.722 120.762 117.063C120.47 117.401 120.117 117.665 119.702 117.856C119.292 118.043 118.827 118.137 118.308 118.137C117.788 118.137 117.321 118.043 116.906 117.856C116.492 117.665 116.136 117.401 115.84 117.063C115.548 116.722 115.325 116.323 115.17 115.867C115.015 115.411 114.938 114.917 114.938 114.384ZM116.202 114.227V114.384C116.202 114.753 116.245 115.102 116.332 115.43C116.419 115.753 116.549 116.04 116.722 116.291C116.899 116.542 117.12 116.74 117.385 116.886C117.649 117.027 117.957 117.098 118.308 117.098C118.654 117.098 118.957 117.027 119.217 116.886C119.481 116.74 119.7 116.542 119.873 116.291C120.046 116.04 120.176 115.753 120.263 115.43C120.354 115.102 120.399 114.753 120.399 114.384V114.227C120.399 113.862 120.354 113.518 120.263 113.194C120.176 112.866 120.044 112.577 119.866 112.326C119.693 112.071 119.474 111.87 119.21 111.725C118.95 111.579 118.645 111.506 118.294 111.506C117.948 111.506 117.642 111.579 117.378 111.725C117.118 111.87 116.899 112.071 116.722 112.326C116.549 112.577 116.419 112.866 116.332 113.194C116.245 113.518 116.202 113.862 116.202 114.227ZM127.618 116.735V112.928C127.618 112.636 127.559 112.383 127.44 112.169C127.326 111.95 127.153 111.782 126.921 111.663C126.688 111.545 126.401 111.485 126.06 111.485C125.741 111.485 125.46 111.54 125.219 111.649C124.982 111.759 124.795 111.902 124.658 112.08C124.526 112.258 124.46 112.449 124.46 112.654H123.195C123.195 112.39 123.264 112.128 123.4 111.868C123.537 111.608 123.733 111.374 123.988 111.164C124.248 110.95 124.558 110.781 124.918 110.658C125.283 110.531 125.688 110.467 126.135 110.467C126.673 110.467 127.146 110.558 127.557 110.74C127.971 110.923 128.295 111.198 128.527 111.567C128.764 111.932 128.883 112.39 128.883 112.941V116.387C128.883 116.633 128.903 116.895 128.944 117.173C128.99 117.451 129.056 117.69 129.143 117.891V118H127.823C127.759 117.854 127.709 117.66 127.673 117.419C127.636 117.173 127.618 116.945 127.618 116.735ZM127.837 113.516L127.851 114.404H126.572C126.212 114.404 125.891 114.434 125.608 114.493C125.326 114.548 125.089 114.632 124.897 114.746C124.706 114.86 124.56 115.004 124.46 115.177C124.36 115.345 124.31 115.544 124.31 115.771C124.31 116.004 124.362 116.216 124.467 116.407C124.572 116.599 124.729 116.751 124.938 116.865C125.153 116.975 125.415 117.029 125.725 117.029C126.112 117.029 126.454 116.947 126.75 116.783C127.046 116.619 127.281 116.419 127.454 116.182C127.632 115.945 127.728 115.715 127.741 115.491L128.281 116.1C128.249 116.291 128.163 116.503 128.021 116.735C127.88 116.968 127.691 117.191 127.454 117.405C127.222 117.615 126.944 117.79 126.62 117.932C126.301 118.068 125.941 118.137 125.54 118.137C125.039 118.137 124.599 118.039 124.221 117.843C123.847 117.647 123.555 117.385 123.346 117.057C123.141 116.724 123.038 116.353 123.038 115.942C123.038 115.546 123.116 115.197 123.271 114.896C123.425 114.591 123.649 114.338 123.94 114.138C124.232 113.933 124.583 113.778 124.993 113.673C125.403 113.568 125.861 113.516 126.367 113.516H127.837ZM132.246 107.5V118H130.975V107.5H132.246ZM138.583 116.038C138.583 115.856 138.542 115.687 138.46 115.532C138.382 115.373 138.221 115.229 137.975 115.102C137.733 114.969 137.368 114.855 136.881 114.76C136.471 114.673 136.099 114.571 135.767 114.452C135.438 114.334 135.158 114.19 134.926 114.021C134.698 113.853 134.522 113.655 134.399 113.427C134.276 113.199 134.215 112.932 134.215 112.627C134.215 112.335 134.279 112.06 134.406 111.8C134.538 111.54 134.723 111.31 134.96 111.109C135.201 110.909 135.491 110.752 135.828 110.638C136.165 110.524 136.541 110.467 136.956 110.467C137.549 110.467 138.054 110.572 138.474 110.781C138.893 110.991 139.214 111.271 139.438 111.622C139.661 111.968 139.772 112.354 139.772 112.777H138.508C138.508 112.572 138.446 112.374 138.323 112.183C138.205 111.987 138.029 111.825 137.797 111.697C137.569 111.57 137.289 111.506 136.956 111.506C136.605 111.506 136.32 111.561 136.102 111.67C135.887 111.775 135.73 111.909 135.63 112.073C135.534 112.237 135.486 112.41 135.486 112.593C135.486 112.729 135.509 112.853 135.555 112.962C135.605 113.067 135.691 113.165 135.814 113.256C135.938 113.342 136.111 113.424 136.334 113.502C136.557 113.579 136.842 113.657 137.188 113.734C137.795 113.871 138.294 114.035 138.686 114.227C139.077 114.418 139.369 114.653 139.561 114.931C139.752 115.209 139.848 115.546 139.848 115.942C139.848 116.266 139.779 116.562 139.643 116.831C139.51 117.1 139.317 117.332 139.062 117.528C138.811 117.72 138.51 117.87 138.159 117.979C137.813 118.084 137.423 118.137 136.99 118.137C136.339 118.137 135.787 118.021 135.336 117.788C134.885 117.556 134.543 117.255 134.311 116.886C134.078 116.517 133.962 116.127 133.962 115.717H135.233C135.252 116.063 135.352 116.339 135.534 116.544C135.716 116.744 135.94 116.888 136.204 116.975C136.468 117.057 136.73 117.098 136.99 117.098C137.337 117.098 137.626 117.052 137.858 116.961C138.095 116.87 138.275 116.744 138.398 116.585C138.521 116.425 138.583 116.243 138.583 116.038ZM149.343 116.735V112.928C149.343 112.636 149.284 112.383 149.165 112.169C149.051 111.95 148.878 111.782 148.646 111.663C148.413 111.545 148.126 111.485 147.784 111.485C147.465 111.485 147.185 111.54 146.943 111.649C146.706 111.759 146.52 111.902 146.383 112.08C146.251 112.258 146.185 112.449 146.185 112.654H144.92C144.92 112.39 144.988 112.128 145.125 111.868C145.262 111.608 145.458 111.374 145.713 111.164C145.973 110.95 146.283 110.781 146.643 110.658C147.007 110.531 147.413 110.467 147.859 110.467C148.397 110.467 148.871 110.558 149.281 110.74C149.696 110.923 150.02 111.198 150.252 111.567C150.489 111.932 150.607 112.39 150.607 112.941V116.387C150.607 116.633 150.628 116.895 150.669 117.173C150.715 117.451 150.781 117.69 150.867 117.891V118H149.548C149.484 117.854 149.434 117.66 149.397 117.419C149.361 117.173 149.343 116.945 149.343 116.735ZM149.562 113.516L149.575 114.404H148.297C147.937 114.404 147.616 114.434 147.333 114.493C147.05 114.548 146.813 114.632 146.622 114.746C146.431 114.86 146.285 115.004 146.185 115.177C146.084 115.345 146.034 115.544 146.034 115.771C146.034 116.004 146.087 116.216 146.191 116.407C146.296 116.599 146.453 116.751 146.663 116.865C146.877 116.975 147.139 117.029 147.449 117.029C147.837 117.029 148.178 116.947 148.475 116.783C148.771 116.619 149.006 116.419 149.179 116.182C149.356 115.945 149.452 115.715 149.466 115.491L150.006 116.1C149.974 116.291 149.887 116.503 149.746 116.735C149.605 116.968 149.416 117.191 149.179 117.405C148.946 117.615 148.668 117.79 148.345 117.932C148.026 118.068 147.666 118.137 147.265 118.137C146.763 118.137 146.324 118.039 145.945 117.843C145.572 117.647 145.28 117.385 145.07 117.057C144.865 116.724 144.763 116.353 144.763 115.942C144.763 115.546 144.84 115.197 144.995 114.896C145.15 114.591 145.373 114.338 145.665 114.138C145.957 113.933 146.308 113.778 146.718 113.673C147.128 113.568 147.586 113.516 148.092 113.516H149.562ZM153.861 112.183V118H152.597V110.604H153.793L153.861 112.183ZM153.561 114.021L153.034 114.001C153.039 113.495 153.114 113.028 153.26 112.6C153.406 112.167 153.611 111.791 153.875 111.472C154.139 111.153 154.454 110.907 154.818 110.733C155.188 110.556 155.595 110.467 156.042 110.467C156.407 110.467 156.735 110.517 157.026 110.617C157.318 110.713 157.566 110.868 157.771 111.082C157.981 111.296 158.141 111.574 158.25 111.916C158.359 112.253 158.414 112.666 158.414 113.153V118H157.143V113.14C157.143 112.752 157.086 112.442 156.972 112.21C156.858 111.973 156.691 111.802 156.473 111.697C156.254 111.588 155.985 111.533 155.666 111.533C155.352 111.533 155.064 111.599 154.805 111.731C154.549 111.864 154.328 112.046 154.142 112.278C153.959 112.511 153.816 112.777 153.711 113.078C153.611 113.374 153.561 113.689 153.561 114.021ZM164.997 116.564V107.5H166.269V118H165.106L164.997 116.564ZM160.021 114.384V114.24C160.021 113.675 160.089 113.162 160.226 112.702C160.367 112.237 160.565 111.839 160.82 111.506C161.08 111.173 161.388 110.918 161.743 110.74C162.103 110.558 162.504 110.467 162.946 110.467C163.411 110.467 163.817 110.549 164.163 110.713C164.514 110.872 164.81 111.107 165.052 111.417C165.298 111.722 165.492 112.091 165.633 112.524C165.774 112.957 165.872 113.447 165.927 113.994V114.623C165.877 115.165 165.779 115.653 165.633 116.086C165.492 116.519 165.298 116.888 165.052 117.193C164.81 117.499 164.514 117.733 164.163 117.897C163.812 118.057 163.402 118.137 162.933 118.137C162.5 118.137 162.103 118.043 161.743 117.856C161.388 117.67 161.08 117.408 160.82 117.07C160.565 116.733 160.367 116.337 160.226 115.881C160.089 115.421 160.021 114.922 160.021 114.384ZM161.292 114.24V114.384C161.292 114.753 161.328 115.099 161.401 115.423C161.479 115.746 161.597 116.031 161.757 116.277C161.916 116.523 162.119 116.717 162.365 116.858C162.611 116.995 162.905 117.063 163.247 117.063C163.666 117.063 164.01 116.975 164.279 116.797C164.553 116.619 164.771 116.384 164.936 116.093C165.1 115.801 165.227 115.484 165.318 115.143V113.495C165.264 113.244 165.184 113.003 165.079 112.771C164.979 112.534 164.847 112.324 164.683 112.142C164.523 111.955 164.325 111.807 164.088 111.697C163.855 111.588 163.58 111.533 163.261 111.533C162.914 111.533 162.616 111.606 162.365 111.752C162.119 111.893 161.916 112.089 161.757 112.34C161.597 112.586 161.479 112.873 161.401 113.201C161.328 113.525 161.292 113.871 161.292 114.24ZM171.703 107.5H172.975V116.564L172.865 118H171.703V107.5ZM177.972 114.24V114.384C177.972 114.922 177.908 115.421 177.78 115.881C177.653 116.337 177.466 116.733 177.22 117.07C176.974 117.408 176.673 117.67 176.317 117.856C175.962 118.043 175.554 118.137 175.094 118.137C174.624 118.137 174.212 118.057 173.856 117.897C173.506 117.733 173.209 117.499 172.968 117.193C172.726 116.888 172.533 116.519 172.387 116.086C172.245 115.653 172.147 115.165 172.093 114.623V113.994C172.147 113.447 172.245 112.957 172.387 112.524C172.533 112.091 172.726 111.722 172.968 111.417C173.209 111.107 173.506 110.872 173.856 110.713C174.207 110.549 174.615 110.467 175.08 110.467C175.545 110.467 175.957 110.558 176.317 110.74C176.677 110.918 176.978 111.173 177.22 111.506C177.466 111.839 177.653 112.237 177.78 112.702C177.908 113.162 177.972 113.675 177.972 114.24ZM176.7 114.384V114.24C176.7 113.871 176.666 113.525 176.598 113.201C176.529 112.873 176.42 112.586 176.27 112.34C176.119 112.089 175.921 111.893 175.675 111.752C175.429 111.606 175.126 111.533 174.766 111.533C174.447 111.533 174.169 111.588 173.932 111.697C173.699 111.807 173.501 111.955 173.337 112.142C173.173 112.324 173.038 112.534 172.934 112.771C172.833 113.003 172.758 113.244 172.708 113.495V115.143C172.781 115.462 172.899 115.769 173.063 116.065C173.232 116.357 173.455 116.596 173.733 116.783C174.016 116.97 174.365 117.063 174.779 117.063C175.121 117.063 175.413 116.995 175.654 116.858C175.9 116.717 176.099 116.523 176.249 116.277C176.404 116.031 176.518 115.746 176.591 115.423C176.664 115.099 176.7 114.753 176.7 114.384ZM182.641 118.137C182.126 118.137 181.659 118.05 181.239 117.877C180.825 117.699 180.467 117.451 180.166 117.132C179.87 116.813 179.642 116.435 179.482 115.997C179.323 115.56 179.243 115.081 179.243 114.562V114.274C179.243 113.673 179.332 113.137 179.51 112.668C179.688 112.194 179.929 111.793 180.234 111.465C180.54 111.137 180.886 110.888 181.273 110.72C181.661 110.551 182.062 110.467 182.477 110.467C183.005 110.467 183.461 110.558 183.844 110.74C184.231 110.923 184.548 111.178 184.794 111.506C185.04 111.829 185.222 112.212 185.341 112.654C185.459 113.092 185.519 113.57 185.519 114.09V114.657H179.995V113.625H184.254V113.529C184.236 113.201 184.167 112.882 184.049 112.572C183.935 112.262 183.753 112.007 183.502 111.807C183.251 111.606 182.91 111.506 182.477 111.506C182.189 111.506 181.925 111.567 181.684 111.69C181.442 111.809 181.235 111.987 181.062 112.224C180.888 112.461 180.754 112.75 180.658 113.092C180.562 113.434 180.515 113.828 180.515 114.274V114.562C180.515 114.912 180.562 115.243 180.658 115.553C180.758 115.858 180.902 116.127 181.089 116.359C181.28 116.592 181.51 116.774 181.779 116.906C182.053 117.038 182.363 117.104 182.709 117.104C183.156 117.104 183.534 117.013 183.844 116.831C184.154 116.649 184.425 116.405 184.657 116.1L185.423 116.708C185.263 116.95 185.061 117.18 184.814 117.398C184.568 117.617 184.265 117.795 183.905 117.932C183.55 118.068 183.128 118.137 182.641 118.137ZM191.726 112.073V118H190.454V110.604H191.657L191.726 112.073ZM191.466 114.021L190.878 114.001C190.882 113.495 190.949 113.028 191.076 112.6C191.204 112.167 191.393 111.791 191.644 111.472C191.894 111.153 192.206 110.907 192.58 110.733C192.954 110.556 193.387 110.467 193.879 110.467C194.225 110.467 194.544 110.517 194.836 110.617C195.128 110.713 195.381 110.866 195.595 111.075C195.809 111.285 195.975 111.554 196.094 111.882C196.212 112.21 196.271 112.606 196.271 113.071V118H195.007V113.133C195.007 112.745 194.941 112.436 194.809 112.203C194.681 111.971 194.499 111.802 194.262 111.697C194.025 111.588 193.747 111.533 193.428 111.533C193.054 111.533 192.742 111.599 192.491 111.731C192.241 111.864 192.04 112.046 191.89 112.278C191.739 112.511 191.63 112.777 191.562 113.078C191.498 113.374 191.466 113.689 191.466 114.021ZM196.258 113.324L195.41 113.584C195.415 113.178 195.481 112.789 195.608 112.415C195.741 112.041 195.93 111.709 196.176 111.417C196.426 111.125 196.734 110.895 197.099 110.727C197.463 110.553 197.88 110.467 198.35 110.467C198.746 110.467 199.097 110.519 199.402 110.624C199.712 110.729 199.972 110.891 200.182 111.109C200.396 111.324 200.558 111.599 200.667 111.937C200.776 112.274 200.831 112.675 200.831 113.14V118H199.56V113.126C199.56 112.711 199.493 112.39 199.361 112.162C199.234 111.93 199.051 111.768 198.814 111.677C198.582 111.581 198.304 111.533 197.98 111.533C197.702 111.533 197.456 111.581 197.242 111.677C197.028 111.772 196.848 111.905 196.702 112.073C196.556 112.237 196.445 112.426 196.367 112.641C196.294 112.855 196.258 113.083 196.258 113.324ZM202.41 114.384V114.227C202.41 113.693 202.488 113.199 202.643 112.743C202.798 112.283 203.021 111.884 203.312 111.547C203.604 111.205 203.957 110.941 204.372 110.754C204.787 110.562 205.252 110.467 205.767 110.467C206.286 110.467 206.753 110.562 207.168 110.754C207.587 110.941 207.943 111.205 208.234 111.547C208.531 111.884 208.756 112.283 208.911 112.743C209.066 113.199 209.144 113.693 209.144 114.227V114.384C209.144 114.917 209.066 115.411 208.911 115.867C208.756 116.323 208.531 116.722 208.234 117.063C207.943 117.401 207.59 117.665 207.175 117.856C206.765 118.043 206.3 118.137 205.78 118.137C205.261 118.137 204.794 118.043 204.379 117.856C203.964 117.665 203.609 117.401 203.312 117.063C203.021 116.722 202.798 116.323 202.643 115.867C202.488 115.411 202.41 114.917 202.41 114.384ZM203.675 114.227V114.384C203.675 114.753 203.718 115.102 203.805 115.43C203.891 115.753 204.021 116.04 204.194 116.291C204.372 116.542 204.593 116.74 204.857 116.886C205.122 117.027 205.429 117.098 205.78 117.098C206.127 117.098 206.43 117.027 206.689 116.886C206.954 116.74 207.173 116.542 207.346 116.291C207.519 116.04 207.649 115.753 207.735 115.43C207.826 115.102 207.872 114.753 207.872 114.384V114.227C207.872 113.862 207.826 113.518 207.735 113.194C207.649 112.866 207.517 112.577 207.339 112.326C207.166 112.071 206.947 111.87 206.683 111.725C206.423 111.579 206.118 111.506 205.767 111.506C205.42 111.506 205.115 111.579 204.851 111.725C204.591 111.87 204.372 112.071 204.194 112.326C204.021 112.577 203.891 112.866 203.805 113.194C203.718 113.518 203.675 113.862 203.675 114.227ZM211.994 111.766V118H210.729V110.604H211.96L211.994 111.766ZM214.305 110.562L214.298 111.738C214.193 111.715 214.093 111.702 213.997 111.697C213.906 111.688 213.801 111.684 213.683 111.684C213.391 111.684 213.133 111.729 212.91 111.82C212.687 111.911 212.498 112.039 212.343 112.203C212.188 112.367 212.065 112.563 211.974 112.791C211.887 113.014 211.83 113.26 211.803 113.529L211.447 113.734C211.447 113.288 211.491 112.868 211.577 112.477C211.668 112.085 211.807 111.738 211.994 111.438C212.181 111.132 212.418 110.895 212.705 110.727C212.997 110.553 213.343 110.467 213.744 110.467C213.835 110.467 213.94 110.478 214.059 110.501C214.177 110.519 214.259 110.54 214.305 110.562ZM218.406 118.137C217.891 118.137 217.424 118.05 217.005 117.877C216.59 117.699 216.232 117.451 215.932 117.132C215.635 116.813 215.408 116.435 215.248 115.997C215.089 115.56 215.009 115.081 215.009 114.562V114.274C215.009 113.673 215.098 113.137 215.275 112.668C215.453 112.194 215.695 111.793 216 111.465C216.305 111.137 216.652 110.888 217.039 110.72C217.426 110.551 217.827 110.467 218.242 110.467C218.771 110.467 219.227 110.558 219.609 110.74C219.997 110.923 220.313 111.178 220.56 111.506C220.806 111.829 220.988 112.212 221.106 112.654C221.225 113.092 221.284 113.57 221.284 114.09V114.657H215.761V113.625H220.02V113.529C220.001 113.201 219.933 112.882 219.814 112.572C219.701 112.262 219.518 112.007 219.268 111.807C219.017 111.606 218.675 111.506 218.242 111.506C217.955 111.506 217.691 111.567 217.449 111.69C217.208 111.809 217 111.987 216.827 112.224C216.654 112.461 216.52 112.75 216.424 113.092C216.328 113.434 216.28 113.828 216.28 114.274V114.562C216.28 114.912 216.328 115.243 216.424 115.553C216.524 115.858 216.668 116.127 216.854 116.359C217.046 116.592 217.276 116.774 217.545 116.906C217.818 117.038 218.128 117.104 218.475 117.104C218.921 117.104 219.299 117.013 219.609 116.831C219.919 116.649 220.19 116.405 220.423 116.1L221.188 116.708C221.029 116.95 220.826 117.18 220.58 117.398C220.334 117.617 220.031 117.795 219.671 117.932C219.315 118.068 218.894 118.137 218.406 118.137ZM229.193 117.098C229.494 117.098 229.772 117.036 230.027 116.913C230.283 116.79 230.492 116.621 230.656 116.407C230.82 116.188 230.914 115.94 230.937 115.662H232.14C232.117 116.1 231.969 116.507 231.695 116.886C231.426 117.259 231.073 117.562 230.636 117.795C230.198 118.023 229.717 118.137 229.193 118.137C228.637 118.137 228.152 118.039 227.737 117.843C227.327 117.647 226.985 117.378 226.712 117.036C226.443 116.694 226.24 116.302 226.104 115.86C225.971 115.414 225.905 114.942 225.905 114.445V114.158C225.905 113.661 225.971 113.192 226.104 112.75C226.24 112.303 226.443 111.909 226.712 111.567C226.985 111.226 227.327 110.957 227.737 110.761C228.152 110.565 228.637 110.467 229.193 110.467C229.772 110.467 230.278 110.585 230.711 110.822C231.144 111.055 231.483 111.374 231.729 111.779C231.98 112.18 232.117 112.636 232.14 113.146H230.937C230.914 112.841 230.827 112.565 230.677 112.319C230.531 112.073 230.33 111.877 230.075 111.731C229.825 111.581 229.531 111.506 229.193 111.506C228.806 111.506 228.48 111.583 228.216 111.738C227.956 111.889 227.749 112.094 227.594 112.354C227.443 112.609 227.334 112.894 227.266 113.208C227.202 113.518 227.17 113.835 227.17 114.158V114.445C227.17 114.769 227.202 115.088 227.266 115.402C227.329 115.717 227.437 116.002 227.587 116.257C227.742 116.512 227.949 116.717 228.209 116.872C228.473 117.022 228.801 117.098 229.193 117.098ZM233.227 114.384V114.227C233.227 113.693 233.304 113.199 233.459 112.743C233.614 112.283 233.837 111.884 234.129 111.547C234.421 111.205 234.774 110.941 235.188 110.754C235.603 110.562 236.068 110.467 236.583 110.467C237.103 110.467 237.57 110.562 237.984 110.754C238.404 110.941 238.759 111.205 239.051 111.547C239.347 111.884 239.573 112.283 239.728 112.743C239.882 113.199 239.96 113.693 239.96 114.227V114.384C239.96 114.917 239.882 115.411 239.728 115.867C239.573 116.323 239.347 116.722 239.051 117.063C238.759 117.401 238.406 117.665 237.991 117.856C237.581 118.043 237.116 118.137 236.597 118.137C236.077 118.137 235.61 118.043 235.195 117.856C234.781 117.665 234.425 117.401 234.129 117.063C233.837 116.722 233.614 116.323 233.459 115.867C233.304 115.411 233.227 114.917 233.227 114.384ZM234.491 114.227V114.384C234.491 114.753 234.535 115.102 234.621 115.43C234.708 115.753 234.838 116.04 235.011 116.291C235.188 116.542 235.41 116.74 235.674 116.886C235.938 117.027 236.246 117.098 236.597 117.098C236.943 117.098 237.246 117.027 237.506 116.886C237.77 116.74 237.989 116.542 238.162 116.291C238.335 116.04 238.465 115.753 238.552 115.43C238.643 115.102 238.688 114.753 238.688 114.384V114.227C238.688 113.862 238.643 113.518 238.552 113.194C238.465 112.866 238.333 112.577 238.155 112.326C237.982 112.071 237.763 111.87 237.499 111.725C237.239 111.579 236.934 111.506 236.583 111.506C236.237 111.506 235.931 111.579 235.667 111.725C235.407 111.87 235.188 112.071 235.011 112.326C234.838 112.577 234.708 112.866 234.621 113.194C234.535 113.518 234.491 113.862 234.491 114.227ZM242.811 112.183V118H241.546V110.604H242.742L242.811 112.183ZM242.51 114.021L241.983 114.001C241.988 113.495 242.063 113.028 242.209 112.6C242.355 112.167 242.56 111.791 242.824 111.472C243.089 111.153 243.403 110.907 243.768 110.733C244.137 110.556 244.545 110.467 244.991 110.467C245.356 110.467 245.684 110.517 245.976 110.617C246.267 110.713 246.516 110.868 246.721 111.082C246.93 111.296 247.09 111.574 247.199 111.916C247.309 112.253 247.363 112.666 247.363 113.153V118H246.092V113.14C246.092 112.752 246.035 112.442 245.921 112.21C245.807 111.973 245.641 111.802 245.422 111.697C245.203 111.588 244.934 111.533 244.615 111.533C244.301 111.533 244.014 111.599 243.754 111.731C243.499 111.864 243.278 112.046 243.091 112.278C242.909 112.511 242.765 112.777 242.66 113.078C242.56 113.374 242.51 113.689 242.51 114.021ZM253.591 116.038C253.591 115.856 253.55 115.687 253.468 115.532C253.39 115.373 253.229 115.229 252.982 115.102C252.741 114.969 252.376 114.855 251.889 114.76C251.479 114.673 251.107 114.571 250.774 114.452C250.446 114.334 250.166 114.19 249.934 114.021C249.706 113.853 249.53 113.655 249.407 113.427C249.284 113.199 249.223 112.932 249.223 112.627C249.223 112.335 249.286 112.06 249.414 111.8C249.546 111.54 249.731 111.31 249.968 111.109C250.209 110.909 250.499 110.752 250.836 110.638C251.173 110.524 251.549 110.467 251.964 110.467C252.556 110.467 253.062 110.572 253.481 110.781C253.901 110.991 254.222 111.271 254.445 111.622C254.669 111.968 254.78 112.354 254.78 112.777H253.516C253.516 112.572 253.454 112.374 253.331 112.183C253.213 111.987 253.037 111.825 252.805 111.697C252.577 111.57 252.297 111.506 251.964 111.506C251.613 111.506 251.328 111.561 251.109 111.67C250.895 111.775 250.738 111.909 250.638 112.073C250.542 112.237 250.494 112.41 250.494 112.593C250.494 112.729 250.517 112.853 250.562 112.962C250.613 113.067 250.699 113.165 250.822 113.256C250.945 113.342 251.118 113.424 251.342 113.502C251.565 113.579 251.85 113.657 252.196 113.734C252.802 113.871 253.301 114.035 253.693 114.227C254.085 114.418 254.377 114.653 254.568 114.931C254.76 115.209 254.855 115.546 254.855 115.942C254.855 116.266 254.787 116.562 254.65 116.831C254.518 117.1 254.325 117.332 254.069 117.528C253.819 117.72 253.518 117.87 253.167 117.979C252.821 118.084 252.431 118.137 251.998 118.137C251.346 118.137 250.795 118.021 250.344 117.788C249.893 117.556 249.551 117.255 249.318 116.886C249.086 116.517 248.97 116.127 248.97 115.717H250.241C250.259 116.063 250.36 116.339 250.542 116.544C250.724 116.744 250.948 116.888 251.212 116.975C251.476 117.057 251.738 117.098 251.998 117.098C252.344 117.098 252.634 117.052 252.866 116.961C253.103 116.87 253.283 116.744 253.406 116.585C253.529 116.425 253.591 116.243 253.591 116.038ZM257.891 110.604V118H256.619V110.604H257.891ZM256.523 108.642C256.523 108.437 256.585 108.263 256.708 108.122C256.836 107.981 257.022 107.91 257.269 107.91C257.51 107.91 257.695 107.981 257.822 108.122C257.954 108.263 258.021 108.437 258.021 108.642C258.021 108.838 257.954 109.006 257.822 109.147C257.695 109.284 257.51 109.353 257.269 109.353C257.022 109.353 256.836 109.284 256.708 109.147C256.585 109.006 256.523 108.838 256.523 108.642ZM264.228 116.038C264.228 115.856 264.187 115.687 264.104 115.532C264.027 115.373 263.865 115.229 263.619 115.102C263.378 114.969 263.013 114.855 262.525 114.76C262.115 114.673 261.744 114.571 261.411 114.452C261.083 114.334 260.803 114.19 260.57 114.021C260.342 113.853 260.167 113.655 260.044 113.427C259.921 113.199 259.859 112.932 259.859 112.627C259.859 112.335 259.923 112.06 260.051 111.8C260.183 111.54 260.368 111.31 260.604 111.109C260.846 110.909 261.135 110.752 261.473 110.638C261.81 110.524 262.186 110.467 262.601 110.467C263.193 110.467 263.699 110.572 264.118 110.781C264.537 110.991 264.859 111.271 265.082 111.622C265.305 111.968 265.417 112.354 265.417 112.777H264.152C264.152 112.572 264.091 112.374 263.968 112.183C263.849 111.987 263.674 111.825 263.441 111.697C263.214 111.57 262.933 111.506 262.601 111.506C262.25 111.506 261.965 111.561 261.746 111.67C261.532 111.775 261.375 111.909 261.274 112.073C261.179 112.237 261.131 112.41 261.131 112.593C261.131 112.729 261.154 112.853 261.199 112.962C261.249 113.067 261.336 113.165 261.459 113.256C261.582 113.342 261.755 113.424 261.979 113.502C262.202 113.579 262.487 113.657 262.833 113.734C263.439 113.871 263.938 114.035 264.33 114.227C264.722 114.418 265.014 114.653 265.205 114.931C265.396 115.209 265.492 115.546 265.492 115.942C265.492 116.266 265.424 116.562 265.287 116.831C265.155 117.1 264.961 117.332 264.706 117.528C264.455 117.72 264.155 117.87 263.804 117.979C263.457 118.084 263.068 118.137 262.635 118.137C261.983 118.137 261.432 118.021 260.98 117.788C260.529 117.556 260.188 117.255 259.955 116.886C259.723 116.517 259.606 116.127 259.606 115.717H260.878C260.896 116.063 260.996 116.339 261.179 116.544C261.361 116.744 261.584 116.888 261.849 116.975C262.113 117.057 262.375 117.098 262.635 117.098C262.981 117.098 263.271 117.052 263.503 116.961C263.74 116.87 263.92 116.744 264.043 116.585C264.166 116.425 264.228 116.243 264.228 116.038ZM270.25 110.604V111.574H266.251V110.604H270.25ZM267.604 108.806H268.869V116.168C268.869 116.419 268.908 116.608 268.985 116.735C269.063 116.863 269.163 116.947 269.286 116.988C269.409 117.029 269.541 117.05 269.683 117.05C269.787 117.05 269.897 117.041 270.011 117.022C270.129 117 270.218 116.981 270.277 116.968L270.284 118C270.184 118.032 270.052 118.062 269.888 118.089C269.728 118.121 269.535 118.137 269.307 118.137C268.997 118.137 268.712 118.075 268.452 117.952C268.192 117.829 267.985 117.624 267.83 117.337C267.68 117.045 267.604 116.653 267.604 116.161V108.806ZM274.803 118.137C274.288 118.137 273.821 118.05 273.401 117.877C272.987 117.699 272.629 117.451 272.328 117.132C272.032 116.813 271.804 116.435 271.645 115.997C271.485 115.56 271.405 115.081 271.405 114.562V114.274C271.405 113.673 271.494 113.137 271.672 112.668C271.85 112.194 272.091 111.793 272.396 111.465C272.702 111.137 273.048 110.888 273.436 110.72C273.823 110.551 274.224 110.467 274.639 110.467C275.167 110.467 275.623 110.558 276.006 110.74C276.393 110.923 276.71 111.178 276.956 111.506C277.202 111.829 277.384 112.212 277.503 112.654C277.621 113.092 277.681 113.57 277.681 114.09V114.657H272.157V113.625H276.416V113.529C276.398 113.201 276.329 112.882 276.211 112.572C276.097 112.262 275.915 112.007 275.664 111.807C275.413 111.606 275.072 111.506 274.639 111.506C274.352 111.506 274.087 111.567 273.846 111.69C273.604 111.809 273.397 111.987 273.224 112.224C273.05 112.461 272.916 112.75 272.82 113.092C272.725 113.434 272.677 113.828 272.677 114.274V114.562C272.677 114.912 272.725 115.243 272.82 115.553C272.921 115.858 273.064 116.127 273.251 116.359C273.442 116.592 273.673 116.774 273.941 116.906C274.215 117.038 274.525 117.104 274.871 117.104C275.318 117.104 275.696 117.013 276.006 116.831C276.316 116.649 276.587 116.405 276.819 116.1L277.585 116.708C277.425 116.95 277.223 117.18 276.977 117.398C276.73 117.617 276.427 117.795 276.067 117.932C275.712 118.068 275.29 118.137 274.803 118.137ZM280.422 112.183V118H279.157V110.604H280.354L280.422 112.183ZM280.121 114.021L279.595 114.001C279.599 113.495 279.674 113.028 279.82 112.6C279.966 112.167 280.171 111.791 280.436 111.472C280.7 111.153 281.014 110.907 281.379 110.733C281.748 110.556 282.156 110.467 282.603 110.467C282.967 110.467 283.295 110.517 283.587 110.617C283.879 110.713 284.127 110.868 284.332 111.082C284.542 111.296 284.701 111.574 284.811 111.916C284.92 112.253 284.975 112.666 284.975 113.153V118H283.703V113.14C283.703 112.752 283.646 112.442 283.532 112.21C283.418 111.973 283.252 111.802 283.033 111.697C282.814 111.588 282.546 111.533 282.227 111.533C281.912 111.533 281.625 111.599 281.365 111.731C281.11 111.864 280.889 112.046 280.702 112.278C280.52 112.511 280.376 112.777 280.271 113.078C280.171 113.374 280.121 113.689 280.121 114.021ZM289.992 110.604V111.574H285.993V110.604H289.992ZM287.347 108.806H288.611V116.168C288.611 116.419 288.65 116.608 288.728 116.735C288.805 116.863 288.905 116.947 289.028 116.988C289.151 117.029 289.284 117.05 289.425 117.05C289.53 117.05 289.639 117.041 289.753 117.022C289.871 117 289.96 116.981 290.02 116.968L290.026 118C289.926 118.032 289.794 118.062 289.63 118.089C289.47 118.121 289.277 118.137 289.049 118.137C288.739 118.137 288.454 118.075 288.194 117.952C287.935 117.829 287.727 117.624 287.572 117.337C287.422 117.045 287.347 116.653 287.347 116.161V108.806ZM291.496 117.33C291.496 117.116 291.562 116.936 291.694 116.79C291.831 116.64 292.027 116.564 292.282 116.564C292.537 116.564 292.731 116.64 292.863 116.79C293 116.936 293.068 117.116 293.068 117.33C293.068 117.54 293 117.717 292.863 117.863C292.731 118.009 292.537 118.082 292.282 118.082C292.027 118.082 291.831 118.009 291.694 117.863C291.562 117.717 291.496 117.54 291.496 117.33Z" fill="#949C9E"/>
<path d="M378 64.5584C378.155 64.5584 378.301 64.5829 378.437 64.6319C378.573 64.6801 378.7 64.7626 378.816 64.8792L384.212 70.2751C384.426 70.489 384.528 70.7565 384.518 71.0777C384.509 71.3982 384.397 71.6653 384.183 71.8792C383.969 72.0931 383.697 72.2001 383.366 72.2001C383.036 72.2001 382.764 72.0931 382.55 71.8792L378 67.3292L373.421 71.9084C373.207 72.1223 372.939 72.2246 372.618 72.2152C372.297 72.2051 372.03 72.0931 371.816 71.8792C371.602 71.6653 371.496 71.3931 371.496 71.0626C371.496 70.732 371.602 70.4598 371.816 70.2459L377.183 64.8792C377.3 64.7626 377.426 64.6801 377.562 64.6319C377.698 64.5829 377.844 64.5584 378 64.5584V64.5584Z" fill="#1DA1F2"/>
</g>
<defs>
<filter id="filter0_dd_1_1601" x="-28" y="0" width="484" height="632" filterUnits="userSpaceOnUse" color-interpolation-filters="sRGB">
<feFlood flood-opacity="0" result="BackgroundImageFix"/>
<feColorMatrix in="SourceAlpha" type="matrix" values="0 0 0 0 0 0 0 0 0 0 0 0 0 0 0 0 0 0 127 0" result="hardAlpha"/>
<feOffset dx="-4" dy="-4"/>
<feGaussianBlur stdDeviation="20"/>
<feComposite in2="hardAlpha" operator="out"/>
<feColorMatrix type="matrix" values="0 0 0 0 0 0 0 0 0 0 0 0 0 0 0 0 0 0 0.05 0"/>
<feBlend mode="normal" in2="BackgroundImageFix" result="effect1_dropShadow_1_1601"/>
<feColorMatrix in="SourceAlpha" type="matrix" values="0 0 0 0 0 0 0 0 0 0 0 0 0 0 0 0 0 0 127 0" result="hardAlpha"/>
<feOffset dx="4" dy="4"/>
<feGaussianBlur stdDeviation="20"/>
<feComposite in2="hardAlpha" operator="out"/>
<feColorMatrix type="matrix" values="0 0 0 0 0 0 0 0 0 0 0 0 0 0 0 0 0 0 0.05 0"/>
<feBlend mode="normal" in2="effect1_dropShadow_1_1601" result="effect2_dropShadow_1_1601"/>
<feBlend mode="normal" in="SourceGraphic" in2="effect2_dropShadow_1_1601" result="shape"/>
</filter>
</defs>
</svg>
