<svg width="114" height="148" viewBox="0 0 114 148" fill="none" xmlns="http://www.w3.org/2000/svg">
<path d="M4.83301 39.0469V49H3.53418V39.0469H4.83301ZM8.03223 39.0469V40.127H0.341797V39.0469H8.03223ZM11.7031 49.1367C11.1882 49.1367 10.721 49.0501 10.3018 48.877C9.88704 48.6992 9.5293 48.4508 9.22852 48.1318C8.93229 47.8128 8.70443 47.4346 8.54492 46.9971C8.38542 46.5596 8.30566 46.0811 8.30566 45.5615V45.2744C8.30566 44.6729 8.39453 44.1374 8.57227 43.668C8.75 43.194 8.99154 42.793 9.29688 42.4648C9.60221 42.1367 9.94857 41.8883 10.3359 41.7197C10.7233 41.5511 11.1243 41.4668 11.5391 41.4668C12.0677 41.4668 12.5234 41.5579 12.9062 41.7402C13.2936 41.9225 13.6104 42.1777 13.8564 42.5059C14.1025 42.8294 14.2848 43.2122 14.4033 43.6543C14.5218 44.0918 14.5811 44.5703 14.5811 45.0898V45.6572H9.05762V44.625H13.3164V44.5293C13.2982 44.2012 13.2298 43.8822 13.1113 43.5723C12.9974 43.2624 12.8151 43.0072 12.5645 42.8066C12.3138 42.6061 11.972 42.5059 11.5391 42.5059C11.252 42.5059 10.9876 42.5674 10.7461 42.6904C10.5046 42.8089 10.2972 42.9867 10.124 43.2236C9.95085 43.4606 9.81641 43.75 9.7207 44.0918C9.625 44.4336 9.57715 44.8278 9.57715 45.2744V45.5615C9.57715 45.9124 9.625 46.2428 9.7207 46.5527C9.82096 46.8581 9.96452 47.127 10.1514 47.3594C10.3428 47.5918 10.5729 47.7741 10.8418 47.9062C11.1152 48.0384 11.4251 48.1045 11.7715 48.1045C12.2181 48.1045 12.5964 48.0133 12.9062 47.8311C13.2161 47.6488 13.4873 47.4049 13.7197 47.0996L14.4854 47.708C14.3258 47.9495 14.123 48.1797 13.877 48.3984C13.6309 48.6172 13.3278 48.7949 12.9678 48.9316C12.6123 49.0684 12.1908 49.1367 11.7031 49.1367ZM17.3223 42.7656V49H16.0576V41.6035H17.2881L17.3223 42.7656ZM19.6328 41.5625L19.626 42.7383C19.5212 42.7155 19.4209 42.7018 19.3252 42.6973C19.234 42.6882 19.1292 42.6836 19.0107 42.6836C18.7191 42.6836 18.4616 42.7292 18.2383 42.8203C18.015 42.9115 17.8258 43.0391 17.6709 43.2031C17.516 43.3672 17.3929 43.5632 17.3018 43.791C17.2152 44.0143 17.1582 44.2604 17.1309 44.5293L16.7754 44.7344C16.7754 44.2878 16.8187 43.8685 16.9053 43.4766C16.9964 43.0846 17.1354 42.7383 17.3223 42.4375C17.5091 42.1322 17.7461 41.8952 18.0332 41.7266C18.3249 41.5534 18.6712 41.4668 19.0723 41.4668C19.1634 41.4668 19.2682 41.4782 19.3867 41.501C19.5052 41.5192 19.5872 41.5397 19.6328 41.5625ZM22.0596 43.0732V49H20.7881V41.6035H21.9912L22.0596 43.0732ZM21.7998 45.0215L21.2119 45.001C21.2165 44.4951 21.2826 44.028 21.4102 43.5996C21.5378 43.1667 21.7269 42.7907 21.9775 42.4717C22.2282 42.1527 22.5404 41.9066 22.9141 41.7334C23.2878 41.5557 23.7207 41.4668 24.2129 41.4668C24.5592 41.4668 24.8783 41.5169 25.1699 41.6172C25.4616 41.7129 25.7145 41.8656 25.9287 42.0752C26.1429 42.2848 26.3092 42.5537 26.4277 42.8818C26.5462 43.21 26.6055 43.6064 26.6055 44.0713V49H25.3408V44.1328C25.3408 43.7454 25.2747 43.4355 25.1426 43.2031C25.015 42.9707 24.8327 42.8021 24.5957 42.6973C24.3587 42.5879 24.0807 42.5332 23.7617 42.5332C23.388 42.5332 23.0758 42.5993 22.8252 42.7314C22.5745 42.8636 22.374 43.0459 22.2236 43.2783C22.0732 43.5107 21.9639 43.7773 21.8955 44.0781C21.8317 44.3743 21.7998 44.6888 21.7998 45.0215ZM26.5918 44.3242L25.7441 44.584C25.7487 44.1784 25.8148 43.7887 25.9424 43.415C26.0745 43.0413 26.2637 42.7087 26.5098 42.417C26.7604 42.1253 27.068 41.8952 27.4326 41.7266C27.7972 41.5534 28.2142 41.4668 28.6836 41.4668C29.0801 41.4668 29.431 41.5192 29.7363 41.624C30.0462 41.7288 30.306 41.8906 30.5156 42.1094C30.7298 42.3236 30.8916 42.5993 31.001 42.9365C31.1104 43.2738 31.165 43.6748 31.165 44.1396V49H29.8936V44.126C29.8936 43.7113 29.8275 43.39 29.6953 43.1621C29.5677 42.9297 29.3854 42.7679 29.1484 42.6768C28.916 42.5811 28.638 42.5332 28.3145 42.5332C28.0365 42.5332 27.7904 42.5811 27.5762 42.6768C27.362 42.7725 27.182 42.9046 27.0361 43.0732C26.8903 43.2373 26.7786 43.4264 26.7012 43.6406C26.6283 43.8548 26.5918 44.0827 26.5918 44.3242ZM37.3857 47.0381C37.3857 46.8558 37.3447 46.6872 37.2627 46.5322C37.1852 46.3727 37.0234 46.2292 36.7773 46.1016C36.5358 45.9694 36.1712 45.8555 35.6836 45.7598C35.2734 45.6732 34.902 45.5706 34.5693 45.4521C34.2412 45.3337 33.9609 45.1901 33.7285 45.0215C33.5007 44.8529 33.3252 44.6546 33.2021 44.4268C33.0791 44.1989 33.0176 43.9323 33.0176 43.627C33.0176 43.3353 33.0814 43.0596 33.209 42.7998C33.3411 42.54 33.5257 42.3099 33.7627 42.1094C34.0042 41.9089 34.2936 41.7516 34.6309 41.6377C34.9681 41.5238 35.3441 41.4668 35.7588 41.4668C36.3512 41.4668 36.8571 41.5716 37.2764 41.7812C37.6956 41.9909 38.0169 42.2712 38.2402 42.6221C38.4635 42.9684 38.5752 43.3535 38.5752 43.7773H37.3105C37.3105 43.5723 37.249 43.374 37.126 43.1826C37.0075 42.9867 36.832 42.8249 36.5996 42.6973C36.3717 42.5697 36.0915 42.5059 35.7588 42.5059C35.4079 42.5059 35.123 42.5605 34.9043 42.6699C34.6901 42.7747 34.5329 42.9092 34.4326 43.0732C34.3369 43.2373 34.2891 43.4105 34.2891 43.5928C34.2891 43.7295 34.3118 43.8525 34.3574 43.9619C34.4076 44.0667 34.4941 44.1647 34.6172 44.2559C34.7402 44.3424 34.9134 44.4245 35.1367 44.502C35.36 44.5794 35.6449 44.6569 35.9912 44.7344C36.5973 44.8711 37.0964 45.0352 37.4883 45.2266C37.8802 45.418 38.1719 45.6527 38.3633 45.9307C38.5547 46.2087 38.6504 46.5459 38.6504 46.9424C38.6504 47.266 38.582 47.5622 38.4453 47.8311C38.3132 48.0999 38.1195 48.3324 37.8643 48.5283C37.6136 48.7197 37.3128 48.8701 36.9619 48.9795C36.6156 49.0843 36.2259 49.1367 35.793 49.1367C35.1413 49.1367 34.5898 49.0205 34.1387 48.7881C33.6875 48.5557 33.3457 48.2549 33.1133 47.8857C32.8809 47.5166 32.7646 47.127 32.7646 46.7168H34.0361C34.0544 47.0632 34.1546 47.3389 34.3369 47.5439C34.5192 47.7445 34.7425 47.888 35.0068 47.9746C35.2712 48.0566 35.5332 48.0977 35.793 48.0977C36.1393 48.0977 36.4287 48.0521 36.6611 47.9609C36.8981 47.8698 37.0781 47.7445 37.2012 47.585C37.3242 47.4255 37.3857 47.2432 37.3857 47.0381ZM45.623 43.4766L47.1133 42.417C47.4004 42.221 47.6214 42.0251 47.7764 41.8291C47.9359 41.6286 48.0156 41.3551 48.0156 41.0088C48.0156 40.7399 47.9108 40.4961 47.7012 40.2773C47.4915 40.054 47.1953 39.9424 46.8125 39.9424C46.5482 39.9424 46.3249 40.0039 46.1426 40.127C45.9603 40.25 45.8236 40.4141 45.7324 40.6191C45.6413 40.8197 45.5957 41.0407 45.5957 41.2822C45.5957 41.4873 45.6458 41.6992 45.7461 41.918C45.8464 42.1367 45.9854 42.3646 46.1631 42.6016C46.3408 42.8385 46.5436 43.0892 46.7715 43.3535L51.4814 49H49.9639L46.1016 44.3789C45.7598 43.9779 45.4544 43.611 45.1855 43.2783C44.9167 42.9411 44.7048 42.6152 44.5498 42.3008C44.3994 41.9863 44.3242 41.6605 44.3242 41.3232C44.3242 40.8037 44.4268 40.3662 44.6318 40.0107C44.8415 39.6507 45.1331 39.3773 45.5068 39.1904C45.8805 39.0036 46.318 38.9102 46.8193 38.9102C47.307 38.9102 47.7262 39.0081 48.0771 39.2041C48.4326 39.3955 48.7061 39.6507 48.8975 39.9697C49.0889 40.2842 49.1846 40.6305 49.1846 41.0088C49.1846 41.3278 49.1276 41.6149 49.0137 41.8701C48.8997 42.1208 48.7402 42.3509 48.5352 42.5605C48.3346 42.7702 48.0999 42.9753 47.8311 43.1758L45.8555 44.6455C45.5273 44.887 45.2881 45.1172 45.1377 45.3359C44.9873 45.5547 44.8893 45.7484 44.8438 45.917C44.8027 46.0856 44.7822 46.2201 44.7822 46.3203C44.7822 46.6439 44.8529 46.9401 44.9941 47.209C45.1354 47.4779 45.3496 47.6943 45.6367 47.8584C45.9284 48.0179 46.293 48.0977 46.7305 48.0977C47.1133 48.0977 47.4847 48.0111 47.8447 47.8379C48.2093 47.6602 48.5352 47.4095 48.8223 47.0859C49.1094 46.7578 49.3372 46.3682 49.5059 45.917C49.679 45.4613 49.7656 44.9577 49.7656 44.4062H50.9004C50.9004 44.8574 50.8571 45.2835 50.7705 45.6846C50.6839 46.0856 50.5495 46.4593 50.3672 46.8057C50.1895 47.1475 49.9616 47.4596 49.6836 47.7422C49.6426 47.7832 49.6107 47.8311 49.5879 47.8857C49.5651 47.9404 49.5332 47.9883 49.4922 48.0293C49.1504 48.3984 48.7288 48.6764 48.2275 48.8633C47.7308 49.0456 47.2318 49.1367 46.7305 49.1367C46.0697 49.1367 45.4977 49.016 45.0146 48.7744C44.5361 48.5329 44.167 48.2002 43.9072 47.7764C43.6475 47.3525 43.5176 46.8672 43.5176 46.3203C43.5176 45.901 43.6064 45.5319 43.7842 45.2129C43.9665 44.8939 44.2148 44.5954 44.5293 44.3174C44.8483 44.0394 45.2129 43.7591 45.623 43.4766ZM58.9258 48.0977C59.2266 48.0977 59.5046 48.0361 59.7598 47.9131C60.015 47.79 60.2246 47.6214 60.3887 47.4072C60.5527 47.1885 60.6462 46.9401 60.6689 46.6621H61.8721C61.8493 47.0996 61.7012 47.5075 61.4277 47.8857C61.1589 48.2594 60.8057 48.5625 60.3682 48.7949C59.9307 49.0228 59.4499 49.1367 58.9258 49.1367C58.3698 49.1367 57.8844 49.0387 57.4697 48.8428C57.0596 48.6468 56.7178 48.3779 56.4443 48.0361C56.1755 47.6943 55.9727 47.3024 55.8359 46.8604C55.7038 46.4137 55.6377 45.9421 55.6377 45.4453V45.1582C55.6377 44.6615 55.7038 44.1921 55.8359 43.75C55.9727 43.3034 56.1755 42.9092 56.4443 42.5674C56.7178 42.2256 57.0596 41.9567 57.4697 41.7607C57.8844 41.5648 58.3698 41.4668 58.9258 41.4668C59.5046 41.4668 60.0104 41.5853 60.4434 41.8223C60.8763 42.0547 61.2158 42.3737 61.4619 42.7793C61.7126 43.1803 61.8493 43.6361 61.8721 44.1465H60.6689C60.6462 43.8411 60.5596 43.5654 60.4092 43.3193C60.2633 43.0732 60.0628 42.8773 59.8076 42.7314C59.557 42.5811 59.263 42.5059 58.9258 42.5059C58.5384 42.5059 58.2126 42.5833 57.9482 42.7383C57.6885 42.8887 57.4811 43.0938 57.3262 43.3535C57.1758 43.6087 57.0664 43.8936 56.998 44.208C56.9342 44.5179 56.9023 44.8346 56.9023 45.1582V45.4453C56.9023 45.7689 56.9342 46.0879 56.998 46.4023C57.0618 46.7168 57.1689 47.0016 57.3193 47.2568C57.4743 47.512 57.6816 47.7171 57.9414 47.8721C58.2057 48.0225 58.5339 48.0977 58.9258 48.0977ZM62.959 45.3838V45.2266C62.959 44.6934 63.0365 44.1989 63.1914 43.7432C63.3464 43.2829 63.5697 42.8841 63.8613 42.5469C64.153 42.2051 64.5062 41.9408 64.9209 41.7539C65.3356 41.5625 65.8005 41.4668 66.3154 41.4668C66.835 41.4668 67.3021 41.5625 67.7168 41.7539C68.1361 41.9408 68.4915 42.2051 68.7832 42.5469C69.0794 42.8841 69.305 43.2829 69.46 43.7432C69.6149 44.1989 69.6924 44.6934 69.6924 45.2266V45.3838C69.6924 45.917 69.6149 46.4115 69.46 46.8672C69.305 47.3229 69.0794 47.7217 68.7832 48.0635C68.4915 48.4007 68.1383 48.665 67.7236 48.8564C67.3135 49.0433 66.8486 49.1367 66.3291 49.1367C65.8096 49.1367 65.3424 49.0433 64.9277 48.8564C64.513 48.665 64.1576 48.4007 63.8613 48.0635C63.5697 47.7217 63.3464 47.3229 63.1914 46.8672C63.0365 46.4115 62.959 45.917 62.959 45.3838ZM64.2236 45.2266V45.3838C64.2236 45.7529 64.2669 46.1016 64.3535 46.4297C64.4401 46.7533 64.57 47.0404 64.7432 47.291C64.9209 47.5417 65.1419 47.7399 65.4062 47.8857C65.6706 48.027 65.9782 48.0977 66.3291 48.0977C66.6755 48.0977 66.9785 48.027 67.2383 47.8857C67.5026 47.7399 67.7214 47.5417 67.8945 47.291C68.0677 47.0404 68.1976 46.7533 68.2842 46.4297C68.3753 46.1016 68.4209 45.7529 68.4209 45.3838V45.2266C68.4209 44.862 68.3753 44.5179 68.2842 44.1943C68.1976 43.8662 68.0654 43.5768 67.8877 43.3262C67.7145 43.071 67.4958 42.8704 67.2314 42.7246C66.9717 42.5788 66.6663 42.5059 66.3154 42.5059C65.9691 42.5059 65.6637 42.5788 65.3994 42.7246C65.1396 42.8704 64.9209 43.071 64.7432 43.3262C64.57 43.5768 64.4401 43.8662 64.3535 44.1943C64.2669 44.5179 64.2236 44.862 64.2236 45.2266ZM72.543 43.1826V49H71.2783V41.6035H72.4746L72.543 43.1826ZM72.2422 45.0215L71.7158 45.001C71.7204 44.4951 71.7956 44.028 71.9414 43.5996C72.0872 43.1667 72.2923 42.7907 72.5566 42.4717C72.821 42.1527 73.1354 41.9066 73.5 41.7334C73.8691 41.5557 74.277 41.4668 74.7236 41.4668C75.0882 41.4668 75.4163 41.5169 75.708 41.6172C75.9997 41.7129 76.248 41.8678 76.4531 42.082C76.6628 42.2962 76.8223 42.5742 76.9316 42.916C77.041 43.2533 77.0957 43.6657 77.0957 44.1533V49H75.8242V44.1396C75.8242 43.7523 75.7673 43.4424 75.6533 43.21C75.5394 42.973 75.373 42.8021 75.1543 42.6973C74.9355 42.5879 74.6667 42.5332 74.3477 42.5332C74.0332 42.5332 73.7461 42.5993 73.4863 42.7314C73.2311 42.8636 73.0101 43.0459 72.8232 43.2783C72.641 43.5107 72.4974 43.7773 72.3926 44.0781C72.2923 44.3743 72.2422 44.6888 72.2422 45.0215ZM83.6787 47.5645V38.5H84.9502V49H83.7881L83.6787 47.5645ZM78.7021 45.3838V45.2402C78.7021 44.6751 78.7705 44.1624 78.9072 43.7021C79.0485 43.2373 79.2467 42.8385 79.502 42.5059C79.7617 42.1732 80.0693 41.918 80.4248 41.7402C80.7848 41.5579 81.1859 41.4668 81.6279 41.4668C82.0928 41.4668 82.4984 41.5488 82.8447 41.7129C83.1956 41.8724 83.4919 42.1071 83.7334 42.417C83.9795 42.7223 84.1732 43.0915 84.3145 43.5244C84.4557 43.9574 84.5537 44.4473 84.6084 44.9941V45.623C84.5583 46.1654 84.4603 46.653 84.3145 47.0859C84.1732 47.5189 83.9795 47.888 83.7334 48.1934C83.4919 48.4987 83.1956 48.7334 82.8447 48.8975C82.4938 49.057 82.0837 49.1367 81.6143 49.1367C81.1813 49.1367 80.7848 49.0433 80.4248 48.8564C80.0693 48.6696 79.7617 48.4076 79.502 48.0703C79.2467 47.7331 79.0485 47.3366 78.9072 46.8809C78.7705 46.4206 78.7021 45.9215 78.7021 45.3838ZM79.9736 45.2402V45.3838C79.9736 45.7529 80.0101 46.0993 80.083 46.4229C80.1605 46.7464 80.279 47.0312 80.4385 47.2773C80.598 47.5234 80.8008 47.7171 81.0469 47.8584C81.293 47.9951 81.5869 48.0635 81.9287 48.0635C82.348 48.0635 82.6921 47.9746 82.9609 47.7969C83.2344 47.6191 83.4531 47.3844 83.6172 47.0928C83.7812 46.8011 83.9089 46.4844 84 46.1426V44.4951C83.9453 44.2445 83.8656 44.0029 83.7607 43.7705C83.6605 43.5335 83.5283 43.3239 83.3643 43.1416C83.2048 42.9548 83.0065 42.8066 82.7695 42.6973C82.5371 42.5879 82.2614 42.5332 81.9424 42.5332C81.596 42.5332 81.2975 42.6061 81.0469 42.752C80.8008 42.8932 80.598 43.0892 80.4385 43.3398C80.279 43.5859 80.1605 43.873 80.083 44.2012C80.0101 44.5247 79.9736 44.8711 79.9736 45.2402ZM88.293 41.6035V49H87.0215V41.6035H88.293ZM86.9258 39.6416C86.9258 39.4365 86.9873 39.2633 87.1104 39.1221C87.238 38.9808 87.4248 38.9102 87.6709 38.9102C87.9124 38.9102 88.097 38.9808 88.2246 39.1221C88.3568 39.2633 88.4229 39.4365 88.4229 39.6416C88.4229 39.8376 88.3568 40.0062 88.2246 40.1475C88.097 40.2842 87.9124 40.3525 87.6709 40.3525C87.4248 40.3525 87.238 40.2842 87.1104 40.1475C86.9873 40.0062 86.9258 39.8376 86.9258 39.6416ZM93.4199 41.6035V42.5742H89.4209V41.6035H93.4199ZM90.7744 39.8057H92.0391V47.168C92.0391 47.4186 92.0778 47.6077 92.1553 47.7354C92.2327 47.863 92.333 47.9473 92.4561 47.9883C92.5791 48.0293 92.7113 48.0498 92.8525 48.0498C92.9574 48.0498 93.0667 48.0407 93.1807 48.0225C93.2992 47.9997 93.388 47.9814 93.4473 47.9678L93.4541 49C93.3538 49.0319 93.2217 49.0615 93.0576 49.0889C92.8981 49.1208 92.7044 49.1367 92.4766 49.1367C92.1667 49.1367 91.8818 49.0752 91.6221 48.9521C91.3623 48.8291 91.1549 48.624 91 48.3369C90.8496 48.0452 90.7744 47.6533 90.7744 47.1611V39.8057ZM96.2773 41.6035V49H95.0059V41.6035H96.2773ZM94.9102 39.6416C94.9102 39.4365 94.9717 39.2633 95.0947 39.1221C95.2223 38.9808 95.4092 38.9102 95.6553 38.9102C95.8968 38.9102 96.0814 38.9808 96.209 39.1221C96.3411 39.2633 96.4072 39.4365 96.4072 39.6416C96.4072 39.8376 96.3411 40.0062 96.209 40.1475C96.0814 40.2842 95.8968 40.3525 95.6553 40.3525C95.4092 40.3525 95.2223 40.2842 95.0947 40.1475C94.9717 40.0062 94.9102 39.8376 94.9102 39.6416ZM97.9727 45.3838V45.2266C97.9727 44.6934 98.0501 44.1989 98.2051 43.7432C98.36 43.2829 98.5833 42.8841 98.875 42.5469C99.1667 42.2051 99.5199 41.9408 99.9346 41.7539C100.349 41.5625 100.814 41.4668 101.329 41.4668C101.849 41.4668 102.316 41.5625 102.73 41.7539C103.15 41.9408 103.505 42.2051 103.797 42.5469C104.093 42.8841 104.319 43.2829 104.474 43.7432C104.629 44.1989 104.706 44.6934 104.706 45.2266V45.3838C104.706 45.917 104.629 46.4115 104.474 46.8672C104.319 47.3229 104.093 47.7217 103.797 48.0635C103.505 48.4007 103.152 48.665 102.737 48.8564C102.327 49.0433 101.862 49.1367 101.343 49.1367C100.823 49.1367 100.356 49.0433 99.9414 48.8564C99.5267 48.665 99.1712 48.4007 98.875 48.0635C98.5833 47.7217 98.36 47.3229 98.2051 46.8672C98.0501 46.4115 97.9727 45.917 97.9727 45.3838ZM99.2373 45.2266V45.3838C99.2373 45.7529 99.2806 46.1016 99.3672 46.4297C99.4538 46.7533 99.5837 47.0404 99.7568 47.291C99.9346 47.5417 100.156 47.7399 100.42 47.8857C100.684 48.027 100.992 48.0977 101.343 48.0977C101.689 48.0977 101.992 48.027 102.252 47.8857C102.516 47.7399 102.735 47.5417 102.908 47.291C103.081 47.0404 103.211 46.7533 103.298 46.4297C103.389 46.1016 103.435 45.7529 103.435 45.3838V45.2266C103.435 44.862 103.389 44.5179 103.298 44.1943C103.211 43.8662 103.079 43.5768 102.901 43.3262C102.728 43.071 102.509 42.8704 102.245 42.7246C101.985 42.5788 101.68 42.5059 101.329 42.5059C100.983 42.5059 100.677 42.5788 100.413 42.7246C100.153 42.8704 99.9346 43.071 99.7568 43.3262C99.5837 43.5768 99.4538 43.8662 99.3672 44.1943C99.2806 44.5179 99.2373 44.862 99.2373 45.2266ZM107.557 43.1826V49H106.292V41.6035H107.488L107.557 43.1826ZM107.256 45.0215L106.729 45.001C106.734 44.4951 106.809 44.028 106.955 43.5996C107.101 43.1667 107.306 42.7907 107.57 42.4717C107.835 42.1527 108.149 41.9066 108.514 41.7334C108.883 41.5557 109.291 41.4668 109.737 41.4668C110.102 41.4668 110.43 41.5169 110.722 41.6172C111.013 41.7129 111.262 41.8678 111.467 42.082C111.676 42.2962 111.836 42.5742 111.945 42.916C112.055 43.2533 112.109 43.6657 112.109 44.1533V49H110.838V44.1396C110.838 43.7523 110.781 43.4424 110.667 43.21C110.553 42.973 110.387 42.8021 110.168 42.6973C109.949 42.5879 109.68 42.5332 109.361 42.5332C109.047 42.5332 108.76 42.5993 108.5 42.7314C108.245 42.8636 108.024 43.0459 107.837 43.2783C107.655 43.5107 107.511 43.7773 107.406 44.0781C107.306 44.3743 107.256 44.6888 107.256 45.0215Z" fill="white"/>
<path d="M7.19141 111.927V113H2.21484V111.927H7.19141ZM2.47461 103.047V113H1.15527V103.047H2.47461ZM9.88477 105.604V113H8.61328V105.604H9.88477ZM8.51758 103.642C8.51758 103.437 8.5791 103.263 8.70215 103.122C8.82975 102.981 9.0166 102.91 9.2627 102.91C9.50423 102.91 9.6888 102.981 9.81641 103.122C9.94857 103.263 10.0146 103.437 10.0146 103.642C10.0146 103.838 9.94857 104.006 9.81641 104.147C9.6888 104.284 9.50423 104.353 9.2627 104.353C9.0166 104.353 8.82975 104.284 8.70215 104.147C8.5791 104.006 8.51758 103.838 8.51758 103.642ZM14.875 112.098C15.1758 112.098 15.4538 112.036 15.709 111.913C15.9642 111.79 16.1738 111.621 16.3379 111.407C16.502 111.188 16.5954 110.94 16.6182 110.662H17.8213C17.7985 111.1 17.6504 111.507 17.377 111.886C17.1081 112.259 16.7549 112.562 16.3174 112.795C15.8799 113.023 15.3991 113.137 14.875 113.137C14.319 113.137 13.8337 113.039 13.4189 112.843C13.0088 112.647 12.667 112.378 12.3936 112.036C12.1247 111.694 11.9219 111.302 11.7852 110.86C11.653 110.414 11.5869 109.942 11.5869 109.445V109.158C11.5869 108.661 11.653 108.192 11.7852 107.75C11.9219 107.303 12.1247 106.909 12.3936 106.567C12.667 106.226 13.0088 105.957 13.4189 105.761C13.8337 105.565 14.319 105.467 14.875 105.467C15.4538 105.467 15.9596 105.585 16.3926 105.822C16.8255 106.055 17.165 106.374 17.4111 106.779C17.6618 107.18 17.7985 107.636 17.8213 108.146H16.6182C16.5954 107.841 16.5088 107.565 16.3584 107.319C16.2126 107.073 16.012 106.877 15.7568 106.731C15.5062 106.581 15.2122 106.506 14.875 106.506C14.4876 106.506 14.1618 106.583 13.8975 106.738C13.6377 106.889 13.4303 107.094 13.2754 107.354C13.125 107.609 13.0156 107.894 12.9473 108.208C12.8835 108.518 12.8516 108.835 12.8516 109.158V109.445C12.8516 109.769 12.8835 110.088 12.9473 110.402C13.0111 110.717 13.1182 111.002 13.2686 111.257C13.4235 111.512 13.6309 111.717 13.8906 111.872C14.1549 112.022 14.4831 112.098 14.875 112.098ZM22.3125 113.137C21.7975 113.137 21.3304 113.05 20.9111 112.877C20.4964 112.699 20.1387 112.451 19.8379 112.132C19.5417 111.813 19.3138 111.435 19.1543 110.997C18.9948 110.56 18.915 110.081 18.915 109.562V109.274C18.915 108.673 19.0039 108.137 19.1816 107.668C19.3594 107.194 19.6009 106.793 19.9062 106.465C20.2116 106.137 20.5579 105.888 20.9453 105.72C21.3327 105.551 21.7337 105.467 22.1484 105.467C22.6771 105.467 23.1328 105.558 23.5156 105.74C23.903 105.923 24.2197 106.178 24.4658 106.506C24.7119 106.829 24.8942 107.212 25.0127 107.654C25.1312 108.092 25.1904 108.57 25.1904 109.09V109.657H19.667V108.625H23.9258V108.529C23.9076 108.201 23.8392 107.882 23.7207 107.572C23.6068 107.262 23.4245 107.007 23.1738 106.807C22.9232 106.606 22.5814 106.506 22.1484 106.506C21.8613 106.506 21.597 106.567 21.3555 106.69C21.1139 106.809 20.9066 106.987 20.7334 107.224C20.5602 107.461 20.4258 107.75 20.3301 108.092C20.2344 108.434 20.1865 108.828 20.1865 109.274V109.562C20.1865 109.912 20.2344 110.243 20.3301 110.553C20.4303 110.858 20.5739 111.127 20.7607 111.359C20.9521 111.592 21.1823 111.774 21.4512 111.906C21.7246 112.038 22.0345 112.104 22.3809 112.104C22.8275 112.104 23.2057 112.013 23.5156 111.831C23.8255 111.649 24.0967 111.405 24.3291 111.1L25.0947 111.708C24.9352 111.95 24.7324 112.18 24.4863 112.398C24.2402 112.617 23.9372 112.795 23.5771 112.932C23.2217 113.068 22.8001 113.137 22.3125 113.137ZM27.9316 107.183V113H26.667V105.604H27.8633L27.9316 107.183ZM27.6309 109.021L27.1045 109.001C27.109 108.495 27.1842 108.028 27.3301 107.6C27.4759 107.167 27.681 106.791 27.9453 106.472C28.2096 106.153 28.5241 105.907 28.8887 105.733C29.2578 105.556 29.6657 105.467 30.1123 105.467C30.4769 105.467 30.805 105.517 31.0967 105.617C31.3883 105.713 31.6367 105.868 31.8418 106.082C32.0514 106.296 32.2109 106.574 32.3203 106.916C32.4297 107.253 32.4844 107.666 32.4844 108.153V113H31.2129V108.14C31.2129 107.752 31.1559 107.442 31.042 107.21C30.9281 106.973 30.7617 106.802 30.543 106.697C30.3242 106.588 30.0553 106.533 29.7363 106.533C29.4219 106.533 29.1348 106.599 28.875 106.731C28.6198 106.864 28.3988 107.046 28.2119 107.278C28.0296 107.511 27.8861 107.777 27.7812 108.078C27.681 108.374 27.6309 108.689 27.6309 109.021ZM38.7119 111.038C38.7119 110.856 38.6709 110.687 38.5889 110.532C38.5114 110.373 38.3496 110.229 38.1035 110.102C37.862 109.969 37.4974 109.855 37.0098 109.76C36.5996 109.673 36.2282 109.571 35.8955 109.452C35.5674 109.334 35.2871 109.19 35.0547 109.021C34.8268 108.853 34.6514 108.655 34.5283 108.427C34.4053 108.199 34.3438 107.932 34.3438 107.627C34.3438 107.335 34.4076 107.06 34.5352 106.8C34.6673 106.54 34.8519 106.31 35.0889 106.109C35.3304 105.909 35.6198 105.752 35.957 105.638C36.2943 105.524 36.6702 105.467 37.085 105.467C37.6774 105.467 38.1833 105.572 38.6025 105.781C39.0218 105.991 39.3431 106.271 39.5664 106.622C39.7897 106.968 39.9014 107.354 39.9014 107.777H38.6367C38.6367 107.572 38.5752 107.374 38.4521 107.183C38.3337 106.987 38.1582 106.825 37.9258 106.697C37.6979 106.57 37.4176 106.506 37.085 106.506C36.734 106.506 36.4492 106.561 36.2305 106.67C36.0163 106.775 35.859 106.909 35.7588 107.073C35.6631 107.237 35.6152 107.41 35.6152 107.593C35.6152 107.729 35.638 107.853 35.6836 107.962C35.7337 108.067 35.8203 108.165 35.9434 108.256C36.0664 108.342 36.2396 108.424 36.4629 108.502C36.6862 108.579 36.971 108.657 37.3174 108.734C37.9235 108.871 38.4225 109.035 38.8145 109.227C39.2064 109.418 39.498 109.653 39.6895 109.931C39.8809 110.209 39.9766 110.546 39.9766 110.942C39.9766 111.266 39.9082 111.562 39.7715 111.831C39.6393 112.1 39.4456 112.332 39.1904 112.528C38.9398 112.72 38.639 112.87 38.2881 112.979C37.9417 113.084 37.5521 113.137 37.1191 113.137C36.4674 113.137 35.916 113.021 35.4648 112.788C35.0137 112.556 34.6719 112.255 34.4395 111.886C34.207 111.517 34.0908 111.127 34.0908 110.717H35.3623C35.3805 111.063 35.4808 111.339 35.6631 111.544C35.8454 111.744 36.0687 111.888 36.333 111.975C36.5973 112.057 36.8594 112.098 37.1191 112.098C37.4655 112.098 37.7549 112.052 37.9873 111.961C38.2243 111.87 38.4043 111.744 38.5273 111.585C38.6504 111.425 38.7119 111.243 38.7119 111.038ZM44.707 113.137C44.1921 113.137 43.7249 113.05 43.3057 112.877C42.891 112.699 42.5332 112.451 42.2324 112.132C41.9362 111.813 41.7083 111.435 41.5488 110.997C41.3893 110.56 41.3096 110.081 41.3096 109.562V109.274C41.3096 108.673 41.3984 108.137 41.5762 107.668C41.7539 107.194 41.9954 106.793 42.3008 106.465C42.6061 106.137 42.9525 105.888 43.3398 105.72C43.7272 105.551 44.1283 105.467 44.543 105.467C45.0716 105.467 45.5273 105.558 45.9102 105.74C46.2975 105.923 46.6143 106.178 46.8604 106.506C47.1064 106.829 47.2887 107.212 47.4072 107.654C47.5257 108.092 47.585 108.57 47.585 109.09V109.657H42.0615V108.625H46.3203V108.529C46.3021 108.201 46.2337 107.882 46.1152 107.572C46.0013 107.262 45.819 107.007 45.5684 106.807C45.3177 106.606 44.9759 106.506 44.543 106.506C44.2559 106.506 43.9915 106.567 43.75 106.69C43.5085 106.809 43.3011 106.987 43.1279 107.224C42.9548 107.461 42.8203 107.75 42.7246 108.092C42.6289 108.434 42.5811 108.828 42.5811 109.274V109.562C42.5811 109.912 42.6289 110.243 42.7246 110.553C42.8249 110.858 42.9684 111.127 43.1553 111.359C43.3467 111.592 43.5768 111.774 43.8457 111.906C44.1191 112.038 44.429 112.104 44.7754 112.104C45.222 112.104 45.6003 112.013 45.9102 111.831C46.2201 111.649 46.4912 111.405 46.7236 111.1L47.4893 111.708C47.3298 111.95 47.127 112.18 46.8809 112.398C46.6348 112.617 46.3317 112.795 45.9717 112.932C45.6162 113.068 45.1947 113.137 44.707 113.137Z" fill="white"/>
<path d="M4.82617 77.0967H2.16699V76.0234H4.82617C5.34115 76.0234 5.75814 75.9414 6.07715 75.7773C6.39616 75.6133 6.62858 75.3854 6.77441 75.0938C6.9248 74.8021 7 74.4694 7 74.0957C7 73.7539 6.9248 73.4326 6.77441 73.1318C6.62858 72.8311 6.39616 72.5895 6.07715 72.4072C5.75814 72.2204 5.34115 72.127 4.82617 72.127H2.47461V81H1.15527V71.0469H4.82617C5.57812 71.0469 6.21387 71.1768 6.7334 71.4365C7.25293 71.6963 7.64714 72.0563 7.91602 72.5166C8.1849 72.9723 8.31934 73.4941 8.31934 74.082C8.31934 74.7201 8.1849 75.2646 7.91602 75.7158C7.64714 76.167 7.25293 76.5111 6.7334 76.748C6.21387 76.9805 5.57812 77.0967 4.82617 77.0967ZM11.0605 74.7656V81H9.7959V73.6035H11.0264L11.0605 74.7656ZM13.3711 73.5625L13.3643 74.7383C13.2594 74.7155 13.1592 74.7018 13.0635 74.6973C12.9723 74.6882 12.8675 74.6836 12.749 74.6836C12.4574 74.6836 12.1999 74.7292 11.9766 74.8203C11.7533 74.9115 11.5641 75.0391 11.4092 75.2031C11.2542 75.3672 11.1312 75.5632 11.04 75.791C10.9535 76.0143 10.8965 76.2604 10.8691 76.5293L10.5137 76.7344C10.5137 76.2878 10.557 75.8685 10.6436 75.4766C10.7347 75.0846 10.8737 74.7383 11.0605 74.4375C11.2474 74.1322 11.4844 73.8952 11.7715 73.7266C12.0632 73.5534 12.4095 73.4668 12.8105 73.4668C12.9017 73.4668 13.0065 73.4782 13.125 73.501C13.2435 73.5192 13.3255 73.5397 13.3711 73.5625ZM15.9141 73.6035V81H14.6426V73.6035H15.9141ZM14.5469 71.6416C14.5469 71.4365 14.6084 71.2633 14.7314 71.1221C14.859 70.9808 15.0459 70.9102 15.292 70.9102C15.5335 70.9102 15.7181 70.9808 15.8457 71.1221C15.9779 71.2633 16.0439 71.4365 16.0439 71.6416C16.0439 71.8376 15.9779 72.0062 15.8457 72.1475C15.7181 72.2842 15.5335 72.3525 15.292 72.3525C15.0459 72.3525 14.859 72.2842 14.7314 72.1475C14.6084 72.0062 14.5469 71.8376 14.5469 71.6416ZM20.1934 79.8584L22.2168 73.6035H23.5088L20.8496 81H20.002L20.1934 79.8584ZM18.5049 73.6035L20.5898 79.8926L20.7334 81H19.8857L17.2061 73.6035H18.5049ZM28.9775 79.7354V75.9277C28.9775 75.6361 28.9183 75.3831 28.7998 75.1689C28.6859 74.9502 28.5127 74.7816 28.2803 74.6631C28.0479 74.5446 27.7607 74.4854 27.4189 74.4854C27.0999 74.4854 26.8197 74.54 26.5781 74.6494C26.3411 74.7588 26.1543 74.9023 26.0176 75.0801C25.8854 75.2578 25.8193 75.4492 25.8193 75.6543H24.5547C24.5547 75.39 24.623 75.1279 24.7598 74.8682C24.8965 74.6084 25.0924 74.3737 25.3477 74.1641C25.6074 73.9499 25.9173 73.7812 26.2773 73.6582C26.6419 73.5306 27.0475 73.4668 27.4941 73.4668C28.0319 73.4668 28.5059 73.5579 28.916 73.7402C29.3307 73.9225 29.6543 74.1982 29.8867 74.5674C30.1237 74.932 30.2422 75.39 30.2422 75.9414V79.3867C30.2422 79.6328 30.2627 79.8949 30.3037 80.1729C30.3493 80.4508 30.4154 80.6901 30.502 80.8906V81H29.1826C29.1188 80.8542 29.0687 80.6605 29.0322 80.4189C28.9958 80.1729 28.9775 79.945 28.9775 79.7354ZM29.1963 76.5156L29.21 77.4043H27.9316C27.5716 77.4043 27.2503 77.4339 26.9678 77.4932C26.6852 77.5479 26.4482 77.6322 26.2568 77.7461C26.0654 77.86 25.9196 78.0036 25.8193 78.1768C25.7191 78.3454 25.6689 78.5436 25.6689 78.7715C25.6689 79.0039 25.7214 79.2158 25.8262 79.4072C25.931 79.5986 26.0882 79.7513 26.2979 79.8652C26.512 79.9746 26.7741 80.0293 27.084 80.0293C27.4714 80.0293 27.8132 79.9473 28.1094 79.7832C28.4056 79.6191 28.6403 79.4186 28.8135 79.1816C28.9912 78.9447 29.0869 78.7145 29.1006 78.4912L29.6406 79.0996C29.6087 79.291 29.5221 79.5029 29.3809 79.7354C29.2396 79.9678 29.0505 80.1911 28.8135 80.4053C28.5811 80.6149 28.3031 80.7904 27.9795 80.9316C27.6605 81.0684 27.3005 81.1367 26.8994 81.1367C26.3981 81.1367 25.9583 81.0387 25.5801 80.8428C25.2064 80.6468 24.9147 80.3848 24.7051 80.0566C24.5 79.724 24.3975 79.3525 24.3975 78.9424C24.3975 78.5459 24.4749 78.1973 24.6299 77.8965C24.7848 77.5911 25.0081 77.3382 25.2998 77.1377C25.5915 76.9326 25.9424 76.7777 26.3525 76.6729C26.7627 76.568 27.2207 76.5156 27.7266 76.5156H29.1963ZM35.1914 80.0977C35.4922 80.0977 35.7702 80.0361 36.0254 79.9131C36.2806 79.79 36.4902 79.6214 36.6543 79.4072C36.8184 79.1885 36.9118 78.9401 36.9346 78.6621H38.1377C38.1149 79.0996 37.9668 79.5075 37.6934 79.8857C37.4245 80.2594 37.0713 80.5625 36.6338 80.7949C36.1963 81.0228 35.7155 81.1367 35.1914 81.1367C34.6354 81.1367 34.1501 81.0387 33.7354 80.8428C33.3252 80.6468 32.9834 80.3779 32.71 80.0361C32.4411 79.6943 32.2383 79.3024 32.1016 78.8604C31.9694 78.4137 31.9033 77.9421 31.9033 77.4453V77.1582C31.9033 76.6615 31.9694 76.1921 32.1016 75.75C32.2383 75.3034 32.4411 74.9092 32.71 74.5674C32.9834 74.2256 33.3252 73.9567 33.7354 73.7607C34.1501 73.5648 34.6354 73.4668 35.1914 73.4668C35.7702 73.4668 36.276 73.5853 36.709 73.8223C37.1419 74.0547 37.4814 74.3737 37.7275 74.7793C37.9782 75.1803 38.1149 75.6361 38.1377 76.1465H36.9346C36.9118 75.8411 36.8252 75.5654 36.6748 75.3193C36.529 75.0732 36.3285 74.8773 36.0732 74.7314C35.8226 74.5811 35.5286 74.5059 35.1914 74.5059C34.804 74.5059 34.4782 74.5833 34.2139 74.7383C33.9541 74.8887 33.7467 75.0938 33.5918 75.3535C33.4414 75.6087 33.332 75.8936 33.2637 76.208C33.1999 76.5179 33.168 76.8346 33.168 77.1582V77.4453C33.168 77.7689 33.1999 78.0879 33.2637 78.4023C33.3275 78.7168 33.4346 79.0016 33.585 79.2568C33.7399 79.512 33.9473 79.7171 34.207 79.8721C34.4714 80.0225 34.7995 80.0977 35.1914 80.0977ZM41.6377 80.2344L43.6953 73.6035H45.0488L42.082 82.1416C42.0137 82.3239 41.9225 82.5199 41.8086 82.7295C41.6992 82.9437 41.5579 83.1465 41.3848 83.3379C41.2116 83.5293 41.002 83.6842 40.7559 83.8027C40.5143 83.9258 40.2249 83.9873 39.8877 83.9873C39.7874 83.9873 39.6598 83.9736 39.5049 83.9463C39.3499 83.9189 39.2406 83.8962 39.1768 83.8779L39.1699 82.8525C39.2064 82.8571 39.2633 82.8617 39.3408 82.8662C39.4229 82.8753 39.4798 82.8799 39.5117 82.8799C39.7988 82.8799 40.0426 82.8411 40.2432 82.7637C40.4437 82.6908 40.6123 82.5654 40.749 82.3877C40.8903 82.2145 41.0111 81.9753 41.1113 81.6699L41.6377 80.2344ZM40.127 73.6035L42.0479 79.3457L42.376 80.6787L41.4668 81.1436L38.7461 73.6035H40.127ZM50.9277 75.0254V83.8438H49.6562V73.6035H50.8184L50.9277 75.0254ZM55.9111 77.2402V77.3838C55.9111 77.9215 55.8473 78.4206 55.7197 78.8809C55.5921 79.3366 55.4053 79.7331 55.1592 80.0703C54.9176 80.4076 54.6191 80.6696 54.2637 80.8564C53.9082 81.0433 53.5003 81.1367 53.04 81.1367C52.5706 81.1367 52.1559 81.0592 51.7959 80.9043C51.4359 80.7493 51.1305 80.5238 50.8799 80.2275C50.6292 79.9313 50.4287 79.5758 50.2783 79.1611C50.1325 78.7464 50.0322 78.2793 49.9775 77.7598V76.9941C50.0322 76.4473 50.1348 75.9574 50.2852 75.5244C50.4355 75.0915 50.6338 74.7223 50.8799 74.417C51.1305 74.1071 51.4336 73.8724 51.7891 73.7129C52.1445 73.5488 52.5547 73.4668 53.0195 73.4668C53.4844 73.4668 53.8968 73.5579 54.2568 73.7402C54.6169 73.918 54.9199 74.1732 55.166 74.5059C55.4121 74.8385 55.5967 75.2373 55.7197 75.7021C55.8473 76.1624 55.9111 76.6751 55.9111 77.2402ZM54.6396 77.3838V77.2402C54.6396 76.8711 54.6009 76.5247 54.5234 76.2012C54.446 75.873 54.3252 75.5859 54.1611 75.3398C54.0016 75.0892 53.7965 74.8932 53.5459 74.752C53.2952 74.6061 52.9967 74.5332 52.6504 74.5332C52.3314 74.5332 52.0534 74.5879 51.8164 74.6973C51.584 74.8066 51.3857 74.9548 51.2217 75.1416C51.0576 75.3239 50.9232 75.5335 50.8184 75.7705C50.7181 76.0029 50.6429 76.2445 50.5928 76.4951V78.2656C50.6839 78.5846 50.8115 78.8854 50.9756 79.168C51.1396 79.446 51.3584 79.6715 51.6318 79.8447C51.9053 80.0133 52.2493 80.0977 52.6641 80.0977C53.0059 80.0977 53.2998 80.027 53.5459 79.8857C53.7965 79.7399 54.0016 79.5417 54.1611 79.291C54.3252 79.0404 54.446 78.7533 54.5234 78.4297C54.6009 78.1016 54.6396 77.7529 54.6396 77.3838ZM57.1895 77.3838V77.2266C57.1895 76.6934 57.2669 76.1989 57.4219 75.7432C57.5768 75.2829 57.8001 74.8841 58.0918 74.5469C58.3835 74.2051 58.7367 73.9408 59.1514 73.7539C59.5661 73.5625 60.0309 73.4668 60.5459 73.4668C61.0654 73.4668 61.5326 73.5625 61.9473 73.7539C62.3665 73.9408 62.722 74.2051 63.0137 74.5469C63.3099 74.8841 63.5355 75.2829 63.6904 75.7432C63.8454 76.1989 63.9229 76.6934 63.9229 77.2266V77.3838C63.9229 77.917 63.8454 78.4115 63.6904 78.8672C63.5355 79.3229 63.3099 79.7217 63.0137 80.0635C62.722 80.4007 62.3688 80.665 61.9541 80.8564C61.5439 81.0433 61.0791 81.1367 60.5596 81.1367C60.04 81.1367 59.5729 81.0433 59.1582 80.8564C58.7435 80.665 58.388 80.4007 58.0918 80.0635C57.8001 79.7217 57.5768 79.3229 57.4219 78.8672C57.2669 78.4115 57.1895 77.917 57.1895 77.3838ZM58.4541 77.2266V77.3838C58.4541 77.7529 58.4974 78.1016 58.584 78.4297C58.6706 78.7533 58.8005 79.0404 58.9736 79.291C59.1514 79.5417 59.3724 79.7399 59.6367 79.8857C59.901 80.027 60.2087 80.0977 60.5596 80.0977C60.9059 80.0977 61.209 80.027 61.4688 79.8857C61.7331 79.7399 61.9518 79.5417 62.125 79.291C62.2982 79.0404 62.4281 78.7533 62.5146 78.4297C62.6058 78.1016 62.6514 77.7529 62.6514 77.3838V77.2266C62.6514 76.862 62.6058 76.5179 62.5146 76.1943C62.4281 75.8662 62.2959 75.5768 62.1182 75.3262C61.945 75.071 61.7262 74.8704 61.4619 74.7246C61.2021 74.5788 60.8968 74.5059 60.5459 74.5059C60.1995 74.5059 59.8942 74.5788 59.6299 74.7246C59.3701 74.8704 59.1514 75.071 58.9736 75.3262C58.8005 75.5768 58.6706 75.8662 58.584 76.1943C58.4974 76.5179 58.4541 76.862 58.4541 77.2266ZM66.8828 70.5V81H65.6113V70.5H66.8828ZM70.2871 73.6035V81H69.0156V73.6035H70.2871ZM68.9199 71.6416C68.9199 71.4365 68.9814 71.2633 69.1045 71.1221C69.2321 70.9808 69.4189 70.9102 69.665 70.9102C69.9066 70.9102 70.0911 70.9808 70.2188 71.1221C70.3509 71.2633 70.417 71.4365 70.417 71.6416C70.417 71.8376 70.3509 72.0062 70.2188 72.1475C70.0911 72.2842 69.9066 72.3525 69.665 72.3525C69.4189 72.3525 69.2321 72.2842 69.1045 72.1475C68.9814 72.0062 68.9199 71.8376 68.9199 71.6416ZM75.2773 80.0977C75.5781 80.0977 75.8561 80.0361 76.1113 79.9131C76.3665 79.79 76.5762 79.6214 76.7402 79.4072C76.9043 79.1885 76.9977 78.9401 77.0205 78.6621H78.2236C78.2008 79.0996 78.0527 79.5075 77.7793 79.8857C77.5104 80.2594 77.1572 80.5625 76.7197 80.7949C76.2822 81.0228 75.8014 81.1367 75.2773 81.1367C74.7214 81.1367 74.236 81.0387 73.8213 80.8428C73.4111 80.6468 73.0693 80.3779 72.7959 80.0361C72.527 79.6943 72.3242 79.3024 72.1875 78.8604C72.0553 78.4137 71.9893 77.9421 71.9893 77.4453V77.1582C71.9893 76.6615 72.0553 76.1921 72.1875 75.75C72.3242 75.3034 72.527 74.9092 72.7959 74.5674C73.0693 74.2256 73.4111 73.9567 73.8213 73.7607C74.236 73.5648 74.7214 73.4668 75.2773 73.4668C75.8561 73.4668 76.362 73.5853 76.7949 73.8223C77.2279 74.0547 77.5674 74.3737 77.8135 74.7793C78.0641 75.1803 78.2008 75.6361 78.2236 76.1465H77.0205C76.9977 75.8411 76.9111 75.5654 76.7607 75.3193C76.6149 75.0732 76.4144 74.8773 76.1592 74.7314C75.9085 74.5811 75.6146 74.5059 75.2773 74.5059C74.89 74.5059 74.5641 74.5833 74.2998 74.7383C74.04 74.8887 73.8327 75.0938 73.6777 75.3535C73.5273 75.6087 73.418 75.8936 73.3496 76.208C73.2858 76.5179 73.2539 76.8346 73.2539 77.1582V77.4453C73.2539 77.7689 73.2858 78.0879 73.3496 78.4023C73.4134 78.7168 73.5205 79.0016 73.6709 79.2568C73.8258 79.512 74.0332 79.7171 74.293 79.8721C74.5573 80.0225 74.8854 80.0977 75.2773 80.0977ZM81.7236 80.2344L83.7812 73.6035H85.1348L82.168 82.1416C82.0996 82.3239 82.0085 82.5199 81.8945 82.7295C81.7852 82.9437 81.6439 83.1465 81.4707 83.3379C81.2975 83.5293 81.0879 83.6842 80.8418 83.8027C80.6003 83.9258 80.3109 83.9873 79.9736 83.9873C79.8734 83.9873 79.7458 83.9736 79.5908 83.9463C79.4359 83.9189 79.3265 83.8962 79.2627 83.8779L79.2559 82.8525C79.2923 82.8571 79.3493 82.8617 79.4268 82.8662C79.5088 82.8753 79.5658 82.8799 79.5977 82.8799C79.8848 82.8799 80.1286 82.8411 80.3291 82.7637C80.5296 82.6908 80.6982 82.5654 80.835 82.3877C80.9762 82.2145 81.097 81.9753 81.1973 81.6699L81.7236 80.2344ZM80.2129 73.6035L82.1338 79.3457L82.4619 80.6787L81.5527 81.1436L78.832 73.6035H80.2129Z" fill="white"/>
<path d="M6.45996 142.484C6.45996 142.252 6.4235 142.047 6.35059 141.869C6.28223 141.687 6.15918 141.523 5.98145 141.377C5.80827 141.231 5.56673 141.092 5.25684 140.96C4.9515 140.828 4.56413 140.693 4.09473 140.557C3.60254 140.411 3.1582 140.249 2.76172 140.071C2.36523 139.889 2.02572 139.682 1.74316 139.449C1.46061 139.217 1.24414 138.95 1.09375 138.649C0.943359 138.349 0.868164 138.005 0.868164 137.617C0.868164 137.23 0.947917 136.872 1.10742 136.544C1.26693 136.216 1.49479 135.931 1.79102 135.689C2.0918 135.443 2.44954 135.252 2.86426 135.115C3.27897 134.979 3.74154 134.91 4.25195 134.91C4.99935 134.91 5.63281 135.054 6.15234 135.341C6.67643 135.623 7.0752 135.995 7.34863 136.455C7.62207 136.911 7.75879 137.398 7.75879 137.918H6.44629C6.44629 137.544 6.36654 137.214 6.20703 136.927C6.04753 136.635 5.80599 136.407 5.48242 136.243C5.15885 136.075 4.7487 135.99 4.25195 135.99C3.78255 135.99 3.39518 136.061 3.08984 136.202C2.78451 136.343 2.55664 136.535 2.40625 136.776C2.26042 137.018 2.1875 137.294 2.1875 137.604C2.1875 137.813 2.23079 138.005 2.31738 138.178C2.40853 138.346 2.54753 138.504 2.73438 138.649C2.92578 138.795 3.16732 138.93 3.45898 139.053C3.75521 139.176 4.1084 139.294 4.51855 139.408C5.08366 139.568 5.57129 139.745 5.98145 139.941C6.3916 140.137 6.72884 140.358 6.99316 140.604C7.26204 140.846 7.46029 141.122 7.58789 141.432C7.72005 141.737 7.78613 142.083 7.78613 142.471C7.78613 142.876 7.7041 143.243 7.54004 143.571C7.37598 143.899 7.14128 144.18 6.83594 144.412C6.5306 144.645 6.16374 144.825 5.73535 144.952C5.31152 145.075 4.83757 145.137 4.31348 145.137C3.85319 145.137 3.39974 145.073 2.95312 144.945C2.51107 144.818 2.10775 144.626 1.74316 144.371C1.38314 144.116 1.09375 143.801 0.875 143.428C0.660807 143.049 0.553711 142.612 0.553711 142.115H1.86621C1.86621 142.457 1.93229 142.751 2.06445 142.997C2.19661 143.239 2.37663 143.439 2.60449 143.599C2.83691 143.758 3.09896 143.877 3.39062 143.954C3.68685 144.027 3.99447 144.063 4.31348 144.063C4.77376 144.063 5.16341 144 5.48242 143.872C5.80143 143.744 6.04297 143.562 6.20703 143.325C6.37565 143.088 6.45996 142.808 6.45996 142.484ZM12.3457 145.137C11.8307 145.137 11.3636 145.05 10.9443 144.877C10.5296 144.699 10.1719 144.451 9.87109 144.132C9.57487 143.813 9.34701 143.435 9.1875 142.997C9.02799 142.56 8.94824 142.081 8.94824 141.562V141.274C8.94824 140.673 9.03711 140.137 9.21484 139.668C9.39258 139.194 9.63411 138.793 9.93945 138.465C10.2448 138.137 10.5911 137.888 10.9785 137.72C11.3659 137.551 11.7669 137.467 12.1816 137.467C12.7103 137.467 13.166 137.558 13.5488 137.74C13.9362 137.923 14.2529 138.178 14.499 138.506C14.7451 138.829 14.9274 139.212 15.0459 139.654C15.1644 140.092 15.2236 140.57 15.2236 141.09V141.657H9.7002V140.625H13.959V140.529C13.9408 140.201 13.8724 139.882 13.7539 139.572C13.64 139.262 13.4577 139.007 13.207 138.807C12.9564 138.606 12.6146 138.506 12.1816 138.506C11.8945 138.506 11.6302 138.567 11.3887 138.69C11.1471 138.809 10.9398 138.987 10.7666 139.224C10.5934 139.461 10.459 139.75 10.3633 140.092C10.2676 140.434 10.2197 140.828 10.2197 141.274V141.562C10.2197 141.912 10.2676 142.243 10.3633 142.553C10.4635 142.858 10.6071 143.127 10.7939 143.359C10.9854 143.592 11.2155 143.774 11.4844 143.906C11.7578 144.038 12.0677 144.104 12.4141 144.104C12.8607 144.104 13.2389 144.013 13.5488 143.831C13.8587 143.649 14.1299 143.405 14.3623 143.1L15.1279 143.708C14.9684 143.95 14.7656 144.18 14.5195 144.398C14.2734 144.617 13.9704 144.795 13.6104 144.932C13.2549 145.068 12.8333 145.137 12.3457 145.137ZM19.6602 144.098C19.9609 144.098 20.2389 144.036 20.4941 143.913C20.7493 143.79 20.959 143.621 21.123 143.407C21.2871 143.188 21.3805 142.94 21.4033 142.662H22.6064C22.5837 143.1 22.4355 143.507 22.1621 143.886C21.8932 144.259 21.54 144.562 21.1025 144.795C20.665 145.023 20.1842 145.137 19.6602 145.137C19.1042 145.137 18.6188 145.039 18.2041 144.843C17.7939 144.647 17.4521 144.378 17.1787 144.036C16.9098 143.694 16.707 143.302 16.5703 142.86C16.4382 142.414 16.3721 141.942 16.3721 141.445V141.158C16.3721 140.661 16.4382 140.192 16.5703 139.75C16.707 139.303 16.9098 138.909 17.1787 138.567C17.4521 138.226 17.7939 137.957 18.2041 137.761C18.6188 137.565 19.1042 137.467 19.6602 137.467C20.2389 137.467 20.7448 137.585 21.1777 137.822C21.6107 138.055 21.9502 138.374 22.1963 138.779C22.4469 139.18 22.5837 139.636 22.6064 140.146H21.4033C21.3805 139.841 21.2939 139.565 21.1436 139.319C20.9977 139.073 20.7972 138.877 20.542 138.731C20.2913 138.581 19.9974 138.506 19.6602 138.506C19.2728 138.506 18.9469 138.583 18.6826 138.738C18.4229 138.889 18.2155 139.094 18.0605 139.354C17.9102 139.609 17.8008 139.894 17.7324 140.208C17.6686 140.518 17.6367 140.835 17.6367 141.158V141.445C17.6367 141.769 17.6686 142.088 17.7324 142.402C17.7962 142.717 17.9033 143.002 18.0537 143.257C18.2087 143.512 18.416 143.717 18.6758 143.872C18.9401 144.022 19.2682 144.098 19.6602 144.098ZM28.5537 143.291V137.604H29.8252V145H28.6152L28.5537 143.291ZM28.793 141.732L29.3193 141.719C29.3193 142.211 29.2669 142.667 29.1621 143.086C29.0618 143.501 28.8978 143.861 28.6699 144.166C28.4421 144.471 28.1436 144.711 27.7744 144.884C27.4053 145.052 26.9564 145.137 26.4277 145.137C26.0677 145.137 25.7373 145.084 25.4365 144.979C25.1403 144.875 24.8851 144.713 24.6709 144.494C24.4567 144.275 24.2904 143.991 24.1719 143.64C24.0579 143.289 24.001 142.867 24.001 142.375V137.604H25.2656V142.389C25.2656 142.721 25.3021 142.997 25.375 143.216C25.4525 143.43 25.555 143.601 25.6826 143.729C25.8148 143.852 25.9606 143.938 26.1201 143.988C26.2842 144.038 26.4528 144.063 26.626 144.063C27.1637 144.063 27.5898 143.961 27.9043 143.756C28.2188 143.546 28.4443 143.266 28.5811 142.915C28.7223 142.56 28.793 142.165 28.793 141.732ZM33.0176 138.766V145H31.7529V137.604H32.9834L33.0176 138.766ZM35.3281 137.562L35.3213 138.738C35.2165 138.715 35.1162 138.702 35.0205 138.697C34.9294 138.688 34.8245 138.684 34.7061 138.684C34.4144 138.684 34.1569 138.729 33.9336 138.82C33.7103 138.911 33.5212 139.039 33.3662 139.203C33.2113 139.367 33.0882 139.563 32.9971 139.791C32.9105 140.014 32.8535 140.26 32.8262 140.529L32.4707 140.734C32.4707 140.288 32.514 139.868 32.6006 139.477C32.6917 139.085 32.8307 138.738 33.0176 138.438C33.2044 138.132 33.4414 137.895 33.7285 137.727C34.0202 137.553 34.3665 137.467 34.7676 137.467C34.8587 137.467 34.9635 137.478 35.082 137.501C35.2005 137.519 35.2826 137.54 35.3281 137.562ZM37.8711 137.604V145H36.5996V137.604H37.8711ZM36.5039 135.642C36.5039 135.437 36.5654 135.263 36.6885 135.122C36.8161 134.981 37.0029 134.91 37.249 134.91C37.4906 134.91 37.6751 134.981 37.8027 135.122C37.9349 135.263 38.001 135.437 38.001 135.642C38.001 135.838 37.9349 136.006 37.8027 136.147C37.6751 136.284 37.4906 136.353 37.249 136.353C37.0029 136.353 36.8161 136.284 36.6885 136.147C36.5654 136.006 36.5039 135.838 36.5039 135.642ZM42.998 137.604V138.574H38.999V137.604H42.998ZM40.3525 135.806H41.6172V143.168C41.6172 143.419 41.6559 143.608 41.7334 143.735C41.8109 143.863 41.9111 143.947 42.0342 143.988C42.1572 144.029 42.2894 144.05 42.4307 144.05C42.5355 144.05 42.6449 144.041 42.7588 144.022C42.8773 144 42.9661 143.981 43.0254 143.968L43.0322 145C42.932 145.032 42.7998 145.062 42.6357 145.089C42.4762 145.121 42.2826 145.137 42.0547 145.137C41.7448 145.137 41.46 145.075 41.2002 144.952C40.9404 144.829 40.7331 144.624 40.5781 144.337C40.4277 144.045 40.3525 143.653 40.3525 143.161V135.806ZM46.5596 144.234L48.6172 137.604H49.9707L47.0039 146.142C46.9355 146.324 46.8444 146.52 46.7305 146.729C46.6211 146.944 46.4798 147.146 46.3066 147.338C46.1335 147.529 45.9238 147.684 45.6777 147.803C45.4362 147.926 45.1468 147.987 44.8096 147.987C44.7093 147.987 44.5817 147.974 44.4268 147.946C44.2718 147.919 44.1624 147.896 44.0986 147.878L44.0918 146.853C44.1283 146.857 44.1852 146.862 44.2627 146.866C44.3447 146.875 44.4017 146.88 44.4336 146.88C44.7207 146.88 44.9645 146.841 45.165 146.764C45.3656 146.691 45.5342 146.565 45.6709 146.388C45.8122 146.215 45.9329 145.975 46.0332 145.67L46.5596 144.234ZM45.0488 137.604L46.9697 143.346L47.2979 144.679L46.3887 145.144L43.668 137.604H45.0488Z" fill="white"/>
<path d="M7.19141 13.9268V15H2.21484V13.9268H7.19141ZM2.47461 5.04688V15H1.15527V5.04688H2.47461ZM11.5801 15.1367C11.0651 15.1367 10.598 15.0501 10.1787 14.877C9.764 14.6992 9.40625 14.4508 9.10547 14.1318C8.80924 13.8128 8.58138 13.4346 8.42188 12.9971C8.26237 12.5596 8.18262 12.0811 8.18262 11.5615V11.2744C8.18262 10.6729 8.27148 10.1374 8.44922 9.66797C8.62695 9.19401 8.86849 8.79297 9.17383 8.46484C9.47917 8.13672 9.82552 7.88835 10.2129 7.71973C10.6003 7.55111 11.0013 7.4668 11.416 7.4668C11.9447 7.4668 12.4004 7.55794 12.7832 7.74023C13.1706 7.92253 13.4873 8.17773 13.7334 8.50586C13.9795 8.82943 14.1618 9.21224 14.2803 9.6543C14.3988 10.0918 14.458 10.5703 14.458 11.0898V11.6572H8.93457V10.625H13.1934V10.5293C13.1751 10.2012 13.1068 9.88216 12.9883 9.57227C12.8743 9.26237 12.6921 9.00716 12.4414 8.80664C12.1908 8.60612 11.849 8.50586 11.416 8.50586C11.1289 8.50586 10.8646 8.56738 10.623 8.69043C10.3815 8.80892 10.1742 8.98665 10.001 9.22363C9.8278 9.46061 9.69336 9.75 9.59766 10.0918C9.50195 10.4336 9.4541 10.8278 9.4541 11.2744V11.5615C9.4541 11.9124 9.50195 12.2428 9.59766 12.5527C9.69792 12.8581 9.84147 13.127 10.0283 13.3594C10.2197 13.5918 10.4499 13.7741 10.7188 13.9062C10.9922 14.0384 11.3021 14.1045 11.6484 14.1045C12.0951 14.1045 12.4733 14.0133 12.7832 13.8311C13.0931 13.6488 13.3643 13.4049 13.5967 13.0996L14.3623 13.708C14.2028 13.9495 14 14.1797 13.7539 14.3984C13.5078 14.6172 13.2048 14.7949 12.8447 14.9316C12.4893 15.0684 12.0677 15.1367 11.5801 15.1367ZM20.7266 7.60352H21.875V14.8428C21.875 15.4945 21.7428 16.0505 21.4785 16.5107C21.2142 16.971 20.8451 17.3197 20.3711 17.5566C19.9017 17.7982 19.3594 17.9189 18.7441 17.9189C18.4889 17.9189 18.1882 17.8779 17.8418 17.7959C17.5 17.7184 17.1628 17.584 16.8301 17.3926C16.502 17.2057 16.2262 16.9528 16.0029 16.6338L16.666 15.8818C16.9759 16.2555 17.2995 16.5153 17.6367 16.6611C17.9785 16.807 18.3158 16.8799 18.6484 16.8799C19.0495 16.8799 19.3958 16.8047 19.6875 16.6543C19.9792 16.5039 20.2048 16.2806 20.3643 15.9844C20.5283 15.6927 20.6104 15.3327 20.6104 14.9043V9.23047L20.7266 7.60352ZM15.6338 11.3838V11.2402C15.6338 10.6751 15.6999 10.1624 15.832 9.70215C15.9688 9.2373 16.1624 8.83854 16.4131 8.50586C16.6683 8.17318 16.9759 7.91797 17.3359 7.74023C17.696 7.55794 18.1016 7.4668 18.5527 7.4668C19.0176 7.4668 19.4232 7.54883 19.7695 7.71289C20.1204 7.8724 20.4167 8.1071 20.6582 8.41699C20.9043 8.72233 21.098 9.09147 21.2393 9.52441C21.3805 9.95736 21.4785 10.4473 21.5332 10.9941V11.623C21.4831 12.1654 21.3851 12.653 21.2393 13.0859C21.098 13.5189 20.9043 13.888 20.6582 14.1934C20.4167 14.4987 20.1204 14.7334 19.7695 14.8975C19.4186 15.057 19.0085 15.1367 18.5391 15.1367C18.097 15.1367 17.696 15.0433 17.3359 14.8564C16.9805 14.6696 16.6751 14.4076 16.4199 14.0703C16.1647 13.7331 15.9688 13.3366 15.832 12.8809C15.6999 12.4206 15.6338 11.9215 15.6338 11.3838ZM16.8984 11.2402V11.3838C16.8984 11.7529 16.9349 12.0993 17.0078 12.4229C17.0853 12.7464 17.2015 13.0312 17.3564 13.2773C17.516 13.5234 17.7188 13.7171 17.9648 13.8584C18.2109 13.9951 18.5049 14.0635 18.8467 14.0635C19.266 14.0635 19.6123 13.9746 19.8857 13.7969C20.1592 13.6191 20.3757 13.3844 20.5352 13.0928C20.6992 12.8011 20.8268 12.4844 20.918 12.1426V10.4951C20.8678 10.2445 20.7904 10.0029 20.6855 9.77051C20.5853 9.53353 20.4531 9.32389 20.2891 9.1416C20.1296 8.95475 19.9313 8.80664 19.6943 8.69727C19.4574 8.58789 19.1794 8.5332 18.8604 8.5332C18.514 8.5332 18.2155 8.60612 17.9648 8.75195C17.7188 8.89323 17.516 9.08919 17.3564 9.33984C17.2015 9.58594 17.0853 9.87305 17.0078 10.2012C16.9349 10.5247 16.8984 10.8711 16.8984 11.2402ZM28.1572 13.7354V9.92773C28.1572 9.63607 28.098 9.38314 27.9795 9.16895C27.8656 8.9502 27.6924 8.78158 27.46 8.66309C27.2275 8.5446 26.9404 8.48535 26.5986 8.48535C26.2796 8.48535 25.9993 8.54004 25.7578 8.64941C25.5208 8.75879 25.334 8.90234 25.1973 9.08008C25.0651 9.25781 24.999 9.44922 24.999 9.6543H23.7344C23.7344 9.38997 23.8027 9.12793 23.9395 8.86816C24.0762 8.6084 24.2721 8.3737 24.5273 8.16406C24.7871 7.94987 25.097 7.78125 25.457 7.6582C25.8216 7.5306 26.2272 7.4668 26.6738 7.4668C27.2116 7.4668 27.6855 7.55794 28.0957 7.74023C28.5104 7.92253 28.834 8.19824 29.0664 8.56738C29.3034 8.93197 29.4219 9.38997 29.4219 9.94141V13.3867C29.4219 13.6328 29.4424 13.8949 29.4834 14.1729C29.529 14.4508 29.5951 14.6901 29.6816 14.8906V15H28.3623C28.2985 14.8542 28.2484 14.6605 28.2119 14.4189C28.1755 14.1729 28.1572 13.945 28.1572 13.7354ZM28.376 10.5156L28.3896 11.4043H27.1113C26.7513 11.4043 26.43 11.4339 26.1475 11.4932C25.8649 11.5479 25.6279 11.6322 25.4365 11.7461C25.2451 11.86 25.0993 12.0036 24.999 12.1768C24.8988 12.3454 24.8486 12.5436 24.8486 12.7715C24.8486 13.0039 24.901 13.2158 25.0059 13.4072C25.1107 13.5986 25.2679 13.7513 25.4775 13.8652C25.6917 13.9746 25.9538 14.0293 26.2637 14.0293C26.651 14.0293 26.9928 13.9473 27.2891 13.7832C27.5853 13.6191 27.82 13.4186 27.9932 13.1816C28.1709 12.9447 28.2666 12.7145 28.2803 12.4912L28.8203 13.0996C28.7884 13.291 28.7018 13.5029 28.5605 13.7354C28.4193 13.9678 28.2301 14.1911 27.9932 14.4053C27.7607 14.6149 27.4827 14.7904 27.1592 14.9316C26.8402 15.0684 26.4801 15.1367 26.0791 15.1367C25.5778 15.1367 25.138 15.0387 24.7598 14.8428C24.3861 14.6468 24.0944 14.3848 23.8848 14.0566C23.6797 13.724 23.5771 13.3525 23.5771 12.9424C23.5771 12.5459 23.6546 12.1973 23.8096 11.8965C23.9645 11.5911 24.1878 11.3382 24.4795 11.1377C24.7712 10.9326 25.1221 10.7777 25.5322 10.6729C25.9424 10.568 26.4004 10.5156 26.9062 10.5156H28.376ZM32.7852 4.5V15H31.5137V4.5H32.7852Z" fill="#949C9E"/>
</svg>
