<svg width="215" height="217" viewBox="0 0 215 217" fill="none" xmlns="http://www.w3.org/2000/svg">
<g filter="url(#filter0_dd_1_811)">
<rect x="44" y="44" width="127" height="129" rx="6" fill="white" shape-rendering="crispEdges"/>
<path d="M84.6445 66.2188V69.6992H82.8281V66.2188H84.6445ZM84.4219 85.3555V88.4961H82.6172V85.3555H84.4219ZM85.9453 81.5352C85.9453 81.0898 85.8594 80.7031 85.6875 80.375C85.5234 80.0469 85.2461 79.7539 84.8555 79.4961C84.4727 79.2383 83.957 78.9922 83.3086 78.7578C82.3008 78.3906 81.418 77.9883 80.6602 77.5508C79.9023 77.1055 79.3125 76.5547 78.8906 75.8984C78.4766 75.2422 78.2695 74.4141 78.2695 73.4141C78.2695 72.4531 78.4922 71.6211 78.9375 70.918C79.3906 70.207 80.0195 69.6602 80.8242 69.2773C81.6289 68.8867 82.5625 68.6914 83.625 68.6914C84.4531 68.6914 85.1953 68.8164 85.8516 69.0664C86.5156 69.3086 87.082 69.6641 87.5508 70.1328C88.0273 70.6016 88.3906 71.1797 88.6406 71.8672C88.8984 72.5469 89.0273 73.3242 89.0273 74.1992H85.9336C85.9336 73.7148 85.8789 73.2852 85.7695 72.9102C85.6602 72.5352 85.5039 72.2188 85.3008 71.9609C85.0977 71.6953 84.8516 71.4961 84.5625 71.3633C84.2812 71.2305 83.9609 71.1641 83.6016 71.1641C83.0859 71.1641 82.6602 71.2617 82.3242 71.457C81.9961 71.6523 81.7539 71.918 81.5977 72.2539C81.4492 72.5898 81.375 72.9766 81.375 73.4141C81.375 73.8359 81.4531 74.207 81.6094 74.5273C81.7734 74.8398 82.0469 75.125 82.4297 75.3828C82.8203 75.6406 83.3555 75.9023 84.0352 76.168C85.0508 76.543 85.9336 76.957 86.6836 77.4102C87.4336 77.8555 88.0156 78.4023 88.4297 79.0508C88.8438 79.6992 89.0508 80.5195 89.0508 81.5117C89.0508 82.5273 88.8164 83.3867 88.3477 84.0898C87.8867 84.793 87.2383 85.3281 86.4023 85.6953C85.5664 86.0625 84.5938 86.2461 83.4844 86.2461C82.7734 86.2461 82.0703 86.1523 81.375 85.9648C80.6797 85.7773 80.0469 85.4727 79.4766 85.0508C78.9141 84.6211 78.4648 84.0547 78.1289 83.3516C77.793 82.6406 77.625 81.7695 77.625 80.7383H80.7305C80.7305 81.332 80.8086 81.8242 80.9648 82.2148C81.1211 82.6055 81.332 82.918 81.5977 83.1523C81.8633 83.3789 82.1602 83.5391 82.4883 83.6328C82.8164 83.7266 83.1484 83.7734 83.4844 83.7734C84.0312 83.7734 84.4844 83.6797 84.8438 83.4922C85.2109 83.3047 85.4844 83.043 85.6641 82.707C85.8516 82.3633 85.9453 81.9727 85.9453 81.5352ZM94.8281 76.0977H96.5742C97.1914 76.0977 97.6992 75.9922 98.0977 75.7812C98.5039 75.5625 98.8047 75.2656 99 74.8906C99.2031 74.5078 99.3047 74.0664 99.3047 73.5664C99.3047 73.0742 99.2148 72.6484 99.0352 72.2891C98.8555 71.9219 98.582 71.6406 98.2148 71.4453C97.8555 71.2422 97.3945 71.1406 96.832 71.1406C96.3789 71.1406 95.9609 71.2305 95.5781 71.4102C95.2031 71.5898 94.9023 71.8477 94.6758 72.1836C94.457 72.5117 94.3477 72.9062 94.3477 73.3672H91.2422C91.2422 72.4453 91.4844 71.6367 91.9688 70.9414C92.4609 70.2383 93.125 69.6875 93.9609 69.2891C94.7969 68.8906 95.7305 68.6914 96.7617 68.6914C97.8867 68.6914 98.8711 68.8789 99.7148 69.2539C100.566 69.6211 101.227 70.1641 101.695 70.8828C102.172 71.6016 102.41 72.4922 102.41 73.5547C102.41 74.0625 102.289 74.5703 102.047 75.0781C101.812 75.5781 101.465 76.0312 101.004 76.4375C100.551 76.8359 99.9922 77.1602 99.3281 77.4102C98.6719 77.6523 97.918 77.7734 97.0664 77.7734H94.8281V76.0977ZM94.8281 78.4883V76.8359H97.0664C98.0273 76.8359 98.8594 76.9492 99.5625 77.1758C100.273 77.3945 100.859 77.707 101.32 78.1133C101.781 78.5117 102.121 78.9766 102.34 79.5078C102.566 80.0391 102.68 80.6094 102.68 81.2188C102.68 82.0156 102.531 82.7266 102.234 83.3516C101.938 83.9688 101.52 84.4922 100.98 84.9219C100.449 85.3516 99.8242 85.6797 99.1055 85.9062C98.3867 86.125 97.6094 86.2344 96.7734 86.2344C96.0469 86.2344 95.3398 86.1367 94.6523 85.9414C93.9727 85.7383 93.3594 85.4375 92.8125 85.0391C92.2656 84.6328 91.832 84.125 91.5117 83.5156C91.1914 82.8984 91.0312 82.1836 91.0312 81.3711H94.1367C94.1367 81.8398 94.25 82.2578 94.4766 82.625C94.7109 82.9922 95.0312 83.2812 95.4375 83.4922C95.8516 83.6953 96.3164 83.7969 96.832 83.7969C97.4023 83.7969 97.8906 83.6953 98.2969 83.4922C98.7109 83.2812 99.0273 82.9844 99.2461 82.6016C99.4648 82.2109 99.5742 81.7461 99.5742 81.207C99.5742 80.5664 99.4531 80.0469 99.2109 79.6484C98.9688 79.25 98.6211 78.957 98.168 78.7695C97.7227 78.582 97.1914 78.4883 96.5742 78.4883H94.8281ZM105.445 84.4883C105.445 84.0195 105.605 83.625 105.926 83.3047C106.246 82.9844 106.68 82.8242 107.227 82.8242C107.773 82.8242 108.207 82.9844 108.527 83.3047C108.848 83.625 109.008 84.0195 109.008 84.4883C109.008 84.9492 108.848 85.3398 108.527 85.6602C108.207 85.9727 107.773 86.1289 107.227 86.1289C106.68 86.1289 106.246 85.9727 105.926 85.6602C105.605 85.3398 105.445 84.9492 105.445 84.4883ZM114.305 83.5977H114.527C115.535 83.5977 116.387 83.4688 117.082 83.2109C117.785 82.9531 118.352 82.5898 118.781 82.1211C119.219 81.6445 119.535 81.0781 119.73 80.4219C119.934 79.7578 120.035 79.0234 120.035 78.2188V75.125C120.035 74.4688 119.969 73.8945 119.836 73.4023C119.703 72.9023 119.516 72.4844 119.273 72.1484C119.039 71.8125 118.762 71.5625 118.441 71.3984C118.121 71.2266 117.777 71.1406 117.41 71.1406C117.004 71.1406 116.645 71.2344 116.332 71.4219C116.02 71.6094 115.754 71.8672 115.535 72.1953C115.324 72.5156 115.16 72.8867 115.043 73.3086C114.934 73.7305 114.879 74.1758 114.879 74.6445C114.879 75.0977 114.93 75.5312 115.031 75.9453C115.141 76.3594 115.301 76.7266 115.512 77.0469C115.73 77.3672 116.004 77.6211 116.332 77.8086C116.66 77.9883 117.043 78.0781 117.48 78.0781C117.895 78.0781 118.27 78 118.605 77.8438C118.949 77.6797 119.246 77.4648 119.496 77.1992C119.746 76.9258 119.938 76.625 120.07 76.2969C120.211 75.9609 120.289 75.6211 120.305 75.2773L121.395 75.7461C121.395 76.3164 121.273 76.8789 121.031 77.4336C120.797 77.9883 120.465 78.4922 120.035 78.9453C119.613 79.3906 119.121 79.75 118.559 80.0234C117.996 80.2891 117.391 80.4219 116.742 80.4219C115.938 80.4219 115.227 80.2734 114.609 79.9766C113.992 79.6797 113.473 79.2695 113.051 78.7461C112.637 78.2148 112.324 77.6055 112.113 76.918C111.902 76.2227 111.797 75.4805 111.797 74.6914C111.797 73.8711 111.926 73.1016 112.184 72.3828C112.441 71.6562 112.812 71.0195 113.297 70.4727C113.789 69.918 114.383 69.4844 115.078 69.1719C115.773 68.8516 116.555 68.6914 117.422 68.6914C118.32 68.6914 119.121 68.8672 119.824 69.2188C120.527 69.5703 121.125 70.0586 121.617 70.6836C122.109 71.3008 122.484 72.0312 122.742 72.875C123.008 73.7188 123.141 74.6406 123.141 75.6406V76.7305C123.141 77.7852 123.035 78.7852 122.824 79.7305C122.613 80.6758 122.289 81.5391 121.852 82.3203C121.414 83.1016 120.855 83.7773 120.176 84.3477C119.504 84.918 118.699 85.3594 117.762 85.6719C116.832 85.9766 115.77 86.1289 114.574 86.1289H114.305V83.5977ZM128.016 83.5977H128.238C129.246 83.5977 130.098 83.4688 130.793 83.2109C131.496 82.9531 132.062 82.5898 132.492 82.1211C132.93 81.6445 133.246 81.0781 133.441 80.4219C133.645 79.7578 133.746 79.0234 133.746 78.2188V75.125C133.746 74.4688 133.68 73.8945 133.547 73.4023C133.414 72.9023 133.227 72.4844 132.984 72.1484C132.75 71.8125 132.473 71.5625 132.152 71.3984C131.832 71.2266 131.488 71.1406 131.121 71.1406C130.715 71.1406 130.355 71.2344 130.043 71.4219C129.73 71.6094 129.465 71.8672 129.246 72.1953C129.035 72.5156 128.871 72.8867 128.754 73.3086C128.645 73.7305 128.59 74.1758 128.59 74.6445C128.59 75.0977 128.641 75.5312 128.742 75.9453C128.852 76.3594 129.012 76.7266 129.223 77.0469C129.441 77.3672 129.715 77.6211 130.043 77.8086C130.371 77.9883 130.754 78.0781 131.191 78.0781C131.605 78.0781 131.98 78 132.316 77.8438C132.66 77.6797 132.957 77.4648 133.207 77.1992C133.457 76.9258 133.648 76.625 133.781 76.2969C133.922 75.9609 134 75.6211 134.016 75.2773L135.105 75.7461C135.105 76.3164 134.984 76.8789 134.742 77.4336C134.508 77.9883 134.176 78.4922 133.746 78.9453C133.324 79.3906 132.832 79.75 132.27 80.0234C131.707 80.2891 131.102 80.4219 130.453 80.4219C129.648 80.4219 128.938 80.2734 128.32 79.9766C127.703 79.6797 127.184 79.2695 126.762 78.7461C126.348 78.2148 126.035 77.6055 125.824 76.918C125.613 76.2227 125.508 75.4805 125.508 74.6914C125.508 73.8711 125.637 73.1016 125.895 72.3828C126.152 71.6562 126.523 71.0195 127.008 70.4727C127.5 69.918 128.094 69.4844 128.789 69.1719C129.484 68.8516 130.266 68.6914 131.133 68.6914C132.031 68.6914 132.832 68.8672 133.535 69.2188C134.238 69.5703 134.836 70.0586 135.328 70.6836C135.82 71.3008 136.195 72.0312 136.453 72.875C136.719 73.7188 136.852 74.6406 136.852 75.6406V76.7305C136.852 77.7852 136.746 78.7852 136.535 79.7305C136.324 80.6758 136 81.5391 135.562 82.3203C135.125 83.1016 134.566 83.7773 133.887 84.3477C133.215 84.918 132.41 85.3594 131.473 85.6719C130.543 85.9766 129.48 86.1289 128.285 86.1289H128.016V83.5977Z" fill="#323238"/>
<path d="M75.4766 114.758H72.5156V113.203H75.4766C75.9922 113.203 76.4089 113.12 76.7266 112.953C77.0443 112.786 77.276 112.557 77.4219 112.266C77.5729 111.969 77.6484 111.63 77.6484 111.25C77.6484 110.891 77.5729 110.555 77.4219 110.242C77.276 109.924 77.0443 109.669 76.7266 109.477C76.4089 109.284 75.9922 109.188 75.4766 109.188H73.1172V119H71.1562V107.625H75.4766C76.3568 107.625 77.1042 107.781 77.7188 108.094C78.3385 108.401 78.8099 108.828 79.1328 109.375C79.4557 109.917 79.6172 110.536 79.6172 111.234C79.6172 111.969 79.4557 112.599 79.1328 113.125C78.8099 113.651 78.3385 114.055 77.7188 114.336C77.1042 114.617 76.3568 114.758 75.4766 114.758ZM84.8047 119.156C84.1797 119.156 83.6146 119.055 83.1094 118.852C82.6094 118.643 82.1823 118.354 81.8281 117.984C81.4792 117.615 81.2109 117.18 81.0234 116.68C80.8359 116.18 80.7422 115.641 80.7422 115.062V114.75C80.7422 114.089 80.8385 113.49 81.0312 112.953C81.224 112.417 81.4922 111.958 81.8359 111.578C82.1797 111.193 82.5859 110.898 83.0547 110.695C83.5234 110.492 84.0312 110.391 84.5781 110.391C85.1823 110.391 85.7109 110.492 86.1641 110.695C86.6172 110.898 86.9922 111.185 87.2891 111.555C87.5911 111.919 87.8151 112.354 87.9609 112.859C88.112 113.365 88.1875 113.922 88.1875 114.531V115.336H81.6562V113.984H86.3281V113.836C86.3177 113.497 86.25 113.18 86.125 112.883C86.0052 112.586 85.8203 112.346 85.5703 112.164C85.3203 111.982 84.987 111.891 84.5703 111.891C84.2578 111.891 83.9792 111.958 83.7344 112.094C83.4948 112.224 83.2943 112.414 83.1328 112.664C82.9714 112.914 82.8464 113.216 82.7578 113.57C82.6745 113.919 82.6328 114.312 82.6328 114.75V115.062C82.6328 115.432 82.6823 115.776 82.7812 116.094C82.8854 116.406 83.0365 116.68 83.2344 116.914C83.4323 117.148 83.6719 117.333 83.9531 117.469C84.2344 117.599 84.5547 117.664 84.9141 117.664C85.3672 117.664 85.7708 117.573 86.125 117.391C86.4792 117.208 86.7865 116.951 87.0469 116.617L88.0391 117.578C87.8568 117.844 87.6198 118.099 87.3281 118.344C87.0365 118.583 86.6797 118.779 86.2578 118.93C85.8411 119.081 85.3568 119.156 84.8047 119.156ZM91.5469 112.156V119H89.6641V110.547H91.4609L91.5469 112.156ZM94.1328 110.492L94.1172 112.242C94.0026 112.221 93.8776 112.206 93.7422 112.195C93.612 112.185 93.4818 112.18 93.3516 112.18C93.0286 112.18 92.7448 112.227 92.5 112.32C92.2552 112.409 92.0495 112.539 91.8828 112.711C91.7214 112.878 91.5964 113.081 91.5078 113.32C91.4193 113.56 91.3672 113.828 91.3516 114.125L90.9219 114.156C90.9219 113.625 90.974 113.133 91.0781 112.68C91.1823 112.227 91.3385 111.828 91.5469 111.484C91.7604 111.141 92.026 110.872 92.3438 110.68C92.6667 110.487 93.0391 110.391 93.4609 110.391C93.5755 110.391 93.6979 110.401 93.8281 110.422C93.9635 110.443 94.0651 110.466 94.1328 110.492ZM101.18 112.266V119H99.2969V110.547H101.07L101.18 112.266ZM100.875 114.461L100.234 114.453C100.234 113.87 100.307 113.331 100.453 112.836C100.599 112.341 100.812 111.911 101.094 111.547C101.375 111.177 101.724 110.893 102.141 110.695C102.562 110.492 103.049 110.391 103.602 110.391C103.987 110.391 104.339 110.448 104.656 110.562C104.979 110.672 105.258 110.846 105.492 111.086C105.732 111.326 105.914 111.633 106.039 112.008C106.169 112.383 106.234 112.836 106.234 113.367V119H104.352V113.531C104.352 113.12 104.289 112.797 104.164 112.562C104.044 112.328 103.87 112.161 103.641 112.062C103.417 111.958 103.148 111.906 102.836 111.906C102.482 111.906 102.18 111.974 101.93 112.109C101.685 112.245 101.484 112.43 101.328 112.664C101.172 112.898 101.057 113.169 100.984 113.477C100.911 113.784 100.875 114.112 100.875 114.461ZM106.117 113.961L105.234 114.156C105.234 113.646 105.305 113.164 105.445 112.711C105.591 112.253 105.802 111.852 106.078 111.508C106.359 111.159 106.706 110.885 107.117 110.688C107.529 110.49 108 110.391 108.531 110.391C108.964 110.391 109.349 110.451 109.688 110.57C110.031 110.685 110.323 110.867 110.562 111.117C110.802 111.367 110.984 111.693 111.109 112.094C111.234 112.49 111.297 112.969 111.297 113.531V119H109.406V113.523C109.406 113.096 109.344 112.766 109.219 112.531C109.099 112.297 108.927 112.135 108.703 112.047C108.479 111.953 108.211 111.906 107.898 111.906C107.607 111.906 107.349 111.961 107.125 112.07C106.906 112.174 106.721 112.323 106.57 112.516C106.419 112.703 106.305 112.919 106.227 113.164C106.154 113.409 106.117 113.674 106.117 113.961ZM112.875 114.867V114.688C112.875 114.078 112.964 113.513 113.141 112.992C113.318 112.466 113.573 112.01 113.906 111.625C114.245 111.234 114.656 110.932 115.141 110.719C115.63 110.5 116.182 110.391 116.797 110.391C117.417 110.391 117.969 110.5 118.453 110.719C118.943 110.932 119.357 111.234 119.695 111.625C120.034 112.01 120.292 112.466 120.469 112.992C120.646 113.513 120.734 114.078 120.734 114.688V114.867C120.734 115.477 120.646 116.042 120.469 116.562C120.292 117.083 120.034 117.539 119.695 117.93C119.357 118.315 118.945 118.617 118.461 118.836C117.977 119.049 117.427 119.156 116.812 119.156C116.193 119.156 115.638 119.049 115.148 118.836C114.664 118.617 114.253 118.315 113.914 117.93C113.576 117.539 113.318 117.083 113.141 116.562C112.964 116.042 112.875 115.477 112.875 114.867ZM114.758 114.688V114.867C114.758 115.247 114.797 115.607 114.875 115.945C114.953 116.284 115.076 116.581 115.242 116.836C115.409 117.091 115.622 117.292 115.883 117.438C116.143 117.583 116.453 117.656 116.812 117.656C117.161 117.656 117.464 117.583 117.719 117.438C117.979 117.292 118.193 117.091 118.359 116.836C118.526 116.581 118.648 116.284 118.727 115.945C118.81 115.607 118.852 115.247 118.852 114.867V114.688C118.852 114.312 118.81 113.958 118.727 113.625C118.648 113.286 118.523 112.987 118.352 112.727C118.185 112.466 117.971 112.263 117.711 112.117C117.456 111.966 117.151 111.891 116.797 111.891C116.443 111.891 116.135 111.966 115.875 112.117C115.62 112.263 115.409 112.466 115.242 112.727C115.076 112.987 114.953 113.286 114.875 113.625C114.797 113.958 114.758 114.312 114.758 114.688ZM124.18 112.352V119H122.297V110.547H124.07L124.18 112.352ZM123.844 114.461L123.234 114.453C123.24 113.854 123.323 113.305 123.484 112.805C123.651 112.305 123.88 111.875 124.172 111.516C124.469 111.156 124.823 110.88 125.234 110.688C125.646 110.49 126.104 110.391 126.609 110.391C127.016 110.391 127.383 110.448 127.711 110.562C128.044 110.672 128.328 110.852 128.562 111.102C128.802 111.352 128.984 111.677 129.109 112.078C129.234 112.474 129.297 112.961 129.297 113.539V119H127.406V113.531C127.406 113.125 127.346 112.805 127.227 112.57C127.112 112.331 126.943 112.161 126.719 112.062C126.5 111.958 126.227 111.906 125.898 111.906C125.576 111.906 125.286 111.974 125.031 112.109C124.776 112.245 124.56 112.43 124.383 112.664C124.211 112.898 124.078 113.169 123.984 113.477C123.891 113.784 123.844 114.112 123.844 114.461ZM135.094 110.547V111.922H130.328V110.547H135.094ZM131.703 108.477H133.586V116.664C133.586 116.924 133.622 117.125 133.695 117.266C133.773 117.401 133.88 117.492 134.016 117.539C134.151 117.586 134.31 117.609 134.492 117.609C134.622 117.609 134.747 117.602 134.867 117.586C134.987 117.57 135.083 117.555 135.156 117.539L135.164 118.977C135.008 119.023 134.826 119.065 134.617 119.102C134.414 119.138 134.18 119.156 133.914 119.156C133.482 119.156 133.099 119.081 132.766 118.93C132.432 118.773 132.172 118.521 131.984 118.172C131.797 117.823 131.703 117.359 131.703 116.781V108.477ZM138.406 107V119H136.531V107H138.406ZM138.078 114.461L137.469 114.453C137.474 113.87 137.555 113.331 137.711 112.836C137.872 112.341 138.096 111.911 138.383 111.547C138.674 111.177 139.023 110.893 139.43 110.695C139.836 110.492 140.286 110.391 140.781 110.391C141.198 110.391 141.573 110.448 141.906 110.562C142.245 110.677 142.536 110.862 142.781 111.117C143.026 111.367 143.211 111.695 143.336 112.102C143.466 112.503 143.531 112.992 143.531 113.57V119H141.641V113.555C141.641 113.148 141.581 112.826 141.461 112.586C141.346 112.346 141.177 112.174 140.953 112.07C140.729 111.961 140.456 111.906 140.133 111.906C139.794 111.906 139.495 111.974 139.234 112.109C138.979 112.245 138.766 112.43 138.594 112.664C138.422 112.898 138.292 113.169 138.203 113.477C138.12 113.784 138.078 114.112 138.078 114.461Z" fill="#949C9E"/>
<path d="M64.8438 138.59V138.531C64.8438 137.68 64.9395 136.91 65.1309 136.223C65.3223 135.531 65.5664 134.926 65.8633 134.406C66.1602 133.887 66.4727 133.457 66.8008 133.117C67.1289 132.773 67.4316 132.525 67.709 132.373L67.9375 133.088C67.707 133.264 67.4727 133.506 67.2344 133.814C67 134.123 66.7832 134.502 66.584 134.951C66.3887 135.4 66.2305 135.922 66.1094 136.516C65.9883 137.109 65.9277 137.777 65.9277 138.52V138.602C65.9277 139.344 65.9883 140.014 66.1094 140.611C66.2305 141.205 66.3887 141.729 66.584 142.182C66.7832 142.635 67 143.02 67.2344 143.336C67.4727 143.656 67.707 143.91 67.9375 144.098L67.709 144.754C67.4316 144.602 67.1289 144.354 66.8008 144.01C66.4727 143.67 66.1602 143.24 65.8633 142.721C65.5664 142.205 65.3223 141.602 65.1309 140.91C64.9395 140.219 64.8438 139.445 64.8438 138.59ZM69.5195 133.469H70.6152L73.4102 140.424L76.1992 133.469H77.3008L73.832 142H72.9766L69.5195 133.469ZM69.1621 133.469H70.1289L70.2871 138.672V142H69.1621V133.469ZM76.6855 133.469H77.6523V142H76.5273V138.672L76.6855 133.469ZM79.1875 138.9V138.766C79.1875 138.309 79.2539 137.885 79.3867 137.494C79.5195 137.1 79.7109 136.758 79.9609 136.469C80.2109 136.176 80.5137 135.949 80.8691 135.789C81.2246 135.625 81.623 135.543 82.0645 135.543C82.5098 135.543 82.9102 135.625 83.2656 135.789C83.625 135.949 83.9297 136.176 84.1797 136.469C84.4336 136.758 84.627 137.1 84.7598 137.494C84.8926 137.885 84.959 138.309 84.959 138.766V138.9C84.959 139.357 84.8926 139.781 84.7598 140.172C84.627 140.562 84.4336 140.904 84.1797 141.197C83.9297 141.486 83.627 141.713 83.2715 141.877C82.9199 142.037 82.5215 142.117 82.0762 142.117C81.6309 142.117 81.2305 142.037 80.875 141.877C80.5195 141.713 80.2148 141.486 79.9609 141.197C79.7109 140.904 79.5195 140.562 79.3867 140.172C79.2539 139.781 79.1875 139.357 79.1875 138.9ZM80.2715 138.766V138.9C80.2715 139.217 80.3086 139.516 80.3828 139.797C80.457 140.074 80.5684 140.32 80.7168 140.535C80.8691 140.75 81.0586 140.92 81.2852 141.045C81.5117 141.166 81.7754 141.227 82.0762 141.227C82.373 141.227 82.6328 141.166 82.8555 141.045C83.082 140.92 83.2695 140.75 83.418 140.535C83.5664 140.32 83.6777 140.074 83.752 139.797C83.8301 139.516 83.8691 139.217 83.8691 138.9V138.766C83.8691 138.453 83.8301 138.158 83.752 137.881C83.6777 137.6 83.5645 137.352 83.4121 137.137C83.2637 136.918 83.0762 136.746 82.8496 136.621C82.627 136.496 82.3652 136.434 82.0645 136.434C81.7676 136.434 81.5059 136.496 81.2793 136.621C81.0566 136.746 80.8691 136.918 80.7168 137.137C80.5684 137.352 80.457 137.6 80.3828 137.881C80.3086 138.158 80.2715 138.453 80.2715 138.766ZM87.4023 137.014V142H86.3184V135.66H87.3438L87.4023 137.014ZM87.1445 138.59L86.6934 138.572C86.6973 138.139 86.7617 137.738 86.8867 137.371C87.0117 137 87.1875 136.678 87.4141 136.404C87.6406 136.131 87.9102 135.92 88.2227 135.771C88.5391 135.619 88.8887 135.543 89.2715 135.543C89.584 135.543 89.8652 135.586 90.1152 135.672C90.3652 135.754 90.5781 135.887 90.7539 136.07C90.9336 136.254 91.0703 136.492 91.1641 136.785C91.2578 137.074 91.3047 137.428 91.3047 137.846V142H90.2148V137.834C90.2148 137.502 90.166 137.236 90.0684 137.037C89.9707 136.834 89.8281 136.688 89.6406 136.598C89.4531 136.504 89.2227 136.457 88.9492 136.457C88.6797 136.457 88.4336 136.514 88.2109 136.627C87.9922 136.74 87.8027 136.896 87.6426 137.096C87.4863 137.295 87.3633 137.523 87.2734 137.781C87.1875 138.035 87.1445 138.305 87.1445 138.59ZM95.6055 135.66V136.492H92.1777V135.66H95.6055ZM93.3379 134.119H94.4219V140.43C94.4219 140.645 94.4551 140.807 94.5215 140.916C94.5879 141.025 94.6738 141.098 94.7793 141.133C94.8848 141.168 94.998 141.186 95.1191 141.186C95.209 141.186 95.3027 141.178 95.4004 141.162C95.502 141.143 95.5781 141.127 95.6289 141.115L95.6348 142C95.5488 142.027 95.4355 142.053 95.2949 142.076C95.1582 142.104 94.9922 142.117 94.7969 142.117C94.5312 142.117 94.2871 142.064 94.0645 141.959C93.8418 141.854 93.6641 141.678 93.5312 141.432C93.4023 141.182 93.3379 140.846 93.3379 140.424V134.119ZM97.9609 133V142H96.877V133H97.9609ZM97.7031 138.59L97.252 138.572C97.2559 138.139 97.3203 137.738 97.4453 137.371C97.5703 137 97.7461 136.678 97.9727 136.404C98.1992 136.131 98.4688 135.92 98.7812 135.771C99.0977 135.619 99.4473 135.543 99.8301 135.543C100.143 135.543 100.424 135.586 100.674 135.672C100.924 135.754 101.137 135.887 101.312 136.07C101.492 136.254 101.629 136.492 101.723 136.785C101.816 137.074 101.863 137.428 101.863 137.846V142H100.773V137.834C100.773 137.502 100.725 137.236 100.627 137.037C100.529 136.834 100.387 136.688 100.199 136.598C100.012 136.504 99.7812 136.457 99.5078 136.457C99.2383 136.457 98.9922 136.514 98.7695 136.627C98.5508 136.74 98.3613 136.896 98.2012 137.096C98.0449 137.295 97.9219 137.523 97.832 137.781C97.7461 138.035 97.7031 138.305 97.7031 138.59ZM104.664 133V142H103.574V133H104.664ZM108.186 141.344L109.949 135.66H111.109L108.566 142.979C108.508 143.135 108.43 143.303 108.332 143.482C108.238 143.666 108.117 143.84 107.969 144.004C107.82 144.168 107.641 144.301 107.43 144.402C107.223 144.508 106.975 144.561 106.686 144.561C106.6 144.561 106.49 144.549 106.357 144.525C106.225 144.502 106.131 144.482 106.076 144.467L106.07 143.588C106.102 143.592 106.15 143.596 106.217 143.6C106.287 143.607 106.336 143.611 106.363 143.611C106.609 143.611 106.818 143.578 106.99 143.512C107.162 143.449 107.307 143.342 107.424 143.189C107.545 143.041 107.648 142.836 107.734 142.574L108.186 141.344ZM106.891 135.66L108.537 140.582L108.818 141.725L108.039 142.123L105.707 135.66H106.891ZM118.27 138.01H116.107L116.096 137.102H118.059C118.383 137.102 118.666 137.047 118.908 136.938C119.15 136.828 119.338 136.672 119.471 136.469C119.607 136.262 119.676 136.016 119.676 135.73C119.676 135.418 119.615 135.164 119.494 134.969C119.377 134.77 119.195 134.625 118.949 134.535C118.707 134.441 118.398 134.395 118.023 134.395H116.359V142H115.229V133.469H118.023C118.461 133.469 118.852 133.514 119.195 133.604C119.539 133.689 119.83 133.826 120.068 134.014C120.311 134.197 120.494 134.432 120.619 134.717C120.744 135.002 120.807 135.344 120.807 135.742C120.807 136.094 120.717 136.412 120.537 136.697C120.357 136.979 120.107 137.209 119.787 137.389C119.471 137.568 119.1 137.684 118.674 137.734L118.27 138.01ZM118.217 142H115.662L116.301 141.08H118.217C118.576 141.08 118.881 141.018 119.131 140.893C119.385 140.768 119.578 140.592 119.711 140.365C119.844 140.135 119.91 139.863 119.91 139.551C119.91 139.234 119.854 138.961 119.74 138.73C119.627 138.5 119.449 138.322 119.207 138.197C118.965 138.072 118.652 138.01 118.27 138.01H116.658L116.67 137.102H118.873L119.113 137.43C119.523 137.465 119.871 137.582 120.156 137.781C120.441 137.977 120.658 138.227 120.807 138.531C120.959 138.836 121.035 139.172 121.035 139.539C121.035 140.07 120.918 140.52 120.684 140.887C120.453 141.25 120.127 141.527 119.705 141.719C119.283 141.906 118.787 142 118.217 142ZM123.719 135.66V142H122.629V135.66H123.719ZM122.547 133.979C122.547 133.803 122.6 133.654 122.705 133.533C122.814 133.412 122.975 133.352 123.186 133.352C123.393 133.352 123.551 133.412 123.66 133.533C123.773 133.654 123.83 133.803 123.83 133.979C123.83 134.146 123.773 134.291 123.66 134.412C123.551 134.529 123.393 134.588 123.186 134.588C122.975 134.588 122.814 134.529 122.705 134.412C122.6 134.291 122.547 134.146 122.547 133.979ZM126.637 133V142H125.547V133H126.637ZM129.555 133V142H128.465V133H129.555ZM132.473 135.66V142H131.383V135.66H132.473ZM131.301 133.979C131.301 133.803 131.354 133.654 131.459 133.533C131.568 133.412 131.729 133.352 131.939 133.352C132.146 133.352 132.305 133.412 132.414 133.533C132.527 133.654 132.584 133.803 132.584 133.979C132.584 134.146 132.527 134.291 132.414 134.412C132.305 134.529 132.146 134.588 131.939 134.588C131.729 134.588 131.568 134.529 131.459 134.412C131.354 134.291 131.301 134.146 131.301 133.979ZM135.297 137.014V142H134.213V135.66H135.238L135.297 137.014ZM135.039 138.59L134.588 138.572C134.592 138.139 134.656 137.738 134.781 137.371C134.906 137 135.082 136.678 135.309 136.404C135.535 136.131 135.805 135.92 136.117 135.771C136.434 135.619 136.783 135.543 137.166 135.543C137.479 135.543 137.76 135.586 138.01 135.672C138.26 135.754 138.473 135.887 138.648 136.07C138.828 136.254 138.965 136.492 139.059 136.785C139.152 137.074 139.199 137.428 139.199 137.846V142H138.109V137.834C138.109 137.502 138.061 137.236 137.963 137.037C137.865 136.834 137.723 136.688 137.535 136.598C137.348 136.504 137.117 136.457 136.844 136.457C136.574 136.457 136.328 136.514 136.105 136.627C135.887 136.74 135.697 136.896 135.537 137.096C135.381 137.295 135.258 137.523 135.168 137.781C135.082 138.035 135.039 138.305 135.039 138.59ZM144.953 135.66H145.938V141.865C145.938 142.424 145.824 142.9 145.598 143.295C145.371 143.689 145.055 143.988 144.648 144.191C144.246 144.398 143.781 144.502 143.254 144.502C143.035 144.502 142.777 144.467 142.48 144.396C142.188 144.33 141.898 144.215 141.613 144.051C141.332 143.891 141.096 143.674 140.904 143.4L141.473 142.756C141.738 143.076 142.016 143.299 142.305 143.424C142.598 143.549 142.887 143.611 143.172 143.611C143.516 143.611 143.812 143.547 144.062 143.418C144.312 143.289 144.506 143.098 144.643 142.844C144.783 142.594 144.854 142.285 144.854 141.918V137.055L144.953 135.66ZM140.588 138.9V138.777C140.588 138.293 140.645 137.854 140.758 137.459C140.875 137.061 141.041 136.719 141.256 136.434C141.475 136.148 141.738 135.93 142.047 135.777C142.355 135.621 142.703 135.543 143.09 135.543C143.488 135.543 143.836 135.613 144.133 135.754C144.434 135.891 144.688 136.092 144.895 136.357C145.105 136.619 145.271 136.936 145.393 137.307C145.514 137.678 145.598 138.098 145.645 138.566V139.105C145.602 139.57 145.518 139.988 145.393 140.359C145.271 140.73 145.105 141.047 144.895 141.309C144.688 141.57 144.434 141.771 144.133 141.912C143.832 142.049 143.48 142.117 143.078 142.117C142.699 142.117 142.355 142.037 142.047 141.877C141.742 141.717 141.48 141.492 141.262 141.203C141.043 140.914 140.875 140.574 140.758 140.184C140.645 139.789 140.588 139.361 140.588 138.9ZM141.672 138.777V138.9C141.672 139.217 141.703 139.514 141.766 139.791C141.832 140.068 141.932 140.312 142.064 140.523C142.201 140.734 142.375 140.9 142.586 141.021C142.797 141.139 143.049 141.197 143.342 141.197C143.701 141.197 143.998 141.121 144.232 140.969C144.467 140.816 144.652 140.615 144.789 140.365C144.93 140.115 145.039 139.844 145.117 139.551V138.139C145.074 137.924 145.008 137.717 144.918 137.518C144.832 137.314 144.719 137.135 144.578 136.979C144.441 136.818 144.271 136.691 144.068 136.598C143.865 136.504 143.627 136.457 143.354 136.457C143.057 136.457 142.801 136.52 142.586 136.645C142.375 136.766 142.201 136.934 142.064 137.148C141.932 137.359 141.832 137.605 141.766 137.887C141.703 138.164 141.672 138.461 141.672 138.777ZM150.08 138.531V138.59C150.08 139.445 149.984 140.219 149.793 140.91C149.602 141.602 149.357 142.205 149.061 142.721C148.764 143.24 148.451 143.67 148.123 144.01C147.795 144.354 147.492 144.602 147.215 144.754L146.986 144.098C147.217 143.922 147.449 143.676 147.684 143.359C147.918 143.047 148.135 142.66 148.334 142.199C148.533 141.742 148.693 141.215 148.814 140.617C148.936 140.016 148.996 139.344 148.996 138.602V138.52C148.996 137.777 148.932 137.107 148.803 136.51C148.674 135.908 148.506 135.379 148.299 134.922C148.096 134.465 147.877 134.08 147.643 133.768C147.412 133.451 147.193 133.207 146.986 133.035L147.215 132.373C147.492 132.525 147.795 132.773 148.123 133.117C148.451 133.457 148.764 133.887 149.061 134.406C149.357 134.926 149.602 135.531 149.793 136.223C149.984 136.91 150.08 137.68 150.08 138.531Z" fill="#655B5B"/>
</g>
<defs>
<filter id="filter0_dd_1_811" x="0" y="0" width="215" height="217" filterUnits="userSpaceOnUse" color-interpolation-filters="sRGB">
<feFlood flood-opacity="0" result="BackgroundImageFix"/>
<feColorMatrix in="SourceAlpha" type="matrix" values="0 0 0 0 0 0 0 0 0 0 0 0 0 0 0 0 0 0 127 0" result="hardAlpha"/>
<feOffset dx="-4" dy="-4"/>
<feGaussianBlur stdDeviation="20"/>
<feComposite in2="hardAlpha" operator="out"/>
<feColorMatrix type="matrix" values="0 0 0 0 0 0 0 0 0 0 0 0 0 0 0 0 0 0 0.05 0"/>
<feBlend mode="normal" in2="BackgroundImageFix" result="effect1_dropShadow_1_811"/>
<feColorMatrix in="SourceAlpha" type="matrix" values="0 0 0 0 0 0 0 0 0 0 0 0 0 0 0 0 0 0 127 0" result="hardAlpha"/>
<feOffset dx="4" dy="4"/>
<feGaussianBlur stdDeviation="20"/>
<feComposite in2="hardAlpha" operator="out"/>
<feColorMatrix type="matrix" values="0 0 0 0 0 0 0 0 0 0 0 0 0 0 0 0 0 0 0.05 0"/>
<feBlend mode="normal" in2="effect1_dropShadow_1_811" result="effect2_dropShadow_1_811"/>
<feBlend mode="normal" in="SourceGraphic" in2="effect2_dropShadow_1_811" result="shape"/>
</filter>
</defs>
</svg>
