<svg width="215" height="217" viewBox="0 0 215 217" fill="none" xmlns="http://www.w3.org/2000/svg">
<g filter="url(#filter0_dd_1_806)">
<rect x="44" y="44" width="127" height="129" rx="6" fill="white" shape-rendering="crispEdges"/>
<path d="M101.645 66.2188V69.6992H99.8281V66.2188H101.645ZM101.422 85.3555V88.4961H99.6172V85.3555H101.422ZM102.945 81.5352C102.945 81.0898 102.859 80.7031 102.688 80.375C102.523 80.0469 102.246 79.7539 101.855 79.4961C101.473 79.2383 100.957 78.9922 100.309 78.7578C99.3008 78.3906 98.418 77.9883 97.6602 77.5508C96.9023 77.1055 96.3125 76.5547 95.8906 75.8984C95.4766 75.2422 95.2695 74.4141 95.2695 73.4141C95.2695 72.4531 95.4922 71.6211 95.9375 70.918C96.3906 70.207 97.0195 69.6602 97.8242 69.2773C98.6289 68.8867 99.5625 68.6914 100.625 68.6914C101.453 68.6914 102.195 68.8164 102.852 69.0664C103.516 69.3086 104.082 69.6641 104.551 70.1328C105.027 70.6016 105.391 71.1797 105.641 71.8672C105.898 72.5469 106.027 73.3242 106.027 74.1992H102.934C102.934 73.7148 102.879 73.2852 102.77 72.9102C102.66 72.5352 102.504 72.2188 102.301 71.9609C102.098 71.6953 101.852 71.4961 101.562 71.3633C101.281 71.2305 100.961 71.1641 100.602 71.1641C100.086 71.1641 99.6602 71.2617 99.3242 71.457C98.9961 71.6523 98.7539 71.918 98.5977 72.2539C98.4492 72.5898 98.375 72.9766 98.375 73.4141C98.375 73.8359 98.4531 74.207 98.6094 74.5273C98.7734 74.8398 99.0469 75.125 99.4297 75.3828C99.8203 75.6406 100.355 75.9023 101.035 76.168C102.051 76.543 102.934 76.957 103.684 77.4102C104.434 77.8555 105.016 78.4023 105.43 79.0508C105.844 79.6992 106.051 80.5195 106.051 81.5117C106.051 82.5273 105.816 83.3867 105.348 84.0898C104.887 84.793 104.238 85.3281 103.402 85.6953C102.566 86.0625 101.594 86.2461 100.484 86.2461C99.7734 86.2461 99.0703 86.1523 98.375 85.9648C97.6797 85.7773 97.0469 85.4727 96.4766 85.0508C95.9141 84.6211 95.4648 84.0547 95.1289 83.3516C94.793 82.6406 94.625 81.7695 94.625 80.7383H97.7305C97.7305 81.332 97.8086 81.8242 97.9648 82.2148C98.1211 82.6055 98.332 82.918 98.5977 83.1523C98.8633 83.3789 99.1602 83.5391 99.4883 83.6328C99.8164 83.7266 100.148 83.7734 100.484 83.7734C101.031 83.7734 101.484 83.6797 101.844 83.4922C102.211 83.3047 102.484 83.043 102.664 82.707C102.852 82.3633 102.945 81.9727 102.945 81.5352ZM119.738 76.0039V78.875C119.738 80.1875 119.605 81.3086 119.34 82.2383C119.074 83.168 118.691 83.9297 118.191 84.5234C117.691 85.1094 117.094 85.543 116.398 85.8242C115.703 86.0977 114.93 86.2344 114.078 86.2344C113.398 86.2344 112.766 86.1484 112.18 85.9766C111.594 85.7969 111.066 85.5234 110.598 85.1562C110.137 84.7812 109.738 84.3047 109.402 83.7266C109.074 83.1484 108.82 82.457 108.641 81.6523C108.469 80.8477 108.383 79.9219 108.383 78.875V76.0039C108.383 74.6914 108.516 73.5742 108.781 72.6523C109.055 71.7305 109.441 70.9766 109.941 70.3906C110.441 69.8047 111.039 69.3789 111.734 69.1133C112.43 68.8398 113.203 68.7031 114.055 68.7031C114.742 68.7031 115.375 68.7891 115.953 68.9609C116.539 69.1328 117.062 69.4023 117.523 69.7695C117.992 70.1289 118.391 70.5977 118.719 71.1758C119.047 71.7461 119.297 72.4336 119.469 73.2383C119.648 74.0352 119.738 74.957 119.738 76.0039ZM116.645 79.2969V75.5703C116.645 74.9141 116.605 74.3438 116.527 73.8594C116.457 73.3672 116.352 72.9492 116.211 72.6055C116.07 72.2617 115.895 71.9844 115.684 71.7734C115.473 71.5547 115.23 71.3945 114.957 71.293C114.684 71.1914 114.383 71.1406 114.055 71.1406C113.648 71.1406 113.285 71.2227 112.965 71.3867C112.645 71.543 112.375 71.793 112.156 72.1367C111.938 72.4805 111.77 72.9375 111.652 73.5078C111.543 74.0703 111.488 74.7578 111.488 75.5703V79.2969C111.488 79.9531 111.523 80.5273 111.594 81.0195C111.672 81.5117 111.781 81.9336 111.922 82.2852C112.07 82.6367 112.246 82.9258 112.449 83.1523C112.66 83.3711 112.902 83.5352 113.176 83.6445C113.449 83.7461 113.75 83.7969 114.078 83.7969C114.492 83.7969 114.855 83.7148 115.168 83.5508C115.488 83.3867 115.758 83.1289 115.977 82.7773C116.195 82.418 116.359 81.9531 116.469 81.3828C116.586 80.8047 116.645 80.1094 116.645 79.2969Z" fill="#323238"/>
<path d="M94.6172 107.625V119H92.6562V107.625H94.6172ZM99.2578 112.602V114.156H94.1172V112.602H99.2578ZM99.9062 107.625V109.188H94.1172V107.625H99.9062ZM102.969 112.156V119H101.086V110.547H102.883L102.969 112.156ZM105.555 110.492L105.539 112.242C105.424 112.221 105.299 112.206 105.164 112.195C105.034 112.185 104.904 112.18 104.773 112.18C104.451 112.18 104.167 112.227 103.922 112.32C103.677 112.409 103.471 112.539 103.305 112.711C103.143 112.878 103.018 113.081 102.93 113.32C102.841 113.56 102.789 113.828 102.773 114.125L102.344 114.156C102.344 113.625 102.396 113.133 102.5 112.68C102.604 112.227 102.76 111.828 102.969 111.484C103.182 111.141 103.448 110.872 103.766 110.68C104.089 110.487 104.461 110.391 104.883 110.391C104.997 110.391 105.12 110.401 105.25 110.422C105.385 110.443 105.487 110.466 105.555 110.492ZM110.305 119.156C109.68 119.156 109.115 119.055 108.609 118.852C108.109 118.643 107.682 118.354 107.328 117.984C106.979 117.615 106.711 117.18 106.523 116.68C106.336 116.18 106.242 115.641 106.242 115.062V114.75C106.242 114.089 106.339 113.49 106.531 112.953C106.724 112.417 106.992 111.958 107.336 111.578C107.68 111.193 108.086 110.898 108.555 110.695C109.023 110.492 109.531 110.391 110.078 110.391C110.682 110.391 111.211 110.492 111.664 110.695C112.117 110.898 112.492 111.185 112.789 111.555C113.091 111.919 113.315 112.354 113.461 112.859C113.612 113.365 113.688 113.922 113.688 114.531V115.336H107.156V113.984H111.828V113.836C111.818 113.497 111.75 113.18 111.625 112.883C111.505 112.586 111.32 112.346 111.07 112.164C110.82 111.982 110.487 111.891 110.07 111.891C109.758 111.891 109.479 111.958 109.234 112.094C108.995 112.224 108.794 112.414 108.633 112.664C108.471 112.914 108.346 113.216 108.258 113.57C108.174 113.919 108.133 114.312 108.133 114.75V115.062C108.133 115.432 108.182 115.776 108.281 116.094C108.385 116.406 108.536 116.68 108.734 116.914C108.932 117.148 109.172 117.333 109.453 117.469C109.734 117.599 110.055 117.664 110.414 117.664C110.867 117.664 111.271 117.573 111.625 117.391C111.979 117.208 112.286 116.951 112.547 116.617L113.539 117.578C113.357 117.844 113.12 118.099 112.828 118.344C112.536 118.583 112.18 118.779 111.758 118.93C111.341 119.081 110.857 119.156 110.305 119.156ZM118.883 119.156C118.258 119.156 117.693 119.055 117.188 118.852C116.688 118.643 116.26 118.354 115.906 117.984C115.557 117.615 115.289 117.18 115.102 116.68C114.914 116.18 114.82 115.641 114.82 115.062V114.75C114.82 114.089 114.917 113.49 115.109 112.953C115.302 112.417 115.57 111.958 115.914 111.578C116.258 111.193 116.664 110.898 117.133 110.695C117.602 110.492 118.109 110.391 118.656 110.391C119.26 110.391 119.789 110.492 120.242 110.695C120.695 110.898 121.07 111.185 121.367 111.555C121.669 111.919 121.893 112.354 122.039 112.859C122.19 113.365 122.266 113.922 122.266 114.531V115.336H115.734V113.984H120.406V113.836C120.396 113.497 120.328 113.18 120.203 112.883C120.083 112.586 119.898 112.346 119.648 112.164C119.398 111.982 119.065 111.891 118.648 111.891C118.336 111.891 118.057 111.958 117.812 112.094C117.573 112.224 117.372 112.414 117.211 112.664C117.049 112.914 116.924 113.216 116.836 113.57C116.753 113.919 116.711 114.312 116.711 114.75V115.062C116.711 115.432 116.76 115.776 116.859 116.094C116.964 116.406 117.115 116.68 117.312 116.914C117.51 117.148 117.75 117.333 118.031 117.469C118.312 117.599 118.633 117.664 118.992 117.664C119.445 117.664 119.849 117.573 120.203 117.391C120.557 117.208 120.865 116.951 121.125 116.617L122.117 117.578C121.935 117.844 121.698 118.099 121.406 118.344C121.115 118.583 120.758 118.779 120.336 118.93C119.919 119.081 119.435 119.156 118.883 119.156Z" fill="#949C9E"/>
<path d="M73.1582 138.59V138.531C73.1582 137.68 73.2539 136.91 73.4453 136.223C73.6367 135.531 73.8809 134.926 74.1777 134.406C74.4746 133.887 74.7871 133.457 75.1152 133.117C75.4434 132.773 75.7461 132.525 76.0234 132.373L76.252 133.088C76.0215 133.264 75.7871 133.506 75.5488 133.814C75.3145 134.123 75.0977 134.502 74.8984 134.951C74.7031 135.4 74.5449 135.922 74.4238 136.516C74.3027 137.109 74.2422 137.777 74.2422 138.52V138.602C74.2422 139.344 74.3027 140.014 74.4238 140.611C74.5449 141.205 74.7031 141.729 74.8984 142.182C75.0977 142.635 75.3145 143.02 75.5488 143.336C75.7871 143.656 76.0215 143.91 76.252 144.098L76.0234 144.754C75.7461 144.602 75.4434 144.354 75.1152 144.01C74.7871 143.67 74.4746 143.24 74.1777 142.721C73.8809 142.205 73.6367 141.602 73.4453 140.91C73.2539 140.219 73.1582 139.445 73.1582 138.59ZM78.6074 133.469V142H77.4766V133.469H78.6074ZM82.1816 137.307V138.232H78.3613V137.307H82.1816ZM82.7617 133.469V134.395H78.3613V133.469H82.7617ZM83.5293 138.9V138.766C83.5293 138.309 83.5957 137.885 83.7285 137.494C83.8613 137.1 84.0527 136.758 84.3027 136.469C84.5527 136.176 84.8555 135.949 85.2109 135.789C85.5664 135.625 85.9648 135.543 86.4062 135.543C86.8516 135.543 87.252 135.625 87.6074 135.789C87.9668 135.949 88.2715 136.176 88.5215 136.469C88.7754 136.758 88.9688 137.1 89.1016 137.494C89.2344 137.885 89.3008 138.309 89.3008 138.766V138.9C89.3008 139.357 89.2344 139.781 89.1016 140.172C88.9688 140.562 88.7754 140.904 88.5215 141.197C88.2715 141.486 87.9688 141.713 87.6133 141.877C87.2617 142.037 86.8633 142.117 86.418 142.117C85.9727 142.117 85.5723 142.037 85.2168 141.877C84.8613 141.713 84.5566 141.486 84.3027 141.197C84.0527 140.904 83.8613 140.562 83.7285 140.172C83.5957 139.781 83.5293 139.357 83.5293 138.9ZM84.6133 138.766V138.9C84.6133 139.217 84.6504 139.516 84.7246 139.797C84.7988 140.074 84.9102 140.32 85.0586 140.535C85.2109 140.75 85.4004 140.92 85.627 141.045C85.8535 141.166 86.1172 141.227 86.418 141.227C86.7148 141.227 86.9746 141.166 87.1973 141.045C87.4238 140.92 87.6113 140.75 87.7598 140.535C87.9082 140.32 88.0195 140.074 88.0938 139.797C88.1719 139.516 88.2109 139.217 88.2109 138.9V138.766C88.2109 138.453 88.1719 138.158 88.0938 137.881C88.0195 137.6 87.9062 137.352 87.7539 137.137C87.6055 136.918 87.418 136.746 87.1914 136.621C86.9688 136.496 86.707 136.434 86.4062 136.434C86.1094 136.434 85.8477 136.496 85.6211 136.621C85.3984 136.746 85.2109 136.918 85.0586 137.137C84.9102 137.352 84.7988 137.6 84.7246 137.881C84.6504 138.158 84.6133 138.453 84.6133 138.766ZM91.7441 136.656V142H90.6602V135.66H91.7148L91.7441 136.656ZM93.7246 135.625L93.7188 136.633C93.6289 136.613 93.543 136.602 93.4609 136.598C93.3828 136.59 93.293 136.586 93.1914 136.586C92.9414 136.586 92.7207 136.625 92.5293 136.703C92.3379 136.781 92.1758 136.891 92.043 137.031C91.9102 137.172 91.8047 137.34 91.7266 137.535C91.6523 137.727 91.6035 137.938 91.5801 138.168L91.2754 138.344C91.2754 137.961 91.3125 137.602 91.3867 137.266C91.4648 136.93 91.584 136.633 91.7441 136.375C91.9043 136.113 92.1074 135.91 92.3535 135.766C92.6035 135.617 92.9004 135.543 93.2441 135.543C93.3223 135.543 93.4121 135.553 93.5137 135.572C93.6152 135.588 93.6855 135.605 93.7246 135.625ZM99.168 137.201H99.9414C100.32 137.201 100.633 137.139 100.879 137.014C101.129 136.885 101.314 136.711 101.436 136.492C101.561 136.27 101.623 136.02 101.623 135.742C101.623 135.414 101.568 135.139 101.459 134.916C101.35 134.693 101.186 134.525 100.967 134.412C100.748 134.299 100.471 134.242 100.135 134.242C99.8301 134.242 99.5605 134.303 99.3262 134.424C99.0957 134.541 98.9141 134.709 98.7812 134.928C98.6523 135.146 98.5879 135.404 98.5879 135.701H97.5039C97.5039 135.268 97.6133 134.873 97.832 134.518C98.0508 134.162 98.3574 133.879 98.752 133.668C99.1504 133.457 99.6113 133.352 100.135 133.352C100.65 133.352 101.102 133.443 101.488 133.627C101.875 133.807 102.176 134.076 102.391 134.436C102.605 134.791 102.713 135.234 102.713 135.766C102.713 135.98 102.662 136.211 102.561 136.457C102.463 136.699 102.309 136.926 102.098 137.137C101.891 137.348 101.621 137.521 101.289 137.658C100.957 137.791 100.559 137.857 100.094 137.857H99.168V137.201ZM99.168 138.092V137.441H100.094C100.637 137.441 101.086 137.506 101.441 137.635C101.797 137.764 102.076 137.936 102.279 138.15C102.486 138.365 102.631 138.602 102.713 138.859C102.799 139.113 102.842 139.367 102.842 139.621C102.842 140.02 102.773 140.373 102.637 140.682C102.504 140.99 102.314 141.252 102.068 141.467C101.826 141.682 101.541 141.844 101.213 141.953C100.885 142.062 100.527 142.117 100.141 142.117C99.7695 142.117 99.4199 142.064 99.0918 141.959C98.7676 141.854 98.4805 141.701 98.2305 141.502C97.9805 141.299 97.7852 141.051 97.6445 140.758C97.5039 140.461 97.4336 140.123 97.4336 139.744H98.5176C98.5176 140.041 98.582 140.301 98.7109 140.523C98.8438 140.746 99.0312 140.92 99.2734 141.045C99.5195 141.166 99.8086 141.227 100.141 141.227C100.473 141.227 100.758 141.17 100.996 141.057C101.238 140.939 101.424 140.764 101.553 140.529C101.686 140.295 101.752 140 101.752 139.645C101.752 139.289 101.678 138.998 101.529 138.771C101.381 138.541 101.17 138.371 100.896 138.262C100.627 138.148 100.309 138.092 99.9414 138.092H99.168ZM109.691 137.055V138.355C109.691 139.055 109.629 139.645 109.504 140.125C109.379 140.605 109.199 140.992 108.965 141.285C108.73 141.578 108.447 141.791 108.115 141.924C107.787 142.053 107.416 142.117 107.002 142.117C106.674 142.117 106.371 142.076 106.094 141.994C105.816 141.912 105.566 141.781 105.344 141.602C105.125 141.418 104.938 141.18 104.781 140.887C104.625 140.594 104.506 140.238 104.424 139.82C104.342 139.402 104.301 138.914 104.301 138.355V137.055C104.301 136.355 104.363 135.77 104.488 135.297C104.617 134.824 104.799 134.445 105.033 134.16C105.268 133.871 105.549 133.664 105.877 133.539C106.209 133.414 106.58 133.352 106.99 133.352C107.322 133.352 107.627 133.393 107.904 133.475C108.186 133.553 108.436 133.68 108.654 133.855C108.873 134.027 109.059 134.258 109.211 134.547C109.367 134.832 109.486 135.182 109.568 135.596C109.65 136.01 109.691 136.496 109.691 137.055ZM108.602 138.531V136.873C108.602 136.49 108.578 136.154 108.531 135.865C108.488 135.572 108.424 135.322 108.338 135.115C108.252 134.908 108.143 134.74 108.01 134.611C107.881 134.482 107.73 134.389 107.559 134.33C107.391 134.268 107.201 134.236 106.99 134.236C106.732 134.236 106.504 134.285 106.305 134.383C106.105 134.477 105.938 134.627 105.801 134.834C105.668 135.041 105.566 135.312 105.496 135.648C105.426 135.984 105.391 136.393 105.391 136.873V138.531C105.391 138.914 105.412 139.252 105.455 139.545C105.502 139.838 105.57 140.092 105.66 140.307C105.75 140.518 105.859 140.691 105.988 140.828C106.117 140.965 106.266 141.066 106.434 141.133C106.605 141.195 106.795 141.227 107.002 141.227C107.268 141.227 107.5 141.176 107.699 141.074C107.898 140.973 108.064 140.814 108.197 140.6C108.334 140.381 108.436 140.102 108.502 139.762C108.568 139.418 108.602 139.008 108.602 138.531ZM118.176 140.77V133H119.266V142H118.27L118.176 140.77ZM113.91 138.9V138.777C113.91 138.293 113.969 137.854 114.086 137.459C114.207 137.061 114.377 136.719 114.596 136.434C114.818 136.148 115.082 135.93 115.387 135.777C115.695 135.621 116.039 135.543 116.418 135.543C116.816 135.543 117.164 135.613 117.461 135.754C117.762 135.891 118.016 136.092 118.223 136.357C118.434 136.619 118.6 136.936 118.721 137.307C118.842 137.678 118.926 138.098 118.973 138.566V139.105C118.93 139.57 118.846 139.988 118.721 140.359C118.6 140.73 118.434 141.047 118.223 141.309C118.016 141.57 117.762 141.771 117.461 141.912C117.16 142.049 116.809 142.117 116.406 142.117C116.035 142.117 115.695 142.037 115.387 141.877C115.082 141.717 114.818 141.492 114.596 141.203C114.377 140.914 114.207 140.574 114.086 140.184C113.969 139.789 113.91 139.361 113.91 138.9ZM115 138.777V138.9C115 139.217 115.031 139.514 115.094 139.791C115.16 140.068 115.262 140.312 115.398 140.523C115.535 140.734 115.709 140.9 115.92 141.021C116.131 141.139 116.383 141.197 116.676 141.197C117.035 141.197 117.33 141.121 117.561 140.969C117.795 140.816 117.982 140.615 118.123 140.365C118.264 140.115 118.373 139.844 118.451 139.551V138.139C118.404 137.924 118.336 137.717 118.246 137.518C118.16 137.314 118.047 137.135 117.906 136.979C117.77 136.818 117.6 136.691 117.396 136.598C117.197 136.504 116.961 136.457 116.688 136.457C116.391 136.457 116.135 136.52 115.92 136.645C115.709 136.766 115.535 136.934 115.398 137.148C115.262 137.359 115.16 137.605 115.094 137.887C115.031 138.164 115 138.461 115 138.777ZM124.691 140.916V137.652C124.691 137.402 124.641 137.186 124.539 137.002C124.441 136.814 124.293 136.67 124.094 136.568C123.895 136.467 123.648 136.416 123.355 136.416C123.082 136.416 122.842 136.463 122.635 136.557C122.432 136.65 122.271 136.773 122.154 136.926C122.041 137.078 121.984 137.242 121.984 137.418H120.9C120.9 137.191 120.959 136.967 121.076 136.744C121.193 136.521 121.361 136.32 121.58 136.141C121.803 135.957 122.068 135.812 122.377 135.707C122.689 135.598 123.037 135.543 123.42 135.543C123.881 135.543 124.287 135.621 124.639 135.777C124.994 135.934 125.271 136.17 125.471 136.486C125.674 136.799 125.775 137.191 125.775 137.664V140.617C125.775 140.828 125.793 141.053 125.828 141.291C125.867 141.529 125.924 141.734 125.998 141.906V142H124.867C124.812 141.875 124.77 141.709 124.738 141.502C124.707 141.291 124.691 141.096 124.691 140.916ZM124.879 138.156L124.891 138.918H123.795C123.486 138.918 123.211 138.943 122.969 138.994C122.727 139.041 122.523 139.113 122.359 139.211C122.195 139.309 122.07 139.432 121.984 139.58C121.898 139.725 121.855 139.895 121.855 140.09C121.855 140.289 121.9 140.471 121.99 140.635C122.08 140.799 122.215 140.93 122.395 141.027C122.578 141.121 122.803 141.168 123.068 141.168C123.4 141.168 123.693 141.098 123.947 140.957C124.201 140.816 124.402 140.645 124.551 140.441C124.703 140.238 124.785 140.041 124.797 139.85L125.26 140.371C125.232 140.535 125.158 140.717 125.037 140.916C124.916 141.115 124.754 141.307 124.551 141.49C124.352 141.67 124.113 141.82 123.836 141.941C123.562 142.059 123.254 142.117 122.91 142.117C122.48 142.117 122.104 142.033 121.779 141.865C121.459 141.697 121.209 141.473 121.029 141.191C120.854 140.906 120.766 140.588 120.766 140.236C120.766 139.896 120.832 139.598 120.965 139.34C121.098 139.078 121.289 138.861 121.539 138.689C121.789 138.514 122.09 138.381 122.441 138.291C122.793 138.201 123.186 138.156 123.619 138.156H124.879ZM129.168 141.344L130.932 135.66H132.092L129.549 142.979C129.49 143.135 129.412 143.303 129.314 143.482C129.221 143.666 129.1 143.84 128.951 144.004C128.803 144.168 128.623 144.301 128.412 144.402C128.205 144.508 127.957 144.561 127.668 144.561C127.582 144.561 127.473 144.549 127.34 144.525C127.207 144.502 127.113 144.482 127.059 144.467L127.053 143.588C127.084 143.592 127.133 143.596 127.199 143.6C127.27 143.607 127.318 143.611 127.346 143.611C127.592 143.611 127.801 143.578 127.973 143.512C128.145 143.449 128.289 143.342 128.406 143.189C128.527 143.041 128.631 142.836 128.717 142.574L129.168 141.344ZM127.873 135.66L129.52 140.582L129.801 141.725L129.021 142.123L126.689 135.66H127.873ZM136.762 140.318C136.762 140.162 136.727 140.018 136.656 139.885C136.59 139.748 136.451 139.625 136.24 139.516C136.033 139.402 135.721 139.305 135.303 139.223C134.951 139.148 134.633 139.061 134.348 138.959C134.066 138.857 133.826 138.734 133.627 138.59C133.432 138.445 133.281 138.275 133.176 138.08C133.07 137.885 133.018 137.656 133.018 137.395C133.018 137.145 133.072 136.908 133.182 136.686C133.295 136.463 133.453 136.266 133.656 136.094C133.863 135.922 134.111 135.787 134.4 135.689C134.689 135.592 135.012 135.543 135.367 135.543C135.875 135.543 136.309 135.633 136.668 135.812C137.027 135.992 137.303 136.232 137.494 136.533C137.686 136.83 137.781 137.16 137.781 137.523H136.697C136.697 137.348 136.645 137.178 136.539 137.014C136.438 136.846 136.287 136.707 136.088 136.598C135.893 136.488 135.652 136.434 135.367 136.434C135.066 136.434 134.822 136.48 134.635 136.574C134.451 136.664 134.316 136.779 134.23 136.92C134.148 137.061 134.107 137.209 134.107 137.365C134.107 137.482 134.127 137.588 134.166 137.682C134.209 137.771 134.283 137.855 134.389 137.934C134.494 138.008 134.643 138.078 134.834 138.145C135.025 138.211 135.27 138.277 135.566 138.344C136.086 138.461 136.514 138.602 136.85 138.766C137.186 138.93 137.436 139.131 137.6 139.369C137.764 139.607 137.846 139.896 137.846 140.236C137.846 140.514 137.787 140.768 137.67 140.998C137.557 141.229 137.391 141.428 137.172 141.596C136.957 141.76 136.699 141.889 136.398 141.982C136.102 142.072 135.768 142.117 135.396 142.117C134.838 142.117 134.365 142.018 133.979 141.818C133.592 141.619 133.299 141.361 133.1 141.045C132.9 140.729 132.801 140.395 132.801 140.043H133.891C133.906 140.34 133.992 140.576 134.148 140.752C134.305 140.924 134.496 141.047 134.723 141.121C134.949 141.191 135.174 141.227 135.396 141.227C135.693 141.227 135.941 141.188 136.141 141.109C136.344 141.031 136.498 140.924 136.604 140.787C136.709 140.65 136.762 140.494 136.762 140.318ZM141.766 138.531V138.59C141.766 139.445 141.67 140.219 141.479 140.91C141.287 141.602 141.043 142.205 140.746 142.721C140.449 143.24 140.137 143.67 139.809 144.01C139.48 144.354 139.178 144.602 138.9 144.754L138.672 144.098C138.902 143.922 139.135 143.676 139.369 143.359C139.604 143.047 139.82 142.66 140.02 142.199C140.219 141.742 140.379 141.215 140.5 140.617C140.621 140.016 140.682 139.344 140.682 138.602V138.52C140.682 137.777 140.617 137.107 140.488 136.51C140.359 135.908 140.191 135.379 139.984 134.922C139.781 134.465 139.562 134.08 139.328 133.768C139.098 133.451 138.879 133.207 138.672 133.035L138.9 132.373C139.178 132.525 139.48 132.773 139.809 133.117C140.137 133.457 140.449 133.887 140.746 134.406C141.043 134.926 141.287 135.531 141.479 136.223C141.67 136.91 141.766 137.68 141.766 138.531Z" fill="#655B5B"/>
</g>
<defs>
<filter id="filter0_dd_1_806" x="0" y="0" width="215" height="217" filterUnits="userSpaceOnUse" color-interpolation-filters="sRGB">
<feFlood flood-opacity="0" result="BackgroundImageFix"/>
<feColorMatrix in="SourceAlpha" type="matrix" values="0 0 0 0 0 0 0 0 0 0 0 0 0 0 0 0 0 0 127 0" result="hardAlpha"/>
<feOffset dx="-4" dy="-4"/>
<feGaussianBlur stdDeviation="20"/>
<feComposite in2="hardAlpha" operator="out"/>
<feColorMatrix type="matrix" values="0 0 0 0 0 0 0 0 0 0 0 0 0 0 0 0 0 0 0.05 0"/>
<feBlend mode="normal" in2="BackgroundImageFix" result="effect1_dropShadow_1_806"/>
<feColorMatrix in="SourceAlpha" type="matrix" values="0 0 0 0 0 0 0 0 0 0 0 0 0 0 0 0 0 0 127 0" result="hardAlpha"/>
<feOffset dx="4" dy="4"/>
<feGaussianBlur stdDeviation="20"/>
<feComposite in2="hardAlpha" operator="out"/>
<feColorMatrix type="matrix" values="0 0 0 0 0 0 0 0 0 0 0 0 0 0 0 0 0 0 0.05 0"/>
<feBlend mode="normal" in2="effect1_dropShadow_1_806" result="effect2_dropShadow_1_806"/>
<feBlend mode="normal" in="SourceGraphic" in2="effect2_dropShadow_1_806" result="shape"/>
</filter>
</defs>
</svg>
