<svg width="215" height="217" viewBox="0 0 215 217" fill="none" xmlns="http://www.w3.org/2000/svg">
<g filter="url(#filter0_dd_1_816)">
<rect x="44" y="44" width="127" height="129" rx="6" fill="white" shape-rendering="crispEdges"/>
<path d="M84.6445 66.2188V69.6992H82.8281V66.2188H84.6445ZM84.4219 85.3555V88.4961H82.6172V85.3555H84.4219ZM85.9453 81.5352C85.9453 81.0898 85.8594 80.7031 85.6875 80.375C85.5234 80.0469 85.2461 79.7539 84.8555 79.4961C84.4727 79.2383 83.957 78.9922 83.3086 78.7578C82.3008 78.3906 81.418 77.9883 80.6602 77.5508C79.9023 77.1055 79.3125 76.5547 78.8906 75.8984C78.4766 75.2422 78.2695 74.4141 78.2695 73.4141C78.2695 72.4531 78.4922 71.6211 78.9375 70.918C79.3906 70.207 80.0195 69.6602 80.8242 69.2773C81.6289 68.8867 82.5625 68.6914 83.625 68.6914C84.4531 68.6914 85.1953 68.8164 85.8516 69.0664C86.5156 69.3086 87.082 69.6641 87.5508 70.1328C88.0273 70.6016 88.3906 71.1797 88.6406 71.8672C88.8984 72.5469 89.0273 73.3242 89.0273 74.1992H85.9336C85.9336 73.7148 85.8789 73.2852 85.7695 72.9102C85.6602 72.5352 85.5039 72.2188 85.3008 71.9609C85.0977 71.6953 84.8516 71.4961 84.5625 71.3633C84.2812 71.2305 83.9609 71.1641 83.6016 71.1641C83.0859 71.1641 82.6602 71.2617 82.3242 71.457C81.9961 71.6523 81.7539 71.918 81.5977 72.2539C81.4492 72.5898 81.375 72.9766 81.375 73.4141C81.375 73.8359 81.4531 74.207 81.6094 74.5273C81.7734 74.8398 82.0469 75.125 82.4297 75.3828C82.8203 75.6406 83.3555 75.9023 84.0352 76.168C85.0508 76.543 85.9336 76.957 86.6836 77.4102C87.4336 77.8555 88.0156 78.4023 88.4297 79.0508C88.8438 79.6992 89.0508 80.5195 89.0508 81.5117C89.0508 82.5273 88.8164 83.3867 88.3477 84.0898C87.8867 84.793 87.2383 85.3281 86.4023 85.6953C85.5664 86.0625 84.5938 86.2461 83.4844 86.2461C82.7734 86.2461 82.0703 86.1523 81.375 85.9648C80.6797 85.7773 80.0469 85.4727 79.4766 85.0508C78.9141 84.6211 78.4648 84.0547 78.1289 83.3516C77.793 82.6406 77.625 81.7695 77.625 80.7383H80.7305C80.7305 81.332 80.8086 81.8242 80.9648 82.2148C81.1211 82.6055 81.332 82.918 81.5977 83.1523C81.8633 83.3789 82.1602 83.5391 82.4883 83.6328C82.8164 83.7266 83.1484 83.7734 83.4844 83.7734C84.0312 83.7734 84.4844 83.6797 84.8438 83.4922C85.2109 83.3047 85.4844 83.043 85.6641 82.707C85.8516 82.3633 85.9453 81.9727 85.9453 81.5352ZM102.996 83.5625V86H91.4414V83.9141L96.9844 77.9258C97.5625 77.2695 98.0195 76.6992 98.3555 76.2148C98.6914 75.7305 98.9297 75.293 99.0703 74.9023C99.2188 74.5039 99.293 74.125 99.293 73.7656C99.293 73.2422 99.1992 72.7852 99.0117 72.3945C98.8242 71.9961 98.5508 71.6875 98.1914 71.4688C97.8398 71.25 97.4062 71.1406 96.8906 71.1406C96.3203 71.1406 95.832 71.2734 95.4258 71.5391C95.0273 71.7969 94.7227 72.1562 94.5117 72.6172C94.3086 73.0781 94.207 73.6055 94.207 74.1992H91.1016C91.1016 73.1914 91.3359 72.2734 91.8047 71.4453C92.2734 70.6094 92.9453 69.9414 93.8203 69.4414C94.6953 68.9414 95.7344 68.6914 96.9375 68.6914C98.1094 68.6914 99.1016 68.8867 99.9141 69.2773C100.727 69.6602 101.344 70.207 101.766 70.918C102.188 71.6289 102.398 72.4766 102.398 73.4609C102.398 74.0078 102.309 74.5469 102.129 75.0781C101.949 75.6094 101.695 76.1367 101.367 76.6602C101.047 77.1758 100.664 77.6992 100.219 78.2305C99.7734 78.7617 99.2773 79.3047 98.7305 79.8594L95.4023 83.5625H102.996ZM105.445 84.4883C105.445 84.0195 105.605 83.625 105.926 83.3047C106.246 82.9844 106.68 82.8242 107.227 82.8242C107.773 82.8242 108.207 82.9844 108.527 83.3047C108.848 83.625 109.008 84.0195 109.008 84.4883C109.008 84.9492 108.848 85.3398 108.527 85.6602C108.207 85.9727 107.773 86.1289 107.227 86.1289C106.68 86.1289 106.246 85.9727 105.926 85.6602C105.605 85.3398 105.445 84.9492 105.445 84.4883ZM114.305 83.5977H114.527C115.535 83.5977 116.387 83.4688 117.082 83.2109C117.785 82.9531 118.352 82.5898 118.781 82.1211C119.219 81.6445 119.535 81.0781 119.73 80.4219C119.934 79.7578 120.035 79.0234 120.035 78.2188V75.125C120.035 74.4688 119.969 73.8945 119.836 73.4023C119.703 72.9023 119.516 72.4844 119.273 72.1484C119.039 71.8125 118.762 71.5625 118.441 71.3984C118.121 71.2266 117.777 71.1406 117.41 71.1406C117.004 71.1406 116.645 71.2344 116.332 71.4219C116.02 71.6094 115.754 71.8672 115.535 72.1953C115.324 72.5156 115.16 72.8867 115.043 73.3086C114.934 73.7305 114.879 74.1758 114.879 74.6445C114.879 75.0977 114.93 75.5312 115.031 75.9453C115.141 76.3594 115.301 76.7266 115.512 77.0469C115.73 77.3672 116.004 77.6211 116.332 77.8086C116.66 77.9883 117.043 78.0781 117.48 78.0781C117.895 78.0781 118.27 78 118.605 77.8438C118.949 77.6797 119.246 77.4648 119.496 77.1992C119.746 76.9258 119.938 76.625 120.07 76.2969C120.211 75.9609 120.289 75.6211 120.305 75.2773L121.395 75.7461C121.395 76.3164 121.273 76.8789 121.031 77.4336C120.797 77.9883 120.465 78.4922 120.035 78.9453C119.613 79.3906 119.121 79.75 118.559 80.0234C117.996 80.2891 117.391 80.4219 116.742 80.4219C115.938 80.4219 115.227 80.2734 114.609 79.9766C113.992 79.6797 113.473 79.2695 113.051 78.7461C112.637 78.2148 112.324 77.6055 112.113 76.918C111.902 76.2227 111.797 75.4805 111.797 74.6914C111.797 73.8711 111.926 73.1016 112.184 72.3828C112.441 71.6562 112.812 71.0195 113.297 70.4727C113.789 69.918 114.383 69.4844 115.078 69.1719C115.773 68.8516 116.555 68.6914 117.422 68.6914C118.32 68.6914 119.121 68.8672 119.824 69.2188C120.527 69.5703 121.125 70.0586 121.617 70.6836C122.109 71.3008 122.484 72.0312 122.742 72.875C123.008 73.7188 123.141 74.6406 123.141 75.6406V76.7305C123.141 77.7852 123.035 78.7852 122.824 79.7305C122.613 80.6758 122.289 81.5391 121.852 82.3203C121.414 83.1016 120.855 83.7773 120.176 84.3477C119.504 84.918 118.699 85.3594 117.762 85.6719C116.832 85.9766 115.77 86.1289 114.574 86.1289H114.305V83.5977ZM128.016 83.5977H128.238C129.246 83.5977 130.098 83.4688 130.793 83.2109C131.496 82.9531 132.062 82.5898 132.492 82.1211C132.93 81.6445 133.246 81.0781 133.441 80.4219C133.645 79.7578 133.746 79.0234 133.746 78.2188V75.125C133.746 74.4688 133.68 73.8945 133.547 73.4023C133.414 72.9023 133.227 72.4844 132.984 72.1484C132.75 71.8125 132.473 71.5625 132.152 71.3984C131.832 71.2266 131.488 71.1406 131.121 71.1406C130.715 71.1406 130.355 71.2344 130.043 71.4219C129.73 71.6094 129.465 71.8672 129.246 72.1953C129.035 72.5156 128.871 72.8867 128.754 73.3086C128.645 73.7305 128.59 74.1758 128.59 74.6445C128.59 75.0977 128.641 75.5312 128.742 75.9453C128.852 76.3594 129.012 76.7266 129.223 77.0469C129.441 77.3672 129.715 77.6211 130.043 77.8086C130.371 77.9883 130.754 78.0781 131.191 78.0781C131.605 78.0781 131.98 78 132.316 77.8438C132.66 77.6797 132.957 77.4648 133.207 77.1992C133.457 76.9258 133.648 76.625 133.781 76.2969C133.922 75.9609 134 75.6211 134.016 75.2773L135.105 75.7461C135.105 76.3164 134.984 76.8789 134.742 77.4336C134.508 77.9883 134.176 78.4922 133.746 78.9453C133.324 79.3906 132.832 79.75 132.27 80.0234C131.707 80.2891 131.102 80.4219 130.453 80.4219C129.648 80.4219 128.938 80.2734 128.32 79.9766C127.703 79.6797 127.184 79.2695 126.762 78.7461C126.348 78.2148 126.035 77.6055 125.824 76.918C125.613 76.2227 125.508 75.4805 125.508 74.6914C125.508 73.8711 125.637 73.1016 125.895 72.3828C126.152 71.6562 126.523 71.0195 127.008 70.4727C127.5 69.918 128.094 69.4844 128.789 69.1719C129.484 68.8516 130.266 68.6914 131.133 68.6914C132.031 68.6914 132.832 68.8672 133.535 69.2188C134.238 69.5703 134.836 70.0586 135.328 70.6836C135.82 71.3008 136.195 72.0312 136.453 72.875C136.719 73.7188 136.852 74.6406 136.852 75.6406V76.7305C136.852 77.7852 136.746 78.7852 136.535 79.7305C136.324 80.6758 136 81.5391 135.562 82.3203C135.125 83.1016 134.566 83.7773 133.887 84.3477C133.215 84.918 132.41 85.3594 131.473 85.6719C130.543 85.9766 129.48 86.1289 128.285 86.1289H128.016V83.5977Z" fill="#323238"/>
<path d="M82.4766 114.758H79.5156V113.203H82.4766C82.9922 113.203 83.4089 113.12 83.7266 112.953C84.0443 112.786 84.276 112.557 84.4219 112.266C84.5729 111.969 84.6484 111.63 84.6484 111.25C84.6484 110.891 84.5729 110.555 84.4219 110.242C84.276 109.924 84.0443 109.669 83.7266 109.477C83.4089 109.284 82.9922 109.188 82.4766 109.188H80.1172V119H78.1562V107.625H82.4766C83.3568 107.625 84.1042 107.781 84.7188 108.094C85.3385 108.401 85.8099 108.828 86.1328 109.375C86.4557 109.917 86.6172 110.536 86.6172 111.234C86.6172 111.969 86.4557 112.599 86.1328 113.125C85.8099 113.651 85.3385 114.055 84.7188 114.336C84.1042 114.617 83.3568 114.758 82.4766 114.758ZM91.8047 119.156C91.1797 119.156 90.6146 119.055 90.1094 118.852C89.6094 118.643 89.1823 118.354 88.8281 117.984C88.4792 117.615 88.2109 117.18 88.0234 116.68C87.8359 116.18 87.7422 115.641 87.7422 115.062V114.75C87.7422 114.089 87.8385 113.49 88.0312 112.953C88.224 112.417 88.4922 111.958 88.8359 111.578C89.1797 111.193 89.5859 110.898 90.0547 110.695C90.5234 110.492 91.0312 110.391 91.5781 110.391C92.1823 110.391 92.7109 110.492 93.1641 110.695C93.6172 110.898 93.9922 111.185 94.2891 111.555C94.5911 111.919 94.8151 112.354 94.9609 112.859C95.112 113.365 95.1875 113.922 95.1875 114.531V115.336H88.6562V113.984H93.3281V113.836C93.3177 113.497 93.25 113.18 93.125 112.883C93.0052 112.586 92.8203 112.346 92.5703 112.164C92.3203 111.982 91.987 111.891 91.5703 111.891C91.2578 111.891 90.9792 111.958 90.7344 112.094C90.4948 112.224 90.2943 112.414 90.1328 112.664C89.9714 112.914 89.8464 113.216 89.7578 113.57C89.6745 113.919 89.6328 114.312 89.6328 114.75V115.062C89.6328 115.432 89.6823 115.776 89.7812 116.094C89.8854 116.406 90.0365 116.68 90.2344 116.914C90.4323 117.148 90.6719 117.333 90.9531 117.469C91.2344 117.599 91.5547 117.664 91.9141 117.664C92.3672 117.664 92.7708 117.573 93.125 117.391C93.4792 117.208 93.7865 116.951 94.0469 116.617L95.0391 117.578C94.8568 117.844 94.6198 118.099 94.3281 118.344C94.0365 118.583 93.6797 118.779 93.2578 118.93C92.8411 119.081 92.3568 119.156 91.8047 119.156ZM98.5469 112.156V119H96.6641V110.547H98.4609L98.5469 112.156ZM101.133 110.492L101.117 112.242C101.003 112.221 100.878 112.206 100.742 112.195C100.612 112.185 100.482 112.18 100.352 112.18C100.029 112.18 99.7448 112.227 99.5 112.32C99.2552 112.409 99.0495 112.539 98.8828 112.711C98.7214 112.878 98.5964 113.081 98.5078 113.32C98.4193 113.56 98.3672 113.828 98.3516 114.125L97.9219 114.156C97.9219 113.625 97.974 113.133 98.0781 112.68C98.1823 112.227 98.3385 111.828 98.5469 111.484C98.7604 111.141 99.026 110.872 99.3438 110.68C99.6667 110.487 100.039 110.391 100.461 110.391C100.576 110.391 100.698 110.401 100.828 110.422C100.964 110.443 101.065 110.466 101.133 110.492ZM107.57 107.625L110.211 113.055L112.852 107.625H115.023L111.195 114.812V119H109.219V114.812L105.391 107.625H107.57ZM119.289 119.156C118.664 119.156 118.099 119.055 117.594 118.852C117.094 118.643 116.667 118.354 116.312 117.984C115.964 117.615 115.695 117.18 115.508 116.68C115.32 116.18 115.227 115.641 115.227 115.062V114.75C115.227 114.089 115.323 113.49 115.516 112.953C115.708 112.417 115.977 111.958 116.32 111.578C116.664 111.193 117.07 110.898 117.539 110.695C118.008 110.492 118.516 110.391 119.062 110.391C119.667 110.391 120.195 110.492 120.648 110.695C121.102 110.898 121.477 111.185 121.773 111.555C122.076 111.919 122.299 112.354 122.445 112.859C122.596 113.365 122.672 113.922 122.672 114.531V115.336H116.141V113.984H120.812V113.836C120.802 113.497 120.734 113.18 120.609 112.883C120.49 112.586 120.305 112.346 120.055 112.164C119.805 111.982 119.471 111.891 119.055 111.891C118.742 111.891 118.464 111.958 118.219 112.094C117.979 112.224 117.779 112.414 117.617 112.664C117.456 112.914 117.331 113.216 117.242 113.57C117.159 113.919 117.117 114.312 117.117 114.75V115.062C117.117 115.432 117.167 115.776 117.266 116.094C117.37 116.406 117.521 116.68 117.719 116.914C117.917 117.148 118.156 117.333 118.438 117.469C118.719 117.599 119.039 117.664 119.398 117.664C119.852 117.664 120.255 117.573 120.609 117.391C120.964 117.208 121.271 116.951 121.531 116.617L122.523 117.578C122.341 117.844 122.104 118.099 121.812 118.344C121.521 118.583 121.164 118.779 120.742 118.93C120.326 119.081 119.841 119.156 119.289 119.156ZM128.906 117.305V113.273C128.906 112.971 128.852 112.711 128.742 112.492C128.633 112.273 128.466 112.104 128.242 111.984C128.023 111.865 127.747 111.805 127.414 111.805C127.107 111.805 126.841 111.857 126.617 111.961C126.393 112.065 126.219 112.206 126.094 112.383C125.969 112.56 125.906 112.76 125.906 112.984H124.031C124.031 112.651 124.112 112.328 124.273 112.016C124.435 111.703 124.669 111.424 124.977 111.18C125.284 110.935 125.651 110.742 126.078 110.602C126.505 110.461 126.984 110.391 127.516 110.391C128.151 110.391 128.714 110.497 129.203 110.711C129.698 110.924 130.086 111.247 130.367 111.68C130.654 112.107 130.797 112.643 130.797 113.289V117.047C130.797 117.432 130.823 117.779 130.875 118.086C130.932 118.388 131.013 118.651 131.117 118.875V119H129.188C129.099 118.797 129.029 118.539 128.977 118.227C128.93 117.909 128.906 117.602 128.906 117.305ZM129.18 113.859L129.195 115.023H127.844C127.495 115.023 127.188 115.057 126.922 115.125C126.656 115.188 126.435 115.281 126.258 115.406C126.081 115.531 125.948 115.682 125.859 115.859C125.771 116.036 125.727 116.237 125.727 116.461C125.727 116.685 125.779 116.891 125.883 117.078C125.987 117.26 126.138 117.404 126.336 117.508C126.539 117.612 126.784 117.664 127.07 117.664C127.456 117.664 127.792 117.586 128.078 117.43C128.37 117.268 128.599 117.073 128.766 116.844C128.932 116.609 129.021 116.388 129.031 116.18L129.641 117.016C129.578 117.229 129.471 117.458 129.32 117.703C129.169 117.948 128.971 118.182 128.727 118.406C128.487 118.625 128.198 118.805 127.859 118.945C127.526 119.086 127.141 119.156 126.703 119.156C126.151 119.156 125.659 119.047 125.227 118.828C124.794 118.604 124.456 118.305 124.211 117.93C123.966 117.549 123.844 117.12 123.844 116.641C123.844 116.193 123.927 115.797 124.094 115.453C124.266 115.104 124.516 114.812 124.844 114.578C125.177 114.344 125.583 114.167 126.062 114.047C126.542 113.922 127.089 113.859 127.703 113.859H129.18ZM134.656 112.156V119H132.773V110.547H134.57L134.656 112.156ZM137.242 110.492L137.227 112.242C137.112 112.221 136.987 112.206 136.852 112.195C136.721 112.185 136.591 112.18 136.461 112.18C136.138 112.18 135.854 112.227 135.609 112.32C135.365 112.409 135.159 112.539 134.992 112.711C134.831 112.878 134.706 113.081 134.617 113.32C134.529 113.56 134.477 113.828 134.461 114.125L134.031 114.156C134.031 113.625 134.083 113.133 134.188 112.68C134.292 112.227 134.448 111.828 134.656 111.484C134.87 111.141 135.135 110.872 135.453 110.68C135.776 110.487 136.148 110.391 136.57 110.391C136.685 110.391 136.807 110.401 136.938 110.422C137.073 110.443 137.174 110.466 137.242 110.492Z" fill="#949C9E"/>
<path d="M70.1348 138.59V138.531C70.1348 137.68 70.2305 136.91 70.4219 136.223C70.6133 135.531 70.8574 134.926 71.1543 134.406C71.4512 133.887 71.7637 133.457 72.0918 133.117C72.4199 132.773 72.7227 132.525 73 132.373L73.2285 133.088C72.998 133.264 72.7637 133.506 72.5254 133.814C72.291 134.123 72.0742 134.502 71.875 134.951C71.6797 135.4 71.5215 135.922 71.4004 136.516C71.2793 137.109 71.2188 137.777 71.2188 138.52V138.602C71.2188 139.344 71.2793 140.014 71.4004 140.611C71.5215 141.205 71.6797 141.729 71.875 142.182C72.0742 142.635 72.291 143.02 72.5254 143.336C72.7637 143.656 72.998 143.91 73.2285 144.098L73 144.754C72.7227 144.602 72.4199 144.354 72.0918 144.01C71.7637 143.67 71.4512 143.24 71.1543 142.721C70.8574 142.205 70.6133 141.602 70.4219 140.91C70.2305 140.219 70.1348 139.445 70.1348 138.59ZM74.9746 133.469L77.1895 137.752L79.4102 133.469H80.6934L77.752 138.812V142H76.6211V138.812L73.6797 133.469H74.9746ZM83.8691 142.117C83.4277 142.117 83.0273 142.043 82.668 141.895C82.3125 141.742 82.0059 141.529 81.748 141.256C81.4941 140.982 81.2988 140.658 81.1621 140.283C81.0254 139.908 80.957 139.498 80.957 139.053V138.807C80.957 138.291 81.0332 137.832 81.1855 137.43C81.3379 137.023 81.5449 136.68 81.8066 136.398C82.0684 136.117 82.3652 135.904 82.6973 135.76C83.0293 135.615 83.373 135.543 83.7285 135.543C84.1816 135.543 84.5723 135.621 84.9004 135.777C85.2324 135.934 85.5039 136.152 85.7148 136.434C85.9258 136.711 86.082 137.039 86.1836 137.418C86.2852 137.793 86.3359 138.203 86.3359 138.648V139.135H81.6016V138.25H85.252V138.168C85.2363 137.887 85.1777 137.613 85.0762 137.348C84.9785 137.082 84.8223 136.863 84.6074 136.691C84.3926 136.52 84.0996 136.434 83.7285 136.434C83.4824 136.434 83.2559 136.486 83.0488 136.592C82.8418 136.693 82.6641 136.846 82.5156 137.049C82.3672 137.252 82.252 137.5 82.1699 137.793C82.0879 138.086 82.0469 138.424 82.0469 138.807V139.053C82.0469 139.354 82.0879 139.637 82.1699 139.902C82.2559 140.164 82.3789 140.395 82.5391 140.594C82.7031 140.793 82.9004 140.949 83.1309 141.062C83.3652 141.176 83.6309 141.232 83.9277 141.232C84.3105 141.232 84.6348 141.154 84.9004 140.998C85.166 140.842 85.3984 140.633 85.5977 140.371L86.2539 140.893C86.1172 141.1 85.9434 141.297 85.7324 141.484C85.5215 141.672 85.2617 141.824 84.9531 141.941C84.6484 142.059 84.2871 142.117 83.8691 142.117ZM91.3398 140.916V137.652C91.3398 137.402 91.2891 137.186 91.1875 137.002C91.0898 136.814 90.9414 136.67 90.7422 136.568C90.543 136.467 90.2969 136.416 90.0039 136.416C89.7305 136.416 89.4902 136.463 89.2832 136.557C89.0801 136.65 88.9199 136.773 88.8027 136.926C88.6895 137.078 88.6328 137.242 88.6328 137.418H87.5488C87.5488 137.191 87.6074 136.967 87.7246 136.744C87.8418 136.521 88.0098 136.32 88.2285 136.141C88.4512 135.957 88.7168 135.812 89.0254 135.707C89.3379 135.598 89.6855 135.543 90.0684 135.543C90.5293 135.543 90.9355 135.621 91.2871 135.777C91.6426 135.934 91.9199 136.17 92.1191 136.486C92.3223 136.799 92.4238 137.191 92.4238 137.664V140.617C92.4238 140.828 92.4414 141.053 92.4766 141.291C92.5156 141.529 92.5723 141.734 92.6465 141.906V142H91.5156C91.4609 141.875 91.418 141.709 91.3867 141.502C91.3555 141.291 91.3398 141.096 91.3398 140.916ZM91.5273 138.156L91.5391 138.918H90.4434C90.1348 138.918 89.8594 138.943 89.6172 138.994C89.375 139.041 89.1719 139.113 89.0078 139.211C88.8438 139.309 88.7188 139.432 88.6328 139.58C88.5469 139.725 88.5039 139.895 88.5039 140.09C88.5039 140.289 88.5488 140.471 88.6387 140.635C88.7285 140.799 88.8633 140.93 89.043 141.027C89.2266 141.121 89.4512 141.168 89.7168 141.168C90.0488 141.168 90.3418 141.098 90.5957 140.957C90.8496 140.816 91.0508 140.645 91.1992 140.441C91.3516 140.238 91.4336 140.041 91.4453 139.85L91.9082 140.371C91.8809 140.535 91.8066 140.717 91.6855 140.916C91.5645 141.115 91.4023 141.307 91.1992 141.49C91 141.67 90.7617 141.82 90.4844 141.941C90.2109 142.059 89.9023 142.117 89.5586 142.117C89.1289 142.117 88.752 142.033 88.4277 141.865C88.1074 141.697 87.8574 141.473 87.6777 141.191C87.502 140.906 87.4141 140.588 87.4141 140.236C87.4141 139.896 87.4805 139.598 87.6133 139.34C87.7461 139.078 87.9375 138.861 88.1875 138.689C88.4375 138.514 88.7383 138.381 89.0898 138.291C89.4414 138.201 89.834 138.156 90.2676 138.156H91.5273ZM95.2129 136.656V142H94.1289V135.66H95.1836L95.2129 136.656ZM97.1934 135.625L97.1875 136.633C97.0977 136.613 97.0117 136.602 96.9297 136.598C96.8516 136.59 96.7617 136.586 96.6602 136.586C96.4102 136.586 96.1895 136.625 95.998 136.703C95.8066 136.781 95.6445 136.891 95.5117 137.031C95.3789 137.172 95.2734 137.34 95.1953 137.535C95.1211 137.727 95.0723 137.938 95.0488 138.168L94.7441 138.344C94.7441 137.961 94.7812 137.602 94.8555 137.266C94.9336 136.93 95.0527 136.633 95.2129 136.375C95.373 136.113 95.5762 135.91 95.8223 135.766C96.0723 135.617 96.3691 135.543 96.7129 135.543C96.791 135.543 96.8809 135.553 96.9824 135.572C97.084 135.588 97.1543 135.605 97.1934 135.625ZM99.373 133V142H98.2832V133H99.373ZM102.895 141.344L104.658 135.66H105.818L103.275 142.979C103.217 143.135 103.139 143.303 103.041 143.482C102.947 143.666 102.826 143.84 102.678 144.004C102.529 144.168 102.35 144.301 102.139 144.402C101.932 144.508 101.684 144.561 101.395 144.561C101.309 144.561 101.199 144.549 101.066 144.525C100.934 144.502 100.84 144.482 100.785 144.467L100.779 143.588C100.811 143.592 100.859 143.596 100.926 143.6C100.996 143.607 101.045 143.611 101.072 143.611C101.318 143.611 101.527 143.578 101.699 143.512C101.871 143.449 102.016 143.342 102.133 143.189C102.254 143.041 102.357 142.836 102.443 142.574L102.895 141.344ZM101.6 135.66L103.246 140.582L103.527 141.725L102.748 142.123L100.416 135.66H101.6ZM112.979 138.01H110.816L110.805 137.102H112.768C113.092 137.102 113.375 137.047 113.617 136.938C113.859 136.828 114.047 136.672 114.18 136.469C114.316 136.262 114.385 136.016 114.385 135.73C114.385 135.418 114.324 135.164 114.203 134.969C114.086 134.77 113.904 134.625 113.658 134.535C113.416 134.441 113.107 134.395 112.732 134.395H111.068V142H109.938V133.469H112.732C113.17 133.469 113.561 133.514 113.904 133.604C114.248 133.689 114.539 133.826 114.777 134.014C115.02 134.197 115.203 134.432 115.328 134.717C115.453 135.002 115.516 135.344 115.516 135.742C115.516 136.094 115.426 136.412 115.246 136.697C115.066 136.979 114.816 137.209 114.496 137.389C114.18 137.568 113.809 137.684 113.383 137.734L112.979 138.01ZM112.926 142H110.371L111.01 141.08H112.926C113.285 141.08 113.59 141.018 113.84 140.893C114.094 140.768 114.287 140.592 114.42 140.365C114.553 140.135 114.619 139.863 114.619 139.551C114.619 139.234 114.562 138.961 114.449 138.73C114.336 138.5 114.158 138.322 113.916 138.197C113.674 138.072 113.361 138.01 112.979 138.01H111.367L111.379 137.102H113.582L113.822 137.43C114.232 137.465 114.58 137.582 114.865 137.781C115.15 137.977 115.367 138.227 115.516 138.531C115.668 138.836 115.744 139.172 115.744 139.539C115.744 140.07 115.627 140.52 115.393 140.887C115.162 141.25 114.836 141.527 114.414 141.719C113.992 141.906 113.496 142 112.926 142ZM118.428 135.66V142H117.338V135.66H118.428ZM117.256 133.979C117.256 133.803 117.309 133.654 117.414 133.533C117.523 133.412 117.684 133.352 117.895 133.352C118.102 133.352 118.26 133.412 118.369 133.533C118.482 133.654 118.539 133.803 118.539 133.979C118.539 134.146 118.482 134.291 118.369 134.412C118.26 134.529 118.102 134.588 117.895 134.588C117.684 134.588 117.523 134.529 117.414 134.412C117.309 134.291 117.256 134.146 117.256 133.979ZM121.346 133V142H120.256V133H121.346ZM124.264 133V142H123.174V133H124.264ZM127.182 135.66V142H126.092V135.66H127.182ZM126.01 133.979C126.01 133.803 126.062 133.654 126.168 133.533C126.277 133.412 126.438 133.352 126.648 133.352C126.855 133.352 127.014 133.412 127.123 133.533C127.236 133.654 127.293 133.803 127.293 133.979C127.293 134.146 127.236 134.291 127.123 134.412C127.014 134.529 126.855 134.588 126.648 134.588C126.438 134.588 126.277 134.529 126.168 134.412C126.062 134.291 126.01 134.146 126.01 133.979ZM130.006 137.014V142H128.922V135.66H129.947L130.006 137.014ZM129.748 138.59L129.297 138.572C129.301 138.139 129.365 137.738 129.49 137.371C129.615 137 129.791 136.678 130.018 136.404C130.244 136.131 130.514 135.92 130.826 135.771C131.143 135.619 131.492 135.543 131.875 135.543C132.188 135.543 132.469 135.586 132.719 135.672C132.969 135.754 133.182 135.887 133.357 136.07C133.537 136.254 133.674 136.492 133.768 136.785C133.861 137.074 133.908 137.428 133.908 137.846V142H132.818V137.834C132.818 137.502 132.77 137.236 132.672 137.037C132.574 136.834 132.432 136.688 132.244 136.598C132.057 136.504 131.826 136.457 131.553 136.457C131.283 136.457 131.037 136.514 130.814 136.627C130.596 136.74 130.406 136.896 130.246 137.096C130.09 137.295 129.967 137.523 129.877 137.781C129.791 138.035 129.748 138.305 129.748 138.59ZM139.662 135.66H140.646V141.865C140.646 142.424 140.533 142.9 140.307 143.295C140.08 143.689 139.764 143.988 139.357 144.191C138.955 144.398 138.49 144.502 137.963 144.502C137.744 144.502 137.486 144.467 137.189 144.396C136.896 144.33 136.607 144.215 136.322 144.051C136.041 143.891 135.805 143.674 135.613 143.4L136.182 142.756C136.447 143.076 136.725 143.299 137.014 143.424C137.307 143.549 137.596 143.611 137.881 143.611C138.225 143.611 138.521 143.547 138.771 143.418C139.021 143.289 139.215 143.098 139.352 142.844C139.492 142.594 139.562 142.285 139.562 141.918V137.055L139.662 135.66ZM135.297 138.9V138.777C135.297 138.293 135.354 137.854 135.467 137.459C135.584 137.061 135.75 136.719 135.965 136.434C136.184 136.148 136.447 135.93 136.756 135.777C137.064 135.621 137.412 135.543 137.799 135.543C138.197 135.543 138.545 135.613 138.842 135.754C139.143 135.891 139.396 136.092 139.604 136.357C139.814 136.619 139.98 136.936 140.102 137.307C140.223 137.678 140.307 138.098 140.354 138.566V139.105C140.311 139.57 140.227 139.988 140.102 140.359C139.98 140.73 139.814 141.047 139.604 141.309C139.396 141.57 139.143 141.771 138.842 141.912C138.541 142.049 138.189 142.117 137.787 142.117C137.408 142.117 137.064 142.037 136.756 141.877C136.451 141.717 136.189 141.492 135.971 141.203C135.752 140.914 135.584 140.574 135.467 140.184C135.354 139.789 135.297 139.361 135.297 138.9ZM136.381 138.777V138.9C136.381 139.217 136.412 139.514 136.475 139.791C136.541 140.068 136.641 140.312 136.773 140.523C136.91 140.734 137.084 140.9 137.295 141.021C137.506 141.139 137.758 141.197 138.051 141.197C138.41 141.197 138.707 141.121 138.941 140.969C139.176 140.816 139.361 140.615 139.498 140.365C139.639 140.115 139.748 139.844 139.826 139.551V138.139C139.783 137.924 139.717 137.717 139.627 137.518C139.541 137.314 139.428 137.135 139.287 136.979C139.15 136.818 138.98 136.691 138.777 136.598C138.574 136.504 138.336 136.457 138.062 136.457C137.766 136.457 137.51 136.52 137.295 136.645C137.084 136.766 136.91 136.934 136.773 137.148C136.641 137.359 136.541 137.605 136.475 137.887C136.412 138.164 136.381 138.461 136.381 138.777ZM144.789 138.531V138.59C144.789 139.445 144.693 140.219 144.502 140.91C144.311 141.602 144.066 142.205 143.77 142.721C143.473 143.24 143.16 143.67 142.832 144.01C142.504 144.354 142.201 144.602 141.924 144.754L141.695 144.098C141.926 143.922 142.158 143.676 142.393 143.359C142.627 143.047 142.844 142.66 143.043 142.199C143.242 141.742 143.402 141.215 143.523 140.617C143.645 140.016 143.705 139.344 143.705 138.602V138.52C143.705 137.777 143.641 137.107 143.512 136.51C143.383 135.908 143.215 135.379 143.008 134.922C142.805 134.465 142.586 134.08 142.352 133.768C142.121 133.451 141.902 133.207 141.695 133.035L141.924 132.373C142.201 132.525 142.504 132.773 142.832 133.117C143.16 133.457 143.473 133.887 143.77 134.406C144.066 134.926 144.311 135.531 144.502 136.223C144.693 136.91 144.789 137.68 144.789 138.531Z" fill="#655B5B"/>
</g>
<defs>
<filter id="filter0_dd_1_816" x="0" y="0" width="215" height="217" filterUnits="userSpaceOnUse" color-interpolation-filters="sRGB">
<feFlood flood-opacity="0" result="BackgroundImageFix"/>
<feColorMatrix in="SourceAlpha" type="matrix" values="0 0 0 0 0 0 0 0 0 0 0 0 0 0 0 0 0 0 127 0" result="hardAlpha"/>
<feOffset dx="-4" dy="-4"/>
<feGaussianBlur stdDeviation="20"/>
<feComposite in2="hardAlpha" operator="out"/>
<feColorMatrix type="matrix" values="0 0 0 0 0 0 0 0 0 0 0 0 0 0 0 0 0 0 0.05 0"/>
<feBlend mode="normal" in2="BackgroundImageFix" result="effect1_dropShadow_1_816"/>
<feColorMatrix in="SourceAlpha" type="matrix" values="0 0 0 0 0 0 0 0 0 0 0 0 0 0 0 0 0 0 127 0" result="hardAlpha"/>
<feOffset dx="4" dy="4"/>
<feGaussianBlur stdDeviation="20"/>
<feComposite in2="hardAlpha" operator="out"/>
<feColorMatrix type="matrix" values="0 0 0 0 0 0 0 0 0 0 0 0 0 0 0 0 0 0 0.05 0"/>
<feBlend mode="normal" in2="effect1_dropShadow_1_816" result="effect2_dropShadow_1_816"/>
<feBlend mode="normal" in="SourceGraphic" in2="effect2_dropShadow_1_816" result="shape"/>
</filter>
</defs>
</svg>
