<svg width="61" height="148" viewBox="0 0 61 148" fill="none" xmlns="http://www.w3.org/2000/svg">
<path d="M4.82617 45.0967H2.16699V44.0234H4.82617C5.34115 44.0234 5.75814 43.9414 6.07715 43.7773C6.39616 43.6133 6.62858 43.3854 6.77441 43.0938C6.9248 42.8021 7 42.4694 7 42.0957C7 41.7539 6.9248 41.4326 6.77441 41.1318C6.62858 40.8311 6.39616 40.5895 6.07715 40.4072C5.75814 40.2204 5.34115 40.127 4.82617 40.127H2.47461V49H1.15527V39.0469H4.82617C5.57812 39.0469 6.21387 39.1768 6.7334 39.4365C7.25293 39.6963 7.64714 40.0563 7.91602 40.5166C8.1849 40.9723 8.31934 41.4941 8.31934 42.082C8.31934 42.7201 8.1849 43.2646 7.91602 43.7158C7.64714 44.167 7.25293 44.5111 6.7334 44.748C6.21387 44.9805 5.57812 45.0967 4.82617 45.0967ZM11.0605 42.7656V49H9.7959V41.6035H11.0264L11.0605 42.7656ZM13.3711 41.5625L13.3643 42.7383C13.2594 42.7155 13.1592 42.7018 13.0635 42.6973C12.9723 42.6882 12.8675 42.6836 12.749 42.6836C12.4574 42.6836 12.1999 42.7292 11.9766 42.8203C11.7533 42.9115 11.5641 43.0391 11.4092 43.2031C11.2542 43.3672 11.1312 43.5632 11.04 43.791C10.9535 44.0143 10.8965 44.2604 10.8691 44.5293L10.5137 44.7344C10.5137 44.2878 10.557 43.8685 10.6436 43.4766C10.7347 43.0846 10.8737 42.7383 11.0605 42.4375C11.2474 42.1322 11.4844 41.8952 11.7715 41.7266C12.0632 41.5534 12.4095 41.4668 12.8105 41.4668C12.9017 41.4668 13.0065 41.4782 13.125 41.501C13.2435 41.5192 13.3255 41.5397 13.3711 41.5625ZM15.9141 41.6035V49H14.6426V41.6035H15.9141ZM14.5469 39.6416C14.5469 39.4365 14.6084 39.2633 14.7314 39.1221C14.859 38.9808 15.0459 38.9102 15.292 38.9102C15.5335 38.9102 15.7181 38.9808 15.8457 39.1221C15.9779 39.2633 16.0439 39.4365 16.0439 39.6416C16.0439 39.8376 15.9779 40.0062 15.8457 40.1475C15.7181 40.2842 15.5335 40.3525 15.292 40.3525C15.0459 40.3525 14.859 40.2842 14.7314 40.1475C14.6084 40.0062 14.5469 39.8376 14.5469 39.6416ZM20.9043 48.0977C21.2051 48.0977 21.4831 48.0361 21.7383 47.9131C21.9935 47.79 22.2031 47.6214 22.3672 47.4072C22.5312 47.1885 22.6247 46.9401 22.6475 46.6621H23.8506C23.8278 47.0996 23.6797 47.5075 23.4062 47.8857C23.1374 48.2594 22.7842 48.5625 22.3467 48.7949C21.9092 49.0228 21.4284 49.1367 20.9043 49.1367C20.3483 49.1367 19.863 49.0387 19.4482 48.8428C19.0381 48.6468 18.6963 48.3779 18.4229 48.0361C18.154 47.6943 17.9512 47.3024 17.8145 46.8604C17.6823 46.4137 17.6162 45.9421 17.6162 45.4453V45.1582C17.6162 44.6615 17.6823 44.1921 17.8145 43.75C17.9512 43.3034 18.154 42.9092 18.4229 42.5674C18.6963 42.2256 19.0381 41.9567 19.4482 41.7607C19.863 41.5648 20.3483 41.4668 20.9043 41.4668C21.4831 41.4668 21.9889 41.5853 22.4219 41.8223C22.8548 42.0547 23.1943 42.3737 23.4404 42.7793C23.6911 43.1803 23.8278 43.6361 23.8506 44.1465H22.6475C22.6247 43.8411 22.5381 43.5654 22.3877 43.3193C22.2419 43.0732 22.0413 42.8773 21.7861 42.7314C21.5355 42.5811 21.2415 42.5059 20.9043 42.5059C20.5169 42.5059 20.1911 42.5833 19.9268 42.7383C19.667 42.8887 19.4596 43.0938 19.3047 43.3535C19.1543 43.6087 19.0449 43.8936 18.9766 44.208C18.9128 44.5179 18.8809 44.8346 18.8809 45.1582V45.4453C18.8809 45.7689 18.9128 46.0879 18.9766 46.4023C19.0404 46.7168 19.1475 47.0016 19.2979 47.2568C19.4528 47.512 19.6602 47.7171 19.9199 47.8721C20.1842 48.0225 20.5124 48.0977 20.9043 48.0977ZM26.6465 41.6035V49H25.375V41.6035H26.6465ZM25.2793 39.6416C25.2793 39.4365 25.3408 39.2633 25.4639 39.1221C25.5915 38.9808 25.7783 38.9102 26.0244 38.9102C26.266 38.9102 26.4505 38.9808 26.5781 39.1221C26.7103 39.2633 26.7764 39.4365 26.7764 39.6416C26.7764 39.8376 26.7103 40.0062 26.5781 40.1475C26.4505 40.2842 26.266 40.3525 26.0244 40.3525C25.7783 40.3525 25.5915 40.2842 25.4639 40.1475C25.3408 40.0062 25.2793 39.8376 25.2793 39.6416ZM29.9414 43.1826V49H28.6768V41.6035H29.873L29.9414 43.1826ZM29.6406 45.0215L29.1143 45.001C29.1188 44.4951 29.194 44.028 29.3398 43.5996C29.4857 43.1667 29.6908 42.7907 29.9551 42.4717C30.2194 42.1527 30.5339 41.9066 30.8984 41.7334C31.2676 41.5557 31.6755 41.4668 32.1221 41.4668C32.4867 41.4668 32.8148 41.5169 33.1064 41.6172C33.3981 41.7129 33.6465 41.8678 33.8516 42.082C34.0612 42.2962 34.2207 42.5742 34.3301 42.916C34.4395 43.2533 34.4941 43.6657 34.4941 44.1533V49H33.2227V44.1396C33.2227 43.7523 33.1657 43.4424 33.0518 43.21C32.9378 42.973 32.7715 42.8021 32.5527 42.6973C32.334 42.5879 32.0651 42.5332 31.7461 42.5332C31.4316 42.5332 31.1445 42.5993 30.8848 42.7314C30.6296 42.8636 30.4085 43.0459 30.2217 43.2783C30.0394 43.5107 29.8958 43.7773 29.791 44.0781C29.6908 44.3743 29.6406 44.6888 29.6406 45.0215ZM41.207 41.6035H42.3555V48.8428C42.3555 49.4945 42.2233 50.0505 41.959 50.5107C41.6947 50.971 41.3255 51.3197 40.8516 51.5566C40.3822 51.7982 39.8398 51.9189 39.2246 51.9189C38.9694 51.9189 38.6686 51.8779 38.3223 51.7959C37.9805 51.7184 37.6432 51.584 37.3105 51.3926C36.9824 51.2057 36.7067 50.9528 36.4834 50.6338L37.1465 49.8818C37.4564 50.2555 37.7799 50.5153 38.1172 50.6611C38.459 50.807 38.7962 50.8799 39.1289 50.8799C39.5299 50.8799 39.8763 50.8047 40.168 50.6543C40.4596 50.5039 40.6852 50.2806 40.8447 49.9844C41.0088 49.6927 41.0908 49.3327 41.0908 48.9043V43.2305L41.207 41.6035ZM36.1143 45.3838V45.2402C36.1143 44.6751 36.1803 44.1624 36.3125 43.7021C36.4492 43.2373 36.6429 42.8385 36.8936 42.5059C37.1488 42.1732 37.4564 41.918 37.8164 41.7402C38.1764 41.5579 38.582 41.4668 39.0332 41.4668C39.498 41.4668 39.9036 41.5488 40.25 41.7129C40.6009 41.8724 40.8971 42.1071 41.1387 42.417C41.3848 42.7223 41.5785 43.0915 41.7197 43.5244C41.861 43.9574 41.959 44.4473 42.0137 44.9941V45.623C41.9635 46.1654 41.8656 46.653 41.7197 47.0859C41.5785 47.5189 41.3848 47.888 41.1387 48.1934C40.8971 48.4987 40.6009 48.7334 40.25 48.8975C39.8991 49.057 39.4889 49.1367 39.0195 49.1367C38.5775 49.1367 38.1764 49.0433 37.8164 48.8564C37.4609 48.6696 37.1556 48.4076 36.9004 48.0703C36.6452 47.7331 36.4492 47.3366 36.3125 46.8809C36.1803 46.4206 36.1143 45.9215 36.1143 45.3838ZM37.3789 45.2402V45.3838C37.3789 45.7529 37.4154 46.0993 37.4883 46.4229C37.5658 46.7464 37.682 47.0312 37.8369 47.2773C37.9964 47.5234 38.1992 47.7171 38.4453 47.8584C38.6914 47.9951 38.9854 48.0635 39.3271 48.0635C39.7464 48.0635 40.0928 47.9746 40.3662 47.7969C40.6396 47.6191 40.8561 47.3844 41.0156 47.0928C41.1797 46.8011 41.3073 46.4844 41.3984 46.1426V44.4951C41.3483 44.2445 41.2708 44.0029 41.166 43.7705C41.0658 43.5335 40.9336 43.3239 40.7695 43.1416C40.61 42.9548 40.4118 42.8066 40.1748 42.6973C39.9378 42.5879 39.6598 42.5332 39.3408 42.5332C38.9945 42.5332 38.696 42.6061 38.4453 42.752C38.1992 42.8932 37.9964 43.0892 37.8369 43.3398C37.682 43.5859 37.5658 43.873 37.4883 44.2012C37.4154 44.5247 37.3789 44.8711 37.3789 45.2402Z" fill="white"/>
<path d="M7.16406 109.835H8.47656C8.4082 110.464 8.22819 111.027 7.93652 111.523C7.64486 112.02 7.23242 112.414 6.69922 112.706C6.16602 112.993 5.50065 113.137 4.70312 113.137C4.11979 113.137 3.58887 113.027 3.11035 112.809C2.63639 112.59 2.22852 112.28 1.88672 111.879C1.54492 111.473 1.2806 110.988 1.09375 110.423C0.911458 109.853 0.820312 109.22 0.820312 108.522V107.531C0.820312 106.834 0.911458 106.203 1.09375 105.638C1.2806 105.068 1.5472 104.58 1.89355 104.175C2.24447 103.769 2.66602 103.457 3.1582 103.238C3.65039 103.02 4.2041 102.91 4.81934 102.91C5.57129 102.91 6.20703 103.051 6.72656 103.334C7.24609 103.617 7.64941 104.008 7.93652 104.51C8.22819 105.007 8.4082 105.583 8.47656 106.239H7.16406C7.10026 105.774 6.98177 105.376 6.80859 105.043C6.63542 104.706 6.38932 104.446 6.07031 104.264C5.7513 104.081 5.33431 103.99 4.81934 103.99C4.37728 103.99 3.98763 104.075 3.65039 104.243C3.31771 104.412 3.03743 104.651 2.80957 104.961C2.58626 105.271 2.41764 105.642 2.30371 106.075C2.18978 106.508 2.13281 106.989 2.13281 107.518V108.522C2.13281 109.01 2.18294 109.468 2.2832 109.896C2.38802 110.325 2.54525 110.701 2.75488 111.024C2.96452 111.348 3.23112 111.603 3.55469 111.79C3.87826 111.972 4.26107 112.063 4.70312 112.063C5.26367 112.063 5.71029 111.975 6.04297 111.797C6.37565 111.619 6.6263 111.364 6.79492 111.031C6.9681 110.699 7.09115 110.3 7.16406 109.835ZM14.6084 111.291V105.604H15.8799V113H14.6699L14.6084 111.291ZM14.8477 109.732L15.374 109.719C15.374 110.211 15.3216 110.667 15.2168 111.086C15.1165 111.501 14.9525 111.861 14.7246 112.166C14.4967 112.471 14.1982 112.711 13.8291 112.884C13.46 113.052 13.0111 113.137 12.4824 113.137C12.1224 113.137 11.792 113.084 11.4912 112.979C11.195 112.875 10.9398 112.713 10.7256 112.494C10.5114 112.275 10.3451 111.991 10.2266 111.64C10.1126 111.289 10.0557 110.867 10.0557 110.375V105.604H11.3203V110.389C11.3203 110.721 11.3568 110.997 11.4297 111.216C11.5072 111.43 11.6097 111.601 11.7373 111.729C11.8695 111.852 12.0153 111.938 12.1748 111.988C12.3389 112.038 12.5075 112.063 12.6807 112.063C13.2184 112.063 13.6445 111.961 13.959 111.756C14.2734 111.546 14.499 111.266 14.6357 110.915C14.777 110.56 14.8477 110.165 14.8477 109.732ZM22.1143 111.038C22.1143 110.856 22.0732 110.687 21.9912 110.532C21.9137 110.373 21.752 110.229 21.5059 110.102C21.2643 109.969 20.8997 109.855 20.4121 109.76C20.002 109.673 19.6305 109.571 19.2979 109.452C18.9697 109.334 18.6895 109.19 18.457 109.021C18.2292 108.853 18.0537 108.655 17.9307 108.427C17.8076 108.199 17.7461 107.932 17.7461 107.627C17.7461 107.335 17.8099 107.06 17.9375 106.8C18.0697 106.54 18.2542 106.31 18.4912 106.109C18.7327 105.909 19.0221 105.752 19.3594 105.638C19.6966 105.524 20.0726 105.467 20.4873 105.467C21.0798 105.467 21.5856 105.572 22.0049 105.781C22.4242 105.991 22.7454 106.271 22.9688 106.622C23.1921 106.968 23.3037 107.354 23.3037 107.777H22.0391C22.0391 107.572 21.9775 107.374 21.8545 107.183C21.736 106.987 21.5605 106.825 21.3281 106.697C21.1003 106.57 20.82 106.506 20.4873 106.506C20.1364 106.506 19.8516 106.561 19.6328 106.67C19.4186 106.775 19.2614 106.909 19.1611 107.073C19.0654 107.237 19.0176 107.41 19.0176 107.593C19.0176 107.729 19.0404 107.853 19.0859 107.962C19.1361 108.067 19.2227 108.165 19.3457 108.256C19.4688 108.342 19.6419 108.424 19.8652 108.502C20.0885 108.579 20.3734 108.657 20.7197 108.734C21.3258 108.871 21.8249 109.035 22.2168 109.227C22.6087 109.418 22.9004 109.653 23.0918 109.931C23.2832 110.209 23.3789 110.546 23.3789 110.942C23.3789 111.266 23.3105 111.562 23.1738 111.831C23.0417 112.1 22.848 112.332 22.5928 112.528C22.3421 112.72 22.0413 112.87 21.6904 112.979C21.3441 113.084 20.9544 113.137 20.5215 113.137C19.8698 113.137 19.3184 113.021 18.8672 112.788C18.416 112.556 18.0742 112.255 17.8418 111.886C17.6094 111.517 17.4932 111.127 17.4932 110.717H18.7646C18.7829 111.063 18.8831 111.339 19.0654 111.544C19.2477 111.744 19.471 111.888 19.7354 111.975C19.9997 112.057 20.2617 112.098 20.5215 112.098C20.8678 112.098 21.1572 112.052 21.3896 111.961C21.6266 111.87 21.8066 111.744 21.9297 111.585C22.0527 111.425 22.1143 111.243 22.1143 111.038ZM28.1367 105.604V106.574H24.1377V105.604H28.1367ZM25.4912 103.806H26.7559V111.168C26.7559 111.419 26.7946 111.608 26.8721 111.735C26.9495 111.863 27.0498 111.947 27.1729 111.988C27.2959 112.029 27.4281 112.05 27.5693 112.05C27.6742 112.05 27.7835 112.041 27.8975 112.022C28.016 112 28.1048 111.981 28.1641 111.968L28.1709 113C28.0706 113.032 27.9385 113.062 27.7744 113.089C27.6149 113.121 27.4212 113.137 27.1934 113.137C26.8835 113.137 26.5986 113.075 26.3389 112.952C26.0791 112.829 25.8717 112.624 25.7168 112.337C25.5664 112.045 25.4912 111.653 25.4912 111.161V103.806ZM29.1484 109.384V109.227C29.1484 108.693 29.2259 108.199 29.3809 107.743C29.5358 107.283 29.7591 106.884 30.0508 106.547C30.3424 106.205 30.6956 105.941 31.1104 105.754C31.5251 105.562 31.9899 105.467 32.5049 105.467C33.0244 105.467 33.4915 105.562 33.9062 105.754C34.3255 105.941 34.681 106.205 34.9727 106.547C35.2689 106.884 35.4945 107.283 35.6494 107.743C35.8044 108.199 35.8818 108.693 35.8818 109.227V109.384C35.8818 109.917 35.8044 110.411 35.6494 110.867C35.4945 111.323 35.2689 111.722 34.9727 112.063C34.681 112.401 34.3278 112.665 33.9131 112.856C33.5029 113.043 33.0381 113.137 32.5186 113.137C31.999 113.137 31.5319 113.043 31.1172 112.856C30.7025 112.665 30.347 112.401 30.0508 112.063C29.7591 111.722 29.5358 111.323 29.3809 110.867C29.2259 110.411 29.1484 109.917 29.1484 109.384ZM30.4131 109.227V109.384C30.4131 109.753 30.4564 110.102 30.543 110.43C30.6296 110.753 30.7594 111.04 30.9326 111.291C31.1104 111.542 31.3314 111.74 31.5957 111.886C31.86 112.027 32.1676 112.098 32.5186 112.098C32.8649 112.098 33.168 112.027 33.4277 111.886C33.6921 111.74 33.9108 111.542 34.084 111.291C34.2572 111.04 34.387 110.753 34.4736 110.43C34.5648 110.102 34.6104 109.753 34.6104 109.384V109.227C34.6104 108.862 34.5648 108.518 34.4736 108.194C34.387 107.866 34.2549 107.577 34.0771 107.326C33.904 107.071 33.6852 106.87 33.4209 106.725C33.1611 106.579 32.8558 106.506 32.5049 106.506C32.1585 106.506 31.8532 106.579 31.5889 106.725C31.3291 106.87 31.1104 107.071 30.9326 107.326C30.7594 107.577 30.6296 107.866 30.543 108.194C30.4564 108.518 30.4131 108.862 30.4131 109.227ZM38.7256 107.073V113H37.4541V105.604H38.6572L38.7256 107.073ZM38.4658 109.021L37.8779 109.001C37.8825 108.495 37.9486 108.028 38.0762 107.6C38.2038 107.167 38.3929 106.791 38.6436 106.472C38.8942 106.153 39.2064 105.907 39.5801 105.733C39.9538 105.556 40.3867 105.467 40.8789 105.467C41.2253 105.467 41.5443 105.517 41.8359 105.617C42.1276 105.713 42.3805 105.866 42.5947 106.075C42.8089 106.285 42.9753 106.554 43.0938 106.882C43.2122 107.21 43.2715 107.606 43.2715 108.071V113H42.0068V108.133C42.0068 107.745 41.9408 107.436 41.8086 107.203C41.681 106.971 41.4987 106.802 41.2617 106.697C41.0247 106.588 40.7467 106.533 40.4277 106.533C40.054 106.533 39.7419 106.599 39.4912 106.731C39.2406 106.864 39.04 107.046 38.8896 107.278C38.7393 107.511 38.6299 107.777 38.5615 108.078C38.4977 108.374 38.4658 108.689 38.4658 109.021ZM43.2578 108.324L42.4102 108.584C42.4147 108.178 42.4808 107.789 42.6084 107.415C42.7406 107.041 42.9297 106.709 43.1758 106.417C43.4264 106.125 43.734 105.895 44.0986 105.727C44.4632 105.553 44.8802 105.467 45.3496 105.467C45.7461 105.467 46.097 105.519 46.4023 105.624C46.7122 105.729 46.972 105.891 47.1816 106.109C47.3958 106.324 47.5576 106.599 47.667 106.937C47.7764 107.274 47.8311 107.675 47.8311 108.14V113H46.5596V108.126C46.5596 107.711 46.4935 107.39 46.3613 107.162C46.2337 106.93 46.0514 106.768 45.8145 106.677C45.582 106.581 45.304 106.533 44.9805 106.533C44.7025 106.533 44.4564 106.581 44.2422 106.677C44.028 106.772 43.848 106.905 43.7021 107.073C43.5563 107.237 43.4447 107.426 43.3672 107.641C43.2943 107.855 43.2578 108.083 43.2578 108.324ZM52.8145 113.137C52.2995 113.137 51.8324 113.05 51.4131 112.877C50.9984 112.699 50.6406 112.451 50.3398 112.132C50.0436 111.813 49.8158 111.435 49.6562 110.997C49.4967 110.56 49.417 110.081 49.417 109.562V109.274C49.417 108.673 49.5059 108.137 49.6836 107.668C49.8613 107.194 50.1029 106.793 50.4082 106.465C50.7135 106.137 51.0599 105.888 51.4473 105.72C51.8346 105.551 52.2357 105.467 52.6504 105.467C53.179 105.467 53.6348 105.558 54.0176 105.74C54.4049 105.923 54.7217 106.178 54.9678 106.506C55.2139 106.829 55.3962 107.212 55.5146 107.654C55.6331 108.092 55.6924 108.57 55.6924 109.09V109.657H50.1689V108.625H54.4277V108.529C54.4095 108.201 54.3411 107.882 54.2227 107.572C54.1087 107.262 53.9264 107.007 53.6758 106.807C53.4251 106.606 53.0833 106.506 52.6504 106.506C52.3633 106.506 52.099 106.567 51.8574 106.69C51.6159 106.809 51.4085 106.987 51.2354 107.224C51.0622 107.461 50.9277 107.75 50.832 108.092C50.7363 108.434 50.6885 108.828 50.6885 109.274V109.562C50.6885 109.912 50.7363 110.243 50.832 110.553C50.9323 110.858 51.0758 111.127 51.2627 111.359C51.4541 111.592 51.6842 111.774 51.9531 111.906C52.2266 112.038 52.5365 112.104 52.8828 112.104C53.3294 112.104 53.7077 112.013 54.0176 111.831C54.3275 111.649 54.5986 111.405 54.8311 111.1L55.5967 111.708C55.4372 111.95 55.2344 112.18 54.9883 112.398C54.7422 112.617 54.4391 112.795 54.0791 112.932C53.7236 113.068 53.3021 113.137 52.8145 113.137ZM58.4336 106.766V113H57.1689V105.604H58.3994L58.4336 106.766ZM60.7441 105.562L60.7373 106.738C60.6325 106.715 60.5322 106.702 60.4365 106.697C60.3454 106.688 60.2406 106.684 60.1221 106.684C59.8304 106.684 59.5729 106.729 59.3496 106.82C59.1263 106.911 58.9372 107.039 58.7822 107.203C58.6273 107.367 58.5042 107.563 58.4131 107.791C58.3265 108.014 58.2695 108.26 58.2422 108.529L57.8867 108.734C57.8867 108.288 57.93 107.868 58.0166 107.477C58.1077 107.085 58.2467 106.738 58.4336 106.438C58.6204 106.132 58.8574 105.895 59.1445 105.727C59.4362 105.553 59.7826 105.467 60.1836 105.467C60.2747 105.467 60.3796 105.478 60.498 105.501C60.6165 105.519 60.6986 105.54 60.7441 105.562Z" fill="white"/>
<path d="M2.47461 71.0469V81H1.15527V71.0469H2.47461ZM6.64453 75.5244V76.6045H2.1875V75.5244H6.64453ZM7.32129 71.0469V72.127H2.1875V71.0469H7.32129ZM11.6211 81.1367C11.1061 81.1367 10.639 81.0501 10.2197 80.877C9.80501 80.6992 9.44727 80.4508 9.14648 80.1318C8.85026 79.8128 8.6224 79.4346 8.46289 78.9971C8.30339 78.5596 8.22363 78.0811 8.22363 77.5615V77.2744C8.22363 76.6729 8.3125 76.1374 8.49023 75.668C8.66797 75.194 8.90951 74.793 9.21484 74.4648C9.52018 74.1367 9.86654 73.8883 10.2539 73.7197C10.6413 73.5511 11.0423 73.4668 11.457 73.4668C11.9857 73.4668 12.4414 73.5579 12.8242 73.7402C13.2116 73.9225 13.5283 74.1777 13.7744 74.5059C14.0205 74.8294 14.2028 75.2122 14.3213 75.6543C14.4398 76.0918 14.499 76.5703 14.499 77.0898V77.6572H8.97559V76.625H13.2344V76.5293C13.2161 76.2012 13.1478 75.8822 13.0293 75.5723C12.9154 75.2624 12.7331 75.0072 12.4824 74.8066C12.2318 74.6061 11.89 74.5059 11.457 74.5059C11.1699 74.5059 10.9056 74.5674 10.6641 74.6904C10.4225 74.8089 10.2152 74.9867 10.042 75.2236C9.86882 75.4606 9.73438 75.75 9.63867 76.0918C9.54297 76.4336 9.49512 76.8278 9.49512 77.2744V77.5615C9.49512 77.9124 9.54297 78.2428 9.63867 78.5527C9.73893 78.8581 9.88249 79.127 10.0693 79.3594C10.2607 79.5918 10.4909 79.7741 10.7598 79.9062C11.0332 80.0384 11.3431 80.1045 11.6895 80.1045C12.1361 80.1045 12.5143 80.0133 12.8242 79.8311C13.1341 79.6488 13.4053 79.4049 13.6377 79.0996L14.4033 79.708C14.2438 79.9495 14.041 80.1797 13.7949 80.3984C13.5488 80.6172 13.2458 80.7949 12.8857 80.9316C12.5303 81.0684 12.1087 81.1367 11.6211 81.1367ZM20.3369 79.7354V75.9277C20.3369 75.6361 20.2777 75.3831 20.1592 75.1689C20.0452 74.9502 19.8721 74.7816 19.6396 74.6631C19.4072 74.5446 19.1201 74.4854 18.7783 74.4854C18.4593 74.4854 18.179 74.54 17.9375 74.6494C17.7005 74.7588 17.5137 74.9023 17.377 75.0801C17.2448 75.2578 17.1787 75.4492 17.1787 75.6543H15.9141C15.9141 75.39 15.9824 75.1279 16.1191 74.8682C16.2559 74.6084 16.4518 74.3737 16.707 74.1641C16.9668 73.9499 17.2767 73.7812 17.6367 73.6582C18.0013 73.5306 18.4069 73.4668 18.8535 73.4668C19.3913 73.4668 19.8652 73.5579 20.2754 73.7402C20.6901 73.9225 21.0137 74.1982 21.2461 74.5674C21.4831 74.932 21.6016 75.39 21.6016 75.9414V79.3867C21.6016 79.6328 21.6221 79.8949 21.6631 80.1729C21.7087 80.4508 21.7747 80.6901 21.8613 80.8906V81H20.542C20.4782 80.8542 20.4281 80.6605 20.3916 80.4189C20.3551 80.1729 20.3369 79.945 20.3369 79.7354ZM20.5557 76.5156L20.5693 77.4043H19.291C18.931 77.4043 18.6097 77.4339 18.3271 77.4932C18.0446 77.5479 17.8076 77.6322 17.6162 77.7461C17.4248 77.86 17.279 78.0036 17.1787 78.1768C17.0785 78.3454 17.0283 78.5436 17.0283 78.7715C17.0283 79.0039 17.0807 79.2158 17.1855 79.4072C17.2904 79.5986 17.4476 79.7513 17.6572 79.8652C17.8714 79.9746 18.1335 80.0293 18.4434 80.0293C18.8307 80.0293 19.1725 79.9473 19.4688 79.7832C19.765 79.6191 19.9997 79.4186 20.1729 79.1816C20.3506 78.9447 20.4463 78.7145 20.46 78.4912L21 79.0996C20.9681 79.291 20.8815 79.5029 20.7402 79.7354C20.599 79.9678 20.4098 80.1911 20.1729 80.4053C19.9404 80.6149 19.6624 80.7904 19.3389 80.9316C19.0199 81.0684 18.6598 81.1367 18.2588 81.1367C17.7575 81.1367 17.3177 81.0387 16.9395 80.8428C16.5658 80.6468 16.2741 80.3848 16.0645 80.0566C15.8594 79.724 15.7568 79.3525 15.7568 78.9424C15.7568 78.5459 15.8343 78.1973 15.9893 77.8965C16.1442 77.5911 16.3675 77.3382 16.6592 77.1377C16.9508 76.9326 17.3018 76.7777 17.7119 76.6729C18.1221 76.568 18.5801 76.5156 19.0859 76.5156H20.5557ZM26.6875 73.6035V74.5742H22.6885V73.6035H26.6875ZM24.042 71.8057H25.3066V79.168C25.3066 79.4186 25.3454 79.6077 25.4229 79.7354C25.5003 79.863 25.6006 79.9473 25.7236 79.9883C25.8467 80.0293 25.9788 80.0498 26.1201 80.0498C26.2249 80.0498 26.3343 80.0407 26.4482 80.0225C26.5667 79.9997 26.6556 79.9814 26.7148 79.9678L26.7217 81C26.6214 81.0319 26.4893 81.0615 26.3252 81.0889C26.1657 81.1208 25.972 81.1367 25.7441 81.1367C25.4342 81.1367 25.1494 81.0752 24.8896 80.9521C24.6299 80.8291 24.4225 80.624 24.2676 80.3369C24.1172 80.0452 24.042 79.6533 24.042 79.1611V71.8057ZM32.6963 79.291V73.6035H33.9678V81H32.7578L32.6963 79.291ZM32.9355 77.7324L33.4619 77.7188C33.4619 78.2109 33.4095 78.6667 33.3047 79.0859C33.2044 79.5007 33.0404 79.8607 32.8125 80.166C32.5846 80.4714 32.2861 80.7106 31.917 80.8838C31.5479 81.0524 31.099 81.1367 30.5703 81.1367C30.2103 81.1367 29.8799 81.0843 29.5791 80.9795C29.2829 80.8747 29.0277 80.7129 28.8135 80.4941C28.5993 80.2754 28.4329 79.9906 28.3145 79.6396C28.2005 79.2887 28.1436 78.8672 28.1436 78.375V73.6035H29.4082V78.3887C29.4082 78.7214 29.4447 78.9971 29.5176 79.2158C29.5951 79.43 29.6976 79.6009 29.8252 79.7285C29.9574 79.8516 30.1032 79.9382 30.2627 79.9883C30.4268 80.0384 30.5954 80.0635 30.7686 80.0635C31.3063 80.0635 31.7324 79.9609 32.0469 79.7559C32.3613 79.5462 32.5869 79.266 32.7236 78.915C32.8649 78.5596 32.9355 78.1654 32.9355 77.7324ZM37.1602 74.7656V81H35.8955V73.6035H37.126L37.1602 74.7656ZM39.4707 73.5625L39.4639 74.7383C39.359 74.7155 39.2588 74.7018 39.1631 74.6973C39.0719 74.6882 38.9671 74.6836 38.8486 74.6836C38.557 74.6836 38.2995 74.7292 38.0762 74.8203C37.8529 74.9115 37.6637 75.0391 37.5088 75.2031C37.3538 75.3672 37.2308 75.5632 37.1396 75.791C37.0531 76.0143 36.9961 76.2604 36.9688 76.5293L36.6133 76.7344C36.6133 76.2878 36.6566 75.8685 36.7432 75.4766C36.8343 75.0846 36.9733 74.7383 37.1602 74.4375C37.347 74.1322 37.584 73.8952 37.8711 73.7266C38.1628 73.5534 38.5091 73.4668 38.9102 73.4668C39.0013 73.4668 39.1061 73.4782 39.2246 73.501C39.3431 73.5192 39.4251 73.5397 39.4707 73.5625ZM43.5723 81.1367C43.0573 81.1367 42.5902 81.0501 42.1709 80.877C41.7562 80.6992 41.3984 80.4508 41.0977 80.1318C40.8014 79.8128 40.5736 79.4346 40.4141 78.9971C40.2546 78.5596 40.1748 78.0811 40.1748 77.5615V77.2744C40.1748 76.6729 40.2637 76.1374 40.4414 75.668C40.6191 75.194 40.8607 74.793 41.166 74.4648C41.4714 74.1367 41.8177 73.8883 42.2051 73.7197C42.5924 73.5511 42.9935 73.4668 43.4082 73.4668C43.9368 73.4668 44.3926 73.5579 44.7754 73.7402C45.1628 73.9225 45.4795 74.1777 45.7256 74.5059C45.9717 74.8294 46.154 75.2122 46.2725 75.6543C46.391 76.0918 46.4502 76.5703 46.4502 77.0898V77.6572H40.9268V76.625H45.1855V76.5293C45.1673 76.2012 45.099 75.8822 44.9805 75.5723C44.8665 75.2624 44.6842 75.0072 44.4336 74.8066C44.1829 74.6061 43.8411 74.5059 43.4082 74.5059C43.1211 74.5059 42.8568 74.5674 42.6152 74.6904C42.3737 74.8089 42.1663 74.9867 41.9932 75.2236C41.82 75.4606 41.6855 75.75 41.5898 76.0918C41.4941 76.4336 41.4463 76.8278 41.4463 77.2744V77.5615C41.4463 77.9124 41.4941 78.2428 41.5898 78.5527C41.6901 78.8581 41.8337 79.127 42.0205 79.3594C42.2119 79.5918 42.4421 79.7741 42.7109 79.9062C42.9844 80.0384 43.2943 80.1045 43.6406 80.1045C44.0872 80.1045 44.4655 80.0133 44.7754 79.8311C45.0853 79.6488 45.3564 79.4049 45.5889 79.0996L46.3545 79.708C46.195 79.9495 45.9922 80.1797 45.7461 80.3984C45.5 80.6172 45.1969 80.7949 44.8369 80.9316C44.4814 81.0684 44.0599 81.1367 43.5723 81.1367Z" fill="white"/>
<path d="M2.47461 135.047V145H1.15527V135.047H2.47461ZM6.64453 139.524V140.604H2.1875V139.524H6.64453ZM7.32129 135.047V136.127H2.1875V135.047H7.32129ZM11.6211 145.137C11.1061 145.137 10.639 145.05 10.2197 144.877C9.80501 144.699 9.44727 144.451 9.14648 144.132C8.85026 143.813 8.6224 143.435 8.46289 142.997C8.30339 142.56 8.22363 142.081 8.22363 141.562V141.274C8.22363 140.673 8.3125 140.137 8.49023 139.668C8.66797 139.194 8.90951 138.793 9.21484 138.465C9.52018 138.137 9.86654 137.888 10.2539 137.72C10.6413 137.551 11.0423 137.467 11.457 137.467C11.9857 137.467 12.4414 137.558 12.8242 137.74C13.2116 137.923 13.5283 138.178 13.7744 138.506C14.0205 138.829 14.2028 139.212 14.3213 139.654C14.4398 140.092 14.499 140.57 14.499 141.09V141.657H8.97559V140.625H13.2344V140.529C13.2161 140.201 13.1478 139.882 13.0293 139.572C12.9154 139.262 12.7331 139.007 12.4824 138.807C12.2318 138.606 11.89 138.506 11.457 138.506C11.1699 138.506 10.9056 138.567 10.6641 138.69C10.4225 138.809 10.2152 138.987 10.042 139.224C9.86882 139.461 9.73438 139.75 9.63867 140.092C9.54297 140.434 9.49512 140.828 9.49512 141.274V141.562C9.49512 141.912 9.54297 142.243 9.63867 142.553C9.73893 142.858 9.88249 143.127 10.0693 143.359C10.2607 143.592 10.4909 143.774 10.7598 143.906C11.0332 144.038 11.3431 144.104 11.6895 144.104C12.1361 144.104 12.5143 144.013 12.8242 143.831C13.1341 143.649 13.4053 143.405 13.6377 143.1L14.4033 143.708C14.2438 143.95 14.041 144.18 13.7949 144.398C13.5488 144.617 13.2458 144.795 12.8857 144.932C12.5303 145.068 12.1087 145.137 11.6211 145.137ZM19.0449 145.137C18.5299 145.137 18.0628 145.05 17.6436 144.877C17.2288 144.699 16.8711 144.451 16.5703 144.132C16.2741 143.813 16.0462 143.435 15.8867 142.997C15.7272 142.56 15.6475 142.081 15.6475 141.562V141.274C15.6475 140.673 15.7363 140.137 15.9141 139.668C16.0918 139.194 16.3333 138.793 16.6387 138.465C16.944 138.137 17.2904 137.888 17.6777 137.72C18.0651 137.551 18.4661 137.467 18.8809 137.467C19.4095 137.467 19.8652 137.558 20.248 137.74C20.6354 137.923 20.9521 138.178 21.1982 138.506C21.4443 138.829 21.6266 139.212 21.7451 139.654C21.8636 140.092 21.9229 140.57 21.9229 141.09V141.657H16.3994V140.625H20.6582V140.529C20.64 140.201 20.5716 139.882 20.4531 139.572C20.3392 139.262 20.1569 139.007 19.9062 138.807C19.6556 138.606 19.3138 138.506 18.8809 138.506C18.5938 138.506 18.3294 138.567 18.0879 138.69C17.8464 138.809 17.639 138.987 17.4658 139.224C17.2926 139.461 17.1582 139.75 17.0625 140.092C16.9668 140.434 16.9189 140.828 16.9189 141.274V141.562C16.9189 141.912 16.9668 142.243 17.0625 142.553C17.1628 142.858 17.3063 143.127 17.4932 143.359C17.6846 143.592 17.9147 143.774 18.1836 143.906C18.457 144.038 18.7669 144.104 19.1133 144.104C19.5599 144.104 19.9382 144.013 20.248 143.831C20.5579 143.649 20.8291 143.405 21.0615 143.1L21.8271 143.708C21.6676 143.95 21.4648 144.18 21.2188 144.398C20.9727 144.617 20.6696 144.795 20.3096 144.932C19.9541 145.068 19.5326 145.137 19.0449 145.137ZM28.0615 143.564V134.5H29.333V145H28.1709L28.0615 143.564ZM23.085 141.384V141.24C23.085 140.675 23.1533 140.162 23.29 139.702C23.4313 139.237 23.6296 138.839 23.8848 138.506C24.1445 138.173 24.4521 137.918 24.8076 137.74C25.1676 137.558 25.5687 137.467 26.0107 137.467C26.4756 137.467 26.8812 137.549 27.2275 137.713C27.5785 137.872 27.8747 138.107 28.1162 138.417C28.3623 138.722 28.556 139.091 28.6973 139.524C28.8385 139.957 28.9365 140.447 28.9912 140.994V141.623C28.9411 142.165 28.8431 142.653 28.6973 143.086C28.556 143.519 28.3623 143.888 28.1162 144.193C27.8747 144.499 27.5785 144.733 27.2275 144.897C26.8766 145.057 26.4665 145.137 25.9971 145.137C25.5641 145.137 25.1676 145.043 24.8076 144.856C24.4521 144.67 24.1445 144.408 23.8848 144.07C23.6296 143.733 23.4313 143.337 23.29 142.881C23.1533 142.421 23.085 141.922 23.085 141.384ZM24.3564 141.24V141.384C24.3564 141.753 24.3929 142.099 24.4658 142.423C24.5433 142.746 24.6618 143.031 24.8213 143.277C24.9808 143.523 25.1836 143.717 25.4297 143.858C25.6758 143.995 25.9697 144.063 26.3115 144.063C26.7308 144.063 27.0749 143.975 27.3438 143.797C27.6172 143.619 27.8359 143.384 28 143.093C28.1641 142.801 28.2917 142.484 28.3828 142.143V140.495C28.3281 140.244 28.2484 140.003 28.1436 139.771C28.0433 139.534 27.9111 139.324 27.7471 139.142C27.5876 138.955 27.3893 138.807 27.1523 138.697C26.9199 138.588 26.6442 138.533 26.3252 138.533C25.9788 138.533 25.6803 138.606 25.4297 138.752C25.1836 138.893 24.9808 139.089 24.8213 139.34C24.6618 139.586 24.5433 139.873 24.4658 140.201C24.3929 140.525 24.3564 140.871 24.3564 141.24ZM31.2949 134.5H32.5664V143.564L32.457 145H31.2949V134.5ZM37.5635 141.24V141.384C37.5635 141.922 37.4997 142.421 37.3721 142.881C37.2445 143.337 37.0576 143.733 36.8115 144.07C36.5654 144.408 36.2646 144.67 35.9092 144.856C35.5537 145.043 35.1458 145.137 34.6855 145.137C34.2161 145.137 33.8037 145.057 33.4482 144.897C33.0973 144.733 32.8011 144.499 32.5596 144.193C32.318 143.888 32.1243 143.519 31.9785 143.086C31.8372 142.653 31.7393 142.165 31.6846 141.623V140.994C31.7393 140.447 31.8372 139.957 31.9785 139.524C32.1243 139.091 32.318 138.722 32.5596 138.417C32.8011 138.107 33.0973 137.872 33.4482 137.713C33.7992 137.549 34.207 137.467 34.6719 137.467C35.1367 137.467 35.5492 137.558 35.9092 137.74C36.2692 137.918 36.57 138.173 36.8115 138.506C37.0576 138.839 37.2445 139.237 37.3721 139.702C37.4997 140.162 37.5635 140.675 37.5635 141.24ZM36.292 141.384V141.24C36.292 140.871 36.2578 140.525 36.1895 140.201C36.1211 139.873 36.0117 139.586 35.8613 139.34C35.7109 139.089 35.5127 138.893 35.2666 138.752C35.0205 138.606 34.7174 138.533 34.3574 138.533C34.0384 138.533 33.7604 138.588 33.5234 138.697C33.291 138.807 33.0928 138.955 32.9287 139.142C32.7646 139.324 32.6302 139.534 32.5254 139.771C32.4251 140.003 32.3499 140.244 32.2998 140.495V142.143C32.3727 142.462 32.4912 142.769 32.6553 143.065C32.8239 143.357 33.0472 143.596 33.3252 143.783C33.6077 143.97 33.9564 144.063 34.3711 144.063C34.7129 144.063 35.0046 143.995 35.2461 143.858C35.4922 143.717 35.6904 143.523 35.8408 143.277C35.9958 143.031 36.1097 142.746 36.1826 142.423C36.2555 142.099 36.292 141.753 36.292 141.384ZM43.5244 143.735V139.928C43.5244 139.636 43.4652 139.383 43.3467 139.169C43.2327 138.95 43.0596 138.782 42.8271 138.663C42.5947 138.545 42.3076 138.485 41.9658 138.485C41.6468 138.485 41.3665 138.54 41.125 138.649C40.888 138.759 40.7012 138.902 40.5645 139.08C40.4323 139.258 40.3662 139.449 40.3662 139.654H39.1016C39.1016 139.39 39.1699 139.128 39.3066 138.868C39.4434 138.608 39.6393 138.374 39.8945 138.164C40.1543 137.95 40.4642 137.781 40.8242 137.658C41.1888 137.531 41.5944 137.467 42.041 137.467C42.5788 137.467 43.0527 137.558 43.4629 137.74C43.8776 137.923 44.2012 138.198 44.4336 138.567C44.6706 138.932 44.7891 139.39 44.7891 139.941V143.387C44.7891 143.633 44.8096 143.895 44.8506 144.173C44.8962 144.451 44.9622 144.69 45.0488 144.891V145H43.7295C43.6657 144.854 43.6156 144.66 43.5791 144.419C43.5426 144.173 43.5244 143.945 43.5244 143.735ZM43.7432 140.516L43.7568 141.404H42.4785C42.1185 141.404 41.7972 141.434 41.5146 141.493C41.2321 141.548 40.9951 141.632 40.8037 141.746C40.6123 141.86 40.4665 142.004 40.3662 142.177C40.266 142.345 40.2158 142.544 40.2158 142.771C40.2158 143.004 40.2682 143.216 40.373 143.407C40.4779 143.599 40.6351 143.751 40.8447 143.865C41.0589 143.975 41.321 144.029 41.6309 144.029C42.0182 144.029 42.36 143.947 42.6562 143.783C42.9525 143.619 43.1872 143.419 43.3604 143.182C43.5381 142.945 43.6338 142.715 43.6475 142.491L44.1875 143.1C44.1556 143.291 44.069 143.503 43.9277 143.735C43.7865 143.968 43.5973 144.191 43.3604 144.405C43.1279 144.615 42.8499 144.79 42.5264 144.932C42.2074 145.068 41.8473 145.137 41.4463 145.137C40.945 145.137 40.5052 145.039 40.127 144.843C39.7533 144.647 39.4616 144.385 39.252 144.057C39.0469 143.724 38.9443 143.353 38.9443 142.942C38.9443 142.546 39.0218 142.197 39.1768 141.896C39.3317 141.591 39.555 141.338 39.8467 141.138C40.1383 140.933 40.4893 140.778 40.8994 140.673C41.3096 140.568 41.7676 140.516 42.2734 140.516H43.7432ZM49.7383 144.098C50.0391 144.098 50.3171 144.036 50.5723 143.913C50.8275 143.79 51.0371 143.621 51.2012 143.407C51.3652 143.188 51.4587 142.94 51.4814 142.662H52.6846C52.6618 143.1 52.5137 143.507 52.2402 143.886C51.9714 144.259 51.6182 144.562 51.1807 144.795C50.7432 145.023 50.2624 145.137 49.7383 145.137C49.1823 145.137 48.6969 145.039 48.2822 144.843C47.8721 144.647 47.5303 144.378 47.2568 144.036C46.988 143.694 46.7852 143.302 46.6484 142.86C46.5163 142.414 46.4502 141.942 46.4502 141.445V141.158C46.4502 140.661 46.5163 140.192 46.6484 139.75C46.7852 139.303 46.988 138.909 47.2568 138.567C47.5303 138.226 47.8721 137.957 48.2822 137.761C48.6969 137.565 49.1823 137.467 49.7383 137.467C50.3171 137.467 50.8229 137.585 51.2559 137.822C51.6888 138.055 52.0283 138.374 52.2744 138.779C52.5251 139.18 52.6618 139.636 52.6846 140.146H51.4814C51.4587 139.841 51.3721 139.565 51.2217 139.319C51.0758 139.073 50.8753 138.877 50.6201 138.731C50.3695 138.581 50.0755 138.506 49.7383 138.506C49.3509 138.506 49.0251 138.583 48.7607 138.738C48.501 138.889 48.2936 139.094 48.1387 139.354C47.9883 139.609 47.8789 139.894 47.8105 140.208C47.7467 140.518 47.7148 140.835 47.7148 141.158V141.445C47.7148 141.769 47.7467 142.088 47.8105 142.402C47.8743 142.717 47.9814 143.002 48.1318 143.257C48.2868 143.512 48.4941 143.717 48.7539 143.872C49.0182 144.022 49.3464 144.098 49.7383 144.098ZM55.3779 134.5V145H54.1064V134.5H55.3779ZM59.8965 137.604L56.6699 141.056L54.8652 142.929L54.7627 141.582L56.0547 140.037L58.3516 137.604H59.8965ZM58.7412 145L56.1025 141.473L56.7588 140.345L60.2314 145H58.7412Z" fill="white"/>
<path d="M4.82617 11.0967H2.16699V10.0234H4.82617C5.34115 10.0234 5.75814 9.94141 6.07715 9.77734C6.39616 9.61328 6.62858 9.38542 6.77441 9.09375C6.9248 8.80208 7 8.4694 7 8.0957C7 7.75391 6.9248 7.43262 6.77441 7.13184C6.62858 6.83105 6.39616 6.58952 6.07715 6.40723C5.75814 6.22038 5.34115 6.12695 4.82617 6.12695H2.47461V15H1.15527V5.04688H4.82617C5.57812 5.04688 6.21387 5.17676 6.7334 5.43652C7.25293 5.69629 7.64714 6.05632 7.91602 6.5166C8.1849 6.97233 8.31934 7.49414 8.31934 8.08203C8.31934 8.72005 8.1849 9.26465 7.91602 9.71582C7.64714 10.167 7.25293 10.5111 6.7334 10.748C6.21387 10.9805 5.57812 11.0967 4.82617 11.0967ZM11.0605 8.76562V15H9.7959V7.60352H11.0264L11.0605 8.76562ZM13.3711 7.5625L13.3643 8.73828C13.2594 8.71549 13.1592 8.70182 13.0635 8.69727C12.9723 8.68815 12.8675 8.68359 12.749 8.68359C12.4574 8.68359 12.1999 8.72917 11.9766 8.82031C11.7533 8.91146 11.5641 9.03906 11.4092 9.20312C11.2542 9.36719 11.1312 9.56315 11.04 9.79102C10.9535 10.0143 10.8965 10.2604 10.8691 10.5293L10.5137 10.7344C10.5137 10.2878 10.557 9.86849 10.6436 9.47656C10.7347 9.08464 10.8737 8.73828 11.0605 8.4375C11.2474 8.13216 11.4844 7.89518 11.7715 7.72656C12.0632 7.55339 12.4095 7.4668 12.8105 7.4668C12.9017 7.4668 13.0065 7.47819 13.125 7.50098C13.2435 7.51921 13.3255 7.53971 13.3711 7.5625ZM14.0684 11.3838V11.2266C14.0684 10.6934 14.1458 10.1989 14.3008 9.74316C14.4557 9.28288 14.679 8.88411 14.9707 8.54688C15.2624 8.20508 15.6156 7.94076 16.0303 7.75391C16.445 7.5625 16.9098 7.4668 17.4248 7.4668C17.9443 7.4668 18.4115 7.5625 18.8262 7.75391C19.2454 7.94076 19.6009 8.20508 19.8926 8.54688C20.1888 8.88411 20.4144 9.28288 20.5693 9.74316C20.7243 10.1989 20.8018 10.6934 20.8018 11.2266V11.3838C20.8018 11.917 20.7243 12.4115 20.5693 12.8672C20.4144 13.3229 20.1888 13.7217 19.8926 14.0635C19.6009 14.4007 19.2477 14.665 18.833 14.8564C18.4229 15.0433 17.958 15.1367 17.4385 15.1367C16.9189 15.1367 16.4518 15.0433 16.0371 14.8564C15.6224 14.665 15.2669 14.4007 14.9707 14.0635C14.679 13.7217 14.4557 13.3229 14.3008 12.8672C14.1458 12.4115 14.0684 11.917 14.0684 11.3838ZM15.333 11.2266V11.3838C15.333 11.7529 15.3763 12.1016 15.4629 12.4297C15.5495 12.7533 15.6794 13.0404 15.8525 13.291C16.0303 13.5417 16.2513 13.7399 16.5156 13.8857C16.7799 14.027 17.0876 14.0977 17.4385 14.0977C17.7848 14.0977 18.0879 14.027 18.3477 13.8857C18.612 13.7399 18.8307 13.5417 19.0039 13.291C19.1771 13.0404 19.307 12.7533 19.3936 12.4297C19.4847 12.1016 19.5303 11.7529 19.5303 11.3838V11.2266C19.5303 10.862 19.4847 10.5179 19.3936 10.1943C19.307 9.86621 19.1748 9.57682 18.9971 9.32617C18.8239 9.07096 18.6051 8.87044 18.3408 8.72461C18.0811 8.57878 17.7757 8.50586 17.4248 8.50586C17.0785 8.50586 16.7731 8.57878 16.5088 8.72461C16.249 8.87044 16.0303 9.07096 15.8525 9.32617C15.6794 9.57682 15.5495 9.86621 15.4629 10.1943C15.3763 10.5179 15.333 10.862 15.333 11.2266ZM27.0498 13.5645V4.5H28.3213V15H27.1592L27.0498 13.5645ZM22.0732 11.3838V11.2402C22.0732 10.6751 22.1416 10.1624 22.2783 9.70215C22.4196 9.2373 22.6178 8.83854 22.873 8.50586C23.1328 8.17318 23.4404 7.91797 23.7959 7.74023C24.1559 7.55794 24.557 7.4668 24.999 7.4668C25.4639 7.4668 25.8695 7.54883 26.2158 7.71289C26.5667 7.8724 26.863 8.1071 27.1045 8.41699C27.3506 8.72233 27.5443 9.09147 27.6855 9.52441C27.8268 9.95736 27.9248 10.4473 27.9795 10.9941V11.623C27.9294 12.1654 27.8314 12.653 27.6855 13.0859C27.5443 13.5189 27.3506 13.888 27.1045 14.1934C26.863 14.4987 26.5667 14.7334 26.2158 14.8975C25.8649 15.057 25.4548 15.1367 24.9854 15.1367C24.5524 15.1367 24.1559 15.0433 23.7959 14.8564C23.4404 14.6696 23.1328 14.4076 22.873 14.0703C22.6178 13.7331 22.4196 13.3366 22.2783 12.8809C22.1416 12.4206 22.0732 11.9215 22.0732 11.3838ZM23.3447 11.2402V11.3838C23.3447 11.7529 23.3812 12.0993 23.4541 12.4229C23.5316 12.7464 23.6501 13.0312 23.8096 13.2773C23.9691 13.5234 24.1719 13.7171 24.418 13.8584C24.6641 13.9951 24.958 14.0635 25.2998 14.0635C25.7191 14.0635 26.0632 13.9746 26.332 13.7969C26.6055 13.6191 26.8242 13.3844 26.9883 13.0928C27.1523 12.8011 27.2799 12.4844 27.3711 12.1426V10.4951C27.3164 10.2445 27.2367 10.0029 27.1318 9.77051C27.0316 9.53353 26.8994 9.32389 26.7354 9.1416C26.5758 8.95475 26.3776 8.80664 26.1406 8.69727C25.9082 8.58789 25.6325 8.5332 25.3135 8.5332C24.9671 8.5332 24.6686 8.60612 24.418 8.75195C24.1719 8.89323 23.9691 9.08919 23.8096 9.33984C23.6501 9.58594 23.5316 9.87305 23.4541 10.2012C23.3812 10.5247 23.3447 10.8711 23.3447 11.2402ZM34.8154 13.291V7.60352H36.0869V15H34.877L34.8154 13.291ZM35.0547 11.7324L35.5811 11.7188C35.5811 12.2109 35.5286 12.6667 35.4238 13.0859C35.3236 13.5007 35.1595 13.8607 34.9316 14.166C34.7038 14.4714 34.4053 14.7106 34.0361 14.8838C33.667 15.0524 33.2181 15.1367 32.6895 15.1367C32.3294 15.1367 31.999 15.0843 31.6982 14.9795C31.402 14.8747 31.1468 14.7129 30.9326 14.4941C30.7184 14.2754 30.5521 13.9906 30.4336 13.6396C30.3197 13.2887 30.2627 12.8672 30.2627 12.375V7.60352H31.5273V12.3887C31.5273 12.7214 31.5638 12.9971 31.6367 13.2158C31.7142 13.43 31.8167 13.6009 31.9443 13.7285C32.0765 13.8516 32.2223 13.9382 32.3818 13.9883C32.5459 14.0384 32.7145 14.0635 32.8877 14.0635C33.4255 14.0635 33.8516 13.9609 34.166 13.7559C34.4805 13.5462 34.7061 13.266 34.8428 12.915C34.984 12.5596 35.0547 12.1654 35.0547 11.7324ZM40.9746 14.0977C41.2754 14.0977 41.5534 14.0361 41.8086 13.9131C42.0638 13.79 42.2734 13.6214 42.4375 13.4072C42.6016 13.1885 42.695 12.9401 42.7178 12.6621H43.9209C43.8981 13.0996 43.75 13.5075 43.4766 13.8857C43.2077 14.2594 42.8545 14.5625 42.417 14.7949C41.9795 15.0228 41.4987 15.1367 40.9746 15.1367C40.4186 15.1367 39.9333 15.0387 39.5186 14.8428C39.1084 14.6468 38.7666 14.3779 38.4932 14.0361C38.2243 13.6943 38.0215 13.3024 37.8848 12.8604C37.7526 12.4137 37.6865 11.9421 37.6865 11.4453V11.1582C37.6865 10.6615 37.7526 10.1921 37.8848 9.75C38.0215 9.30339 38.2243 8.90918 38.4932 8.56738C38.7666 8.22559 39.1084 7.95671 39.5186 7.76074C39.9333 7.56478 40.4186 7.4668 40.9746 7.4668C41.5534 7.4668 42.0592 7.58529 42.4922 7.82227C42.9251 8.05469 43.2646 8.3737 43.5107 8.7793C43.7614 9.18034 43.8981 9.63607 43.9209 10.1465H42.7178C42.695 9.84115 42.6084 9.56543 42.458 9.31934C42.3122 9.07324 42.1117 8.87728 41.8564 8.73145C41.6058 8.58105 41.3118 8.50586 40.9746 8.50586C40.5872 8.50586 40.2614 8.58333 39.9971 8.73828C39.7373 8.88867 39.5299 9.09375 39.375 9.35352C39.2246 9.60872 39.1152 9.89355 39.0469 10.208C38.9831 10.5179 38.9512 10.8346 38.9512 11.1582V11.4453C38.9512 11.7689 38.9831 12.0879 39.0469 12.4023C39.1107 12.7168 39.2178 13.0016 39.3682 13.2568C39.5231 13.512 39.7305 13.7171 39.9902 13.8721C40.2546 14.0225 40.5827 14.0977 40.9746 14.0977ZM48.4395 7.60352V8.57422H44.4404V7.60352H48.4395ZM45.7939 5.80566H47.0586V13.168C47.0586 13.4186 47.0973 13.6077 47.1748 13.7354C47.2523 13.863 47.3525 13.9473 47.4756 13.9883C47.5986 14.0293 47.7308 14.0498 47.8721 14.0498C47.9769 14.0498 48.0863 14.0407 48.2002 14.0225C48.3187 13.9997 48.4076 13.9814 48.4668 13.9678L48.4736 15C48.3734 15.0319 48.2412 15.0615 48.0771 15.0889C47.9176 15.1208 47.724 15.1367 47.4961 15.1367C47.1862 15.1367 46.9014 15.0752 46.6416 14.9521C46.3818 14.8291 46.1745 14.624 46.0195 14.3369C45.8691 14.0452 45.7939 13.6533 45.7939 13.1611V5.80566Z" fill="#949C9E"/>
</svg>
