<svg width="156" height="24" viewBox="0 0 156 24" fill="none" xmlns="http://www.w3.org/2000/svg">
<path d="M57.8716 7.99202H58.9996V6.08402C58.4535 6.02723 57.9047 5.99919 57.3556 6.00002C55.7236 6.00002 54.6076 6.99602 54.6076 8.82002V10.392H52.7656V12.528H54.6076V18H56.8156V12.528H58.6516L58.9276 10.392H56.8156V9.03002C56.8156 8.40002 56.9836 7.99202 57.8716 7.99202Z" fill="white"/>
<circle cx="56" cy="12" r="11.5" stroke="white"/>
<g clip-path="url(#clip0_1_425)">
<path fill-rule="evenodd" clip-rule="evenodd" d="M18.54 9.00093C18.54 7.04733 16.9536 5.46094 15 5.46094H8.99996C7.04636 5.46094 5.45996 7.04733 5.45996 9.00093V15.0009C5.45996 16.9545 7.04636 18.5409 8.99996 18.5409H15C16.9536 18.5409 18.54 16.9545 18.54 15.0009V9.00093ZM17.46 9.00093V15.0009C17.46 16.3587 16.3578 17.4609 15 17.4609H8.99996C7.64216 17.4609 6.53996 16.3587 6.53996 15.0009V9.00093C6.53996 7.64313 7.64216 6.54093 8.99996 6.54093H15C16.3578 6.54093 17.46 7.64313 17.46 9.00093ZM14.934 11.5437C14.745 10.2663 13.7346 9.25593 12.4572 9.06693C12.3144 9.04533 12.1704 9.03514 12.0258 9.03514C10.413 9.03514 9.08576 10.3623 9.08576 11.9751C9.08576 13.5879 10.413 14.9151 12.0258 14.9151C13.6386 14.9151 14.9658 13.5879 14.9658 11.9751C14.9658 11.8305 14.9556 11.6865 14.934 11.5437ZM13.866 11.7021C13.8792 11.7927 13.8858 11.8839 13.8858 11.9751C13.8858 12.9951 13.0464 13.8351 12.0258 13.8351C11.0058 13.8351 10.1658 12.9951 10.1658 11.9751C10.1658 10.9545 11.0058 10.1151 12.0258 10.1151C12.117 10.1151 12.2082 10.1217 12.2988 10.1349C13.107 10.2549 13.746 10.8939 13.866 11.7021ZM15.3 8.16094C15.5982 8.16094 15.84 8.40273 15.84 8.70093C15.84 8.99913 15.5982 9.24093 15.3 9.24093C15.0018 9.24093 14.76 8.99913 14.76 8.70093C14.76 8.40273 15.0018 8.16094 15.3 8.16094Z" fill="white"/>
</g>
<circle cx="12" cy="12" r="11.5" stroke="white"/>
<path d="M106.48 13.4013V18.1926H103.702V13.7221C103.702 12.5991 103.3 11.8327 102.294 11.8327C101.527 11.8327 101.07 12.3492 100.869 12.8488C100.796 13.0275 100.777 13.276 100.777 13.5261V18.1926H97.9985C97.9985 18.1926 98.0359 10.6211 97.9985 9.83656H100.777V11.021C100.771 11.0299 100.764 11.0394 100.759 11.048H100.777V11.021C101.146 10.4524 101.805 9.64029 103.281 9.64029C105.109 9.64029 106.48 10.8346 106.48 13.4013ZM95.0919 5.80859C94.1413 5.80859 93.5195 6.43211 93.5195 7.25205C93.5195 8.05413 94.1233 8.69651 95.055 8.69651H95.0736C96.0426 8.69651 96.6452 8.05427 96.6452 7.25205C96.6269 6.43211 96.0426 5.80859 95.0919 5.80859ZM93.6846 18.1926H96.4622V9.83656H93.6846V18.1926Z" fill="white"/>
<circle cx="100" cy="12" r="11.5" stroke="white"/>
<path d="M150 8.28169C149.549 8.47735 149.072 8.60669 148.584 8.66569C149.099 8.35808 149.485 7.87416 149.67 7.30369C149.186 7.59173 148.656 7.79467 148.104 7.90369C147.735 7.50323 147.243 7.23667 146.706 7.1458C146.169 7.05493 145.617 7.1449 145.136 7.4016C144.656 7.6583 144.274 8.06721 144.051 8.56419C143.828 9.06117 143.776 9.61812 143.904 10.1477C142.926 10.0982 141.969 9.84346 141.095 9.40001C140.222 8.95655 139.451 8.3343 138.834 7.57369C138.617 7.95179 138.504 8.37998 138.504 8.81569C138.503 9.22032 138.603 9.61886 138.793 9.97583C138.984 10.3328 139.259 10.6371 139.596 10.8617C139.205 10.851 138.822 10.7461 138.48 10.5557V10.5857C138.483 11.1526 138.682 11.7011 139.042 12.1385C139.403 12.5758 139.904 12.8751 140.46 12.9857C140.246 13.0508 140.024 13.0852 139.8 13.0877C139.645 13.0859 139.491 13.0718 139.338 13.0457C139.496 13.5334 139.803 13.9596 140.215 14.265C140.627 14.5704 141.123 14.7398 141.636 14.7497C140.77 15.4308 139.702 15.8026 138.6 15.8057C138.399 15.8063 138.199 15.7943 138 15.7697C139.125 16.4958 140.435 16.8813 141.774 16.8797C142.698 16.8893 143.614 16.7147 144.47 16.3661C145.325 16.0176 146.103 15.502 146.757 14.8496C147.411 14.1972 147.929 13.4209 148.28 12.5662C148.63 11.7115 148.807 10.7955 148.8 9.87169C148.8 9.76969 148.8 9.66169 148.8 9.55369C149.271 9.20257 149.677 8.77214 150 8.28169Z" fill="white"/>
<circle cx="144" cy="12" r="11.5" stroke="white"/>
<defs>
<clipPath id="clip0_1_425">
<rect width="14.4" height="14.4" fill="white" transform="translate(4.7998 4.80078)"/>
</clipPath>
</defs>
</svg>
